<svg width="51" height="16" viewBox="0 0 51 16" fill="none" xmlns="http://www.w3.org/2000/svg">
<path d="M36.6223 2.05757L32.256 10.3787C32.1646 10.5616 31.8903 10.5616 31.7988 10.3787L27.4325 2.05757C27.3868 1.96613 27.2953 1.92041 27.2039 1.92041H25.0779C24.9407 1.92041 24.8493 2.08043 24.9179 2.19474L31.7988 15.0879C31.8903 15.2708 32.1417 15.2708 32.256 15.0879L39.137 2.19474C39.2055 2.05757 39.1141 1.92041 38.9769 1.92041H36.8509C36.7595 1.92041 36.668 1.96613 36.6223 2.05757Z" fill="#8E8F8C"/>
<path d="M39.0912 13.1675L43.4575 4.84637C43.5489 4.66349 43.8233 4.66349 43.9147 4.84637L48.281 13.1675C48.3267 13.2589 48.4182 13.3047 48.5096 13.3047H50.6356C50.7728 13.3047 50.8642 13.1446 50.7957 13.0303L43.9147 0.137162C43.8233 -0.0457205 43.5718 -0.0457205 43.4575 0.137162L36.5765 13.0303C36.508 13.1675 36.5994 13.3047 36.7366 13.3047H38.8626C38.954 13.3047 39.0455 13.2589 39.0912 13.1675Z" fill="#8E8F8C"/>
<path d="M6.37803 13.3049H2.44605C2.30889 13.3049 2.19459 13.1906 2.19459 13.0534V9.5101C2.19459 9.37294 2.30889 9.25864 2.44605 9.25864H6.37803C8.25257 9.25864 9.0984 9.78442 9.0984 11.2703C9.0984 12.7563 8.27543 13.282 6.37803 13.282M2.44605 3.84076H6.3323C7.7725 3.84076 8.50403 4.45799 8.50403 5.57814C8.50403 6.69829 7.7725 7.31552 6.3323 7.31552H2.44605C2.30889 7.31552 2.19459 7.20122 2.19459 7.06405V4.09222C2.19459 3.95506 2.30889 3.84076 2.44605 3.84076ZM9.2127 8.0699C10.1271 7.6127 10.6986 6.62971 10.6986 5.41812C10.6986 3.33784 9.07554 1.94336 6.81237 1.94336H0.251465C0.114303 1.94336 0 2.05766 0 2.19482V14.9966C0 15.1337 0.114303 15.248 0.251465 15.248H6.51519C9.64705 15.248 11.3159 13.8993 11.3159 11.2475C11.3159 8.59569 9.23556 8.0699 9.23556 8.0699" fill="#8E8F8C"/>
<path d="M19.8199 13.3049H15.888C15.7508 13.3049 15.6365 13.1906 15.6365 13.0534V9.5101C15.6365 9.37294 15.7508 9.25864 15.888 9.25864H19.8199C21.6945 9.25864 22.5403 9.78442 22.5403 11.2703C22.5403 12.7563 21.7173 13.282 19.8199 13.282M15.888 3.84076H19.7742C21.2144 3.84076 21.9459 4.45799 21.9459 5.57814C21.9459 6.69829 21.2144 7.31552 19.7742 7.31552H15.888C15.7508 7.31552 15.6365 7.20122 15.6365 7.06405V4.09222C15.6365 3.95506 15.7508 3.84076 15.888 3.84076ZM22.6546 8.0699C23.569 7.6127 24.1405 6.62971 24.1405 5.41812C24.1405 3.33784 22.5174 1.94336 20.2543 1.94336H13.6934C13.5562 1.94336 13.4419 2.05766 13.4419 2.19482V14.9966C13.4419 15.1337 13.5562 15.248 13.6934 15.248H19.9571C23.0889 15.248 24.7577 13.8993 24.7577 11.2475C24.7577 8.59569 22.6775 8.0699 22.6775 8.0699" fill="#8E8F8C"/>
</svg>
