<svg width="52" height="41" viewBox="0 0 52 41" fill="none" xmlns="http://www.w3.org/2000/svg">
<path d="M29.2153 0.843903C29.2153 0.889654 29.2153 0.935405 29.2153 0.982542C29.261 0.996839 29.3068 1.01114 29.3539 1.02587C30.3813 1.49664 31.0649 2.44224 31.6401 3.37136C31.675 3.42751 31.675 3.42751 31.7106 3.4848C31.7807 3.61669 31.7807 3.61669 31.8403 3.79204C31.9163 3.9962 31.9865 4.14291 32.1274 4.30988C32.401 4.42833 32.6741 4.47348 32.9688 4.51206C33.1637 4.53779 33.3571 4.57071 33.5509 4.60335C33.6501 4.62003 33.7493 4.6364 33.8485 4.65246C35.0083 4.84196 36.1276 5.21637 37.2366 5.59663C37.2822 5.61227 37.3278 5.62791 37.3748 5.64402C38.224 5.93669 39.0773 6.23933 39.8757 6.65376C40.2338 6.8377 40.5943 7.01423 40.9594 7.18411C41.478 7.42554 41.9762 7.67486 42.4584 7.98383C42.5454 8.03731 42.6324 8.09064 42.7195 8.14386C43.2747 8.4843 43.8099 8.83967 44.3305 9.23158C44.4201 9.29745 44.5097 9.36324 44.5994 9.42898C45.0901 9.79032 45.5627 10.1554 46.007 10.5733C46.127 10.6919 46.127 10.6919 46.2719 10.7566C46.2719 10.8024 46.2719 10.8481 46.2719 10.8953C46.3128 10.9136 46.3536 10.9319 46.3957 10.9507C46.5551 11.0371 46.6594 11.1272 46.7868 11.2554C46.8303 11.299 46.8739 11.3426 46.9187 11.3875C46.9868 11.457 46.9868 11.457 47.0563 11.5278C47.1032 11.5753 47.1501 11.6228 47.1984 11.6717C47.5024 11.9811 47.8015 12.291 48.0746 12.6282C48.1054 12.6661 48.1362 12.7039 48.1679 12.743C48.2746 12.8747 48.3806 13.007 48.4863 13.1395C48.5381 13.204 48.5381 13.204 48.5909 13.2697C48.8373 13.5825 48.8373 13.5825 48.8373 13.7374C48.8831 13.7374 48.9289 13.7374 48.976 13.7374C49.0835 13.8871 49.0835 13.8871 49.2057 14.0883C49.3454 14.3148 49.4843 14.5377 49.6434 14.7512C50.4468 15.8595 50.9944 17.2459 51.3724 18.5551C51.3869 18.6041 51.4013 18.6532 51.4162 18.7037C51.5812 19.2697 51.7079 19.8248 51.7884 20.4094C51.8019 20.506 51.8019 20.506 51.8156 20.6046C51.8784 21.0645 51.9359 21.5225 51.9574 21.9864C51.9629 22.0889 51.9629 22.0889 51.9686 22.1935C52.0078 23.6193 51.8004 25.2926 51.2524 26.6175C51.1893 26.7709 51.1893 26.7709 51.1604 26.946C51.126 27.1133 51.0765 27.2311 50.9954 27.3803C50.9014 27.5604 50.8292 27.7243 50.7614 27.9176C50.4324 28.8335 49.8465 29.701 49.3227 30.5127C49.2936 30.5585 49.2646 30.6044 49.2347 30.6516C49.0616 30.9205 49.0616 30.9205 48.9067 30.9979C48.8873 31.0374 48.8679 31.0768 48.8479 31.1174C48.7447 31.3212 48.6077 31.4777 48.4603 31.6522C48.304 31.8373 48.1594 32.0115 48.0367 32.2205C47.9312 32.3922 47.8275 32.4922 47.6716 32.6183C47.4355 32.8161 47.2405 33.024 47.0503 33.2657C47.0222 33.2951 46.9942 33.3245 46.9653 33.3548C46.9195 33.3548 46.8737 33.3548 46.8266 33.3548C46.8037 33.4234 46.7808 33.4921 46.7573 33.5628C46.7115 33.5628 46.6657 33.5628 46.6186 33.5628C46.6186 33.6085 46.6186 33.6543 46.6186 33.7014C46.3232 34.0061 45.9745 34.2559 45.6333 34.5062C45.4972 34.6073 45.4972 34.6073 45.3489 34.7672C45.1238 34.987 44.8796 35.1613 44.6235 35.3434C44.4627 35.4587 44.3038 35.5752 44.1458 35.6944C43.7027 36.0273 43.2675 36.336 42.7731 36.5904C42.5951 36.6832 42.4256 36.7847 42.2547 36.8901C41.9274 37.0897 41.5885 37.2585 41.2429 37.4241C41.0656 37.5064 41.0656 37.5064 40.933 37.6526C40.7649 37.7313 40.5969 37.8058 40.426 37.8779C40.076 38.0277 39.7294 38.1812 39.386 38.3458C38.4972 38.757 37.5615 39.0573 36.6342 39.3683C36.5565 39.3944 36.4788 39.4205 36.3987 39.4474C35.0751 39.8868 35.0751 39.8868 34.6235 39.8709C34.6006 39.9166 34.5777 39.9624 34.5541 40.0095C34.4451 40.0265 34.336 40.0425 34.2264 40.055C34.0382 40.0834 33.8585 40.1302 33.6744 40.1785C33.1817 40.305 32.6856 40.3872 32.1818 40.4558C31.9206 40.4946 31.6629 40.5435 31.4037 40.5936C30.6334 40.7339 29.8566 40.7946 29.0766 40.8543C28.9996 40.8603 28.9227 40.8663 28.8434 40.8724C26.6508 41.0396 24.5008 41.0382 22.315 40.797C22.0024 40.7646 21.6894 40.7414 21.3758 40.72C21.0044 40.6884 20.6382 40.6265 20.2709 40.5641C20.2248 40.5564 20.1786 40.5487 20.131 40.5407C19.4785 40.4317 18.8336 40.3059 18.1908 40.1481C18.108 40.1283 18.0251 40.1085 17.9398 40.088C16.2191 39.6688 14.5322 39.1488 12.8953 38.4715C12.8117 38.4369 12.7281 38.4023 12.6419 38.3666C12.2207 38.1897 11.809 38.0023 11.4022 37.7942C11.1783 37.6826 10.9464 37.5986 10.7115 37.5135C10.5639 37.4447 10.5639 37.4447 10.4694 37.348C10.3015 37.1834 10.0958 37.0943 9.88786 36.9898C9.37114 36.7218 8.8922 36.414 8.41366 36.0836C8.26451 35.9812 8.11424 35.8806 7.96379 35.7802C7.86121 35.7112 7.75865 35.6421 7.65611 35.573C7.60723 35.5405 7.55834 35.508 7.50798 35.4745C7.39163 35.3954 7.27864 35.3114 7.16643 35.2264C7.16643 35.1807 7.16643 35.1349 7.16643 35.0878C7.09135 35.0642 7.09135 35.0642 7.01476 35.0401C6.78286 34.932 6.65052 34.7846 6.47307 34.6026C6.40443 34.5797 6.33578 34.5568 6.26506 34.5332C6.14619 34.4211 6.03123 34.3048 5.91838 34.1866C5.84559 34.1127 5.77264 34.039 5.69954 33.9654C5.66155 33.9271 5.62357 33.8888 5.58443 33.8494C5.54591 33.8106 5.50739 33.7717 5.4677 33.7317C5.40991 33.6731 5.40991 33.6731 5.35096 33.6133C5.13409 33.3952 4.91137 33.1999 4.67033 33.0082C4.58841 32.9224 4.50879 32.8343 4.43199 32.7439C4.37086 32.6722 4.37086 32.6722 4.30849 32.5991C4.26773 32.5511 4.22697 32.5031 4.18498 32.4537C4.14423 32.4078 4.10347 32.362 4.06148 32.3148C4.02358 32.2719 3.98569 32.2291 3.94664 32.185C3.91241 32.1466 3.87818 32.1082 3.84291 32.0686C3.76897 31.9684 3.76897 31.9684 3.76897 31.8298C3.70032 31.8069 3.63168 31.784 3.56096 31.7605C3.4428 31.6124 3.33418 31.4657 3.22728 31.3099C3.19622 31.2654 3.16516 31.2209 3.13316 31.175C3.04413 31.047 2.95584 30.9185 2.8676 30.79C2.83015 30.7366 2.7927 30.6833 2.75412 30.6283C2.13237 29.7253 1.51795 28.7263 1.12905 27.7007C1.08784 27.5923 1.04449 27.4848 0.998508 27.3784C0.770523 26.8472 0.62868 26.2927 0.480046 25.7354C0.443546 25.601 0.40464 25.4672 0.365547 25.3335C0.268299 24.9841 0.216858 24.6323 0.163498 24.2739C0.149644 24.1939 0.13579 24.1138 0.121517 24.0313C-0.222305 21.7428 0.178452 19.1739 1.1342 17.0647C1.15184 17.0247 1.16948 16.9847 1.18766 16.9435C1.53193 16.1662 1.93516 15.431 2.3724 14.7023C2.44001 14.5886 2.50499 14.4735 2.5694 14.358C2.59916 14.3133 2.62893 14.2686 2.65959 14.2226C2.70535 14.2226 2.75112 14.2226 2.79826 14.2226C2.81462 14.1743 2.83098 14.1259 2.84783 14.0761C2.95296 13.84 3.09435 13.6485 3.25328 13.4471C3.28397 13.4077 3.31465 13.3683 3.34626 13.3278C3.58879 13.0199 3.84488 12.7264 4.1105 12.4382C4.23977 12.2975 4.36441 12.1541 4.48833 12.0087C4.96937 11.4575 5.49905 10.9517 6.05705 10.4793C6.12078 10.4233 6.18451 10.3673 6.25016 10.3096C6.84764 9.78793 7.48245 9.3318 8.13713 8.88498C8.18277 8.85358 8.22841 8.82219 8.27543 8.78984C8.88264 8.37279 9.50101 7.99049 10.1479 7.63723C10.1931 7.61231 10.2383 7.58739 10.2849 7.56171C11.0307 7.15191 11.7919 6.7924 12.5746 6.45879C12.687 6.41081 12.687 6.41081 12.8016 6.36185C13.0027 6.27721 13.2046 6.19451 13.4067 6.1122C13.4828 6.08038 13.559 6.04857 13.6374 6.0158C14.6574 5.59642 15.7022 5.25731 16.7651 4.96409C16.8391 4.94345 16.9132 4.92281 16.9894 4.90154C17.4124 4.78846 17.8302 4.70253 18.2632 4.64186C19.2503 4.55994 19.2503 4.55994 20.0304 4.05183C20.1598 3.82143 20.2355 3.58654 20.2997 3.33122C20.365 3.12107 20.4878 2.96026 20.6176 2.78485C20.6715 2.70926 20.6715 2.70926 20.7265 2.63213C21.7801 1.24534 23.2246 0.371319 24.9381 0.0640566C26.4425 -0.136365 27.8735 0.136221 29.2153 0.843903Z" fill="#8E8F8C"/>
<path d="M29.2153 0.843903C29.2153 0.889654 29.2153 0.935405 29.2153 0.982542C29.261 0.996839 29.3068 1.01114 29.3539 1.02587C30.3813 1.49664 31.0649 2.44224 31.6401 3.37136C31.675 3.42751 31.675 3.42751 31.7106 3.4848C31.7807 3.61669 31.7807 3.61669 31.8403 3.79204C31.9163 3.9962 31.9865 4.14291 32.1274 4.30988C32.401 4.42833 32.6741 4.47348 32.9688 4.51206C33.1637 4.53779 33.3571 4.57071 33.5509 4.60335C33.6501 4.62003 33.7493 4.6364 33.8485 4.65246C35.0083 4.84196 36.1276 5.21637 37.2366 5.59663C37.2822 5.61227 37.3278 5.62791 37.3748 5.64402C38.224 5.93669 39.0773 6.23933 39.8757 6.65376C40.2338 6.8377 40.5943 7.01423 40.9594 7.18411C41.478 7.42554 41.9762 7.67486 42.4584 7.98383C42.5454 8.03731 42.6324 8.09064 42.7195 8.14386C43.2747 8.4843 43.8099 8.83967 44.3305 9.23158C44.4201 9.29745 44.5097 9.36324 44.5994 9.42898C45.0901 9.79032 45.5627 10.1554 46.007 10.5733C46.127 10.6919 46.127 10.6919 46.2719 10.7566C46.2719 10.8024 46.2719 10.8481 46.2719 10.8953C46.3128 10.9136 46.3536 10.9319 46.3957 10.9507C46.5551 11.0371 46.6594 11.1272 46.7868 11.2554C46.8303 11.299 46.8739 11.3426 46.9187 11.3875C46.9868 11.457 46.9868 11.457 47.0563 11.5278C47.1032 11.5753 47.1501 11.6228 47.1984 11.6717C47.5024 11.9811 47.8015 12.291 48.0746 12.6282C48.1054 12.6661 48.1362 12.7039 48.1679 12.743C48.2746 12.8747 48.3806 13.007 48.4863 13.1395C48.5381 13.204 48.5381 13.204 48.5909 13.2697C48.8373 13.5825 48.8373 13.5825 48.8373 13.7374C48.8831 13.7374 48.9289 13.7374 48.976 13.7374C49.0835 13.8871 49.0835 13.8871 49.2057 14.0883C49.3454 14.3148 49.4843 14.5377 49.6434 14.7512C50.4468 15.8595 50.9944 17.2459 51.3724 18.5551C51.3869 18.6041 51.4013 18.6532 51.4162 18.7037C51.5812 19.2697 51.7079 19.8248 51.7884 20.4094C51.8019 20.506 51.8019 20.506 51.8156 20.6046C51.8784 21.0645 51.9359 21.5225 51.9574 21.9864C51.9629 22.0889 51.9629 22.0889 51.9686 22.1935C52.0078 23.6193 51.8004 25.2926 51.2524 26.6175C51.1893 26.7709 51.1893 26.7709 51.1604 26.946C51.126 27.1133 51.0765 27.2311 50.9954 27.3803C50.9014 27.5604 50.8292 27.7243 50.7614 27.9176C50.4324 28.8335 49.8465 29.701 49.3227 30.5127C49.2936 30.5585 49.2646 30.6044 49.2347 30.6516C49.0616 30.9205 49.0616 30.9205 48.9067 30.9979C48.8873 31.0374 48.8679 31.0768 48.8479 31.1174C48.7447 31.3212 48.6077 31.4777 48.4603 31.6522C48.304 31.8373 48.1594 32.0115 48.0367 32.2205C47.9312 32.3922 47.8275 32.4922 47.6716 32.6183C47.4355 32.8161 47.2405 33.024 47.0503 33.2657C47.0222 33.2951 46.9942 33.3245 46.9653 33.3548C46.9195 33.3548 46.8737 33.3548 46.8266 33.3548C46.8037 33.4234 46.7808 33.4921 46.7573 33.5628C46.7115 33.5628 46.6657 33.5628 46.6186 33.5628C46.6186 33.6085 46.6186 33.6543 46.6186 33.7014C46.3232 34.0061 45.9745 34.2559 45.6333 34.5062C45.4972 34.6073 45.4972 34.6073 45.3489 34.7672C45.1238 34.987 44.8796 35.1613 44.6235 35.3434C44.4627 35.4587 44.3038 35.5752 44.1458 35.6944C43.7027 36.0273 43.2675 36.336 42.7731 36.5904C42.5951 36.6832 42.4256 36.7847 42.2547 36.8901C41.9274 37.0897 41.5885 37.2585 41.2429 37.4241C41.0656 37.5064 41.0656 37.5064 40.933 37.6526C40.7649 37.7313 40.5969 37.8058 40.426 37.8779C40.076 38.0277 39.7294 38.1812 39.386 38.3458C38.4972 38.757 37.5615 39.0573 36.6342 39.3683C36.5565 39.3944 36.4788 39.4205 36.3987 39.4474C35.0751 39.8868 35.0751 39.8868 34.6235 39.8709C34.6006 39.9166 34.5777 39.9624 34.5541 40.0095C34.4451 40.0265 34.336 40.0425 34.2264 40.055C34.0382 40.0834 33.8585 40.1302 33.6744 40.1785C33.1817 40.305 32.6856 40.3872 32.1818 40.4558C31.9206 40.4946 31.6629 40.5435 31.4037 40.5936C30.6334 40.7339 29.8566 40.7946 29.0766 40.8543C28.9996 40.8603 28.9227 40.8663 28.8434 40.8724C26.6508 41.0396 24.5008 41.0382 22.315 40.797C22.0024 40.7646 21.6894 40.7414 21.3758 40.72C21.0044 40.6884 20.6382 40.6265 20.2709 40.5641C20.2248 40.5564 20.1786 40.5487 20.131 40.5407C19.4785 40.4317 18.8336 40.3059 18.1908 40.1481C18.108 40.1283 18.0251 40.1085 17.9398 40.088C16.2191 39.6688 14.5322 39.1488 12.8953 38.4715C12.8117 38.4369 12.7281 38.4023 12.6419 38.3666C12.2207 38.1897 11.809 38.0023 11.4022 37.7942C11.1783 37.6826 10.9464 37.5986 10.7115 37.5135C10.5639 37.4447 10.5639 37.4447 10.4694 37.348C10.3015 37.1834 10.0958 37.0943 9.88786 36.9898C9.37114 36.7218 8.8922 36.414 8.41366 36.0836C8.26451 35.9812 8.11424 35.8806 7.96379 35.7802C7.86121 35.7112 7.75865 35.6421 7.65611 35.573C7.60723 35.5405 7.55834 35.508 7.50798 35.4745C7.39163 35.3954 7.27864 35.3114 7.16643 35.2264C7.16643 35.1807 7.16643 35.1349 7.16643 35.0878C7.09135 35.0642 7.09135 35.0642 7.01476 35.0401C6.78286 34.932 6.65052 34.7846 6.47307 34.6026C6.40443 34.5797 6.33578 34.5568 6.26506 34.5332C6.14619 34.4211 6.03123 34.3048 5.91838 34.1866C5.84559 34.1127 5.77264 34.039 5.69954 33.9654C5.66155 33.9271 5.62357 33.8888 5.58443 33.8494C5.54591 33.8106 5.50739 33.7717 5.4677 33.7317C5.40991 33.6731 5.40991 33.6731 5.35096 33.6133C5.13409 33.3952 4.91137 33.1999 4.67033 33.0082C4.58841 32.9224 4.50879 32.8343 4.43199 32.7439C4.37086 32.6722 4.37086 32.6722 4.30849 32.5991C4.26773 32.5511 4.22697 32.5031 4.18498 32.4537C4.14423 32.4078 4.10347 32.362 4.06148 32.3148C4.02358 32.2719 3.98569 32.2291 3.94664 32.185C3.91241 32.1466 3.87818 32.1082 3.84291 32.0686C3.76897 31.9684 3.76897 31.9684 3.76897 31.8298C3.70032 31.8069 3.63168 31.784 3.56096 31.7605C3.4428 31.6124 3.33418 31.4657 3.22728 31.3099C3.19622 31.2654 3.16516 31.2209 3.13316 31.175C3.04413 31.047 2.95584 30.9185 2.8676 30.79C2.83015 30.7366 2.7927 30.6833 2.75412 30.6283C2.13237 29.7253 1.51795 28.7263 1.12905 27.7007C1.08784 27.5923 1.04449 27.4848 0.998508 27.3784C0.770523 26.8472 0.62868 26.2927 0.480046 25.7354C0.443546 25.601 0.40464 25.4672 0.365547 25.3335C0.268299 24.9841 0.216858 24.6323 0.163498 24.2739C0.149644 24.1939 0.13579 24.1138 0.121517 24.0313C-0.222305 21.7428 0.178452 19.1739 1.1342 17.0647C1.15184 17.0247 1.16948 16.9847 1.18766 16.9435C1.53193 16.1662 1.93516 15.431 2.3724 14.7023C2.44001 14.5886 2.50499 14.4735 2.5694 14.358C2.59916 14.3133 2.62893 14.2686 2.65959 14.2226C2.70535 14.2226 2.75112 14.2226 2.79826 14.2226C2.81462 14.1743 2.83098 14.1259 2.84783 14.0761C2.95296 13.84 3.09435 13.6485 3.25328 13.4471C3.28397 13.4077 3.31465 13.3683 3.34626 13.3278C3.58879 13.0199 3.84488 12.7264 4.1105 12.4382C4.23977 12.2975 4.36441 12.1541 4.48833 12.0087C4.96937 11.4575 5.49905 10.9517 6.05705 10.4793C6.12078 10.4233 6.18451 10.3673 6.25016 10.3096C6.84764 9.78793 7.48245 9.3318 8.13713 8.88498C8.18277 8.85358 8.22841 8.82219 8.27543 8.78984C8.88264 8.37279 9.50101 7.99049 10.1479 7.63723C10.1931 7.61231 10.2383 7.58739 10.2849 7.56171C11.0307 7.15191 11.7919 6.7924 12.5746 6.45879C12.687 6.41081 12.687 6.41081 12.8016 6.36185C13.0027 6.27721 13.2046 6.19451 13.4067 6.1122C13.4828 6.08038 13.559 6.04857 13.6374 6.0158C14.6574 5.59642 15.7022 5.25731 16.7651 4.96409C16.8391 4.94345 16.9132 4.92281 16.9894 4.90154C17.4124 4.78846 17.8302 4.70253 18.2632 4.64186C19.2503 4.55994 19.2503 4.55994 20.0304 4.05183C20.1598 3.82143 20.2355 3.58654 20.2997 3.33122C20.365 3.12107 20.4878 2.96026 20.6176 2.78485C20.6715 2.70926 20.6715 2.70926 20.7265 2.63213C21.7801 1.24534 23.2246 0.371319 24.9381 0.0640566C26.4425 -0.136365 27.8735 0.136221 29.2153 0.843903ZM21.4402 2.50026C21.0695 2.91894 20.7892 3.38784 20.5223 3.87664C20.4983 3.92003 20.4743 3.96341 20.4495 4.00812C20.3106 4.26994 20.2332 4.50049 20.2016 4.79512C20.1606 4.79847 20.1197 4.80181 20.0775 4.80526C17.2182 5.06204 14.3097 6.10768 11.7426 7.35995C11.6771 7.39173 11.6115 7.42351 11.544 7.45625C9.962 8.23023 8.45791 9.14757 7.09709 10.2714C7.06095 10.301 7.02481 10.3307 6.98757 10.3613C6.03988 11.1414 5.11268 11.9626 4.32365 12.9055C4.29509 12.9393 4.26652 12.9731 4.23709 13.0079C1.6375 16.1007 0.304397 19.6837 0.60091 23.7264C0.627311 24.0037 0.669445 24.2769 0.718185 24.5512C0.726755 24.5997 0.735324 24.6481 0.744152 24.698C1.28032 27.6238 2.88221 30.4445 4.97465 32.5398C5.08635 32.6616 5.08635 32.6616 5.20221 32.8318C5.46569 33.1707 5.68203 33.3595 6.10729 33.4203C6.53402 33.4556 6.961 33.4503 7.38883 33.447C7.55523 33.4483 7.72163 33.4498 7.88802 33.4517C8.24949 33.4549 8.61089 33.456 8.97237 33.4552C9.50992 33.454 10.0474 33.4567 10.585 33.4602C11.601 33.4666 12.6171 33.4683 13.6332 33.4684C14.4182 33.4685 15.2032 33.4698 15.9881 33.4719C16.2142 33.4725 16.4403 33.473 16.6664 33.4736C16.7227 33.4738 16.7789 33.4739 16.8368 33.474C18.4178 33.478 19.9988 33.4805 21.5799 33.48C21.6394 33.48 21.699 33.48 21.7604 33.4799C22.0625 33.4798 22.3645 33.4797 22.6665 33.4796C22.7265 33.4796 22.7865 33.4796 22.8483 33.4795C22.9696 33.4795 23.0909 33.4794 23.2122 33.4794C25.0984 33.4787 26.9845 33.4834 28.8708 33.4923C30.9911 33.5022 33.1114 33.5077 35.2317 33.5069C35.458 33.5069 35.6843 33.5068 35.9107 33.5068C35.9664 33.5068 36.0221 33.5067 36.0795 33.5067C36.9745 33.5066 37.8694 33.5107 38.7643 33.5163C39.6647 33.5218 40.5649 33.5223 41.4652 33.5178C41.9995 33.5153 42.5334 33.5164 43.0676 33.5228C43.4676 33.5272 43.8674 33.5246 44.2673 33.5194C44.4283 33.5184 44.5893 33.5196 44.7503 33.5232C45.5799 33.5408 46.1452 33.4819 46.7678 32.8962C47.0335 32.6213 47.2802 32.3352 47.5199 32.0377C47.5961 31.9468 47.6724 31.8559 47.7489 31.7651C47.9032 31.5802 48.0477 31.3896 48.1894 31.1949C48.2928 31.0534 48.3986 30.9137 48.5045 30.774C48.9993 30.1134 49.4214 29.4349 49.806 28.7051C49.9001 28.5293 50.0021 28.3583 50.1027 28.1862C50.3496 27.7338 50.5051 27.2459 50.6669 26.7582C50.7001 26.6587 50.7346 26.5595 50.7695 26.4605C50.8916 26.1129 50.993 25.7586 51.0951 25.4047C51.1097 25.3558 51.1242 25.3068 51.1392 25.2564C51.4036 24.3208 51.4332 23.3802 51.4331 22.4153C51.4332 22.3528 51.4333 22.2904 51.4334 22.226C51.4321 21.1827 51.3341 20.2233 51.0561 19.2136C51.0291 19.1069 51.0022 19.0003 50.9754 18.8935C50.5382 17.2278 49.7066 15.6124 48.6987 14.2226C48.6713 14.1848 48.6439 14.147 48.6156 14.1081C47.7505 12.9275 46.7577 11.8488 45.6479 10.8953C45.6039 10.8573 45.5598 10.8194 45.5145 10.7804C44.7627 10.1377 43.9776 9.56695 43.1518 9.02362C43.0988 8.98846 43.0458 8.9533 42.9912 8.91707C42.837 8.8149 42.6825 8.71331 42.5278 8.61204C42.483 8.58262 42.4383 8.55321 42.3922 8.5229C41.735 8.09806 41.037 7.75508 40.3307 7.42061C40.1816 7.3497 40.0325 7.27876 39.8835 7.20777C39.8133 7.17442 39.7431 7.14107 39.6707 7.1067C39.5066 7.02761 39.3444 6.94583 39.1826 6.86226C38.9104 6.72516 38.6301 6.62511 38.3416 6.52811C38.0272 6.42023 37.7157 6.31229 37.4099 6.18152C35.987 5.60096 34.3208 5.13794 32.7969 4.9584C31.8019 4.82849 31.8019 4.82849 31.5583 4.55223C31.4736 4.33501 31.4201 4.12025 31.3647 3.89397C30.9228 2.98614 30.2991 2.27515 29.4926 1.67574C29.4156 1.6181 29.4156 1.6181 29.3371 1.5593C26.8029 -0.231906 23.5328 0.332678 21.4402 2.50026Z" fill="#8E8F8C"/>
<path d="M29.2153 0.843903C29.2153 0.889654 29.2153 0.935405 29.2153 0.982542C29.261 0.996839 29.3068 1.01114 29.3539 1.02587C30.3813 1.49664 31.0649 2.44224 31.6401 3.37136C31.675 3.42751 31.675 3.42751 31.7106 3.4848C31.7807 3.61669 31.7807 3.61669 31.8403 3.79204C31.9163 3.9962 31.9865 4.14291 32.1274 4.30988C32.401 4.42833 32.6741 4.47348 32.9688 4.51206C33.1637 4.53779 33.3571 4.57071 33.5509 4.60335C33.6501 4.62003 33.7493 4.6364 33.8485 4.65246C35.0083 4.84196 36.1276 5.21637 37.2366 5.59663C37.2822 5.61227 37.3278 5.62791 37.3748 5.64402C38.224 5.93669 39.0773 6.23933 39.8757 6.65376C40.2338 6.8377 40.5943 7.01423 40.9594 7.18411C41.478 7.42554 41.9762 7.67486 42.4584 7.98383C42.5454 8.03731 42.6324 8.09064 42.7195 8.14386C43.2747 8.4843 43.8099 8.83967 44.3305 9.23158C44.4201 9.29745 44.5097 9.36324 44.5994 9.42898C45.0901 9.79032 45.5627 10.1554 46.007 10.5733C46.127 10.6919 46.127 10.6919 46.2719 10.7566C46.2719 10.8024 46.2719 10.8481 46.2719 10.8953C46.3128 10.9136 46.3536 10.9319 46.3957 10.9507C46.5551 11.0371 46.6594 11.1272 46.7868 11.2554C46.8303 11.299 46.8739 11.3426 46.9187 11.3875C46.9868 11.457 46.9868 11.457 47.0563 11.5278C47.1032 11.5753 47.1501 11.6228 47.1984 11.6717C47.5024 11.9811 47.8015 12.291 48.0746 12.6282C48.1054 12.6661 48.1362 12.7039 48.1679 12.743C48.2746 12.8747 48.3806 13.007 48.4863 13.1395C48.5381 13.204 48.5381 13.204 48.5909 13.2697C48.8373 13.5825 48.8373 13.5825 48.8373 13.7374C48.8831 13.7374 48.9289 13.7374 48.976 13.7374C49.0835 13.8871 49.0835 13.8871 49.2057 14.0883C49.3454 14.3148 49.4843 14.5377 49.6434 14.7512C50.4468 15.8595 50.9944 17.2459 51.3724 18.5551C51.3869 18.6041 51.4013 18.6532 51.4162 18.7037C51.5812 19.2697 51.7079 19.8248 51.7884 20.4094C51.8019 20.506 51.8019 20.506 51.8156 20.6046C51.8784 21.0645 51.9359 21.5225 51.9574 21.9864C51.9629 22.0889 51.9629 22.0889 51.9686 22.1935C52.0078 23.6193 51.8004 25.2926 51.2524 26.6175C51.1893 26.7709 51.1893 26.7709 51.1604 26.946C51.126 27.1133 51.0765 27.2311 50.9954 27.3803C50.9014 27.5604 50.8292 27.7243 50.7614 27.9176C50.4324 28.8335 49.8465 29.701 49.3227 30.5127C49.2936 30.5585 49.2646 30.6044 49.2347 30.6516C49.0616 30.9205 49.0616 30.9205 48.9067 30.9979C48.8873 31.0374 48.8679 31.0768 48.8479 31.1174C48.7447 31.3212 48.6077 31.4777 48.4603 31.6522C48.304 31.8373 48.1594 32.0115 48.0367 32.2205C47.9312 32.3922 47.8275 32.4922 47.6716 32.6183C47.4355 32.8161 47.2405 33.024 47.0503 33.2657C47.0222 33.2951 46.9942 33.3245 46.9653 33.3548C46.9195 33.3548 46.8737 33.3548 46.8266 33.3548C46.8037 33.4234 46.7808 33.4921 46.7573 33.5628C46.7115 33.5628 46.6657 33.5628 46.6186 33.5628C46.6186 33.6085 46.6186 33.6543 46.6186 33.7014C46.3232 34.0061 45.9745 34.2559 45.6333 34.5062C45.4972 34.6073 45.4972 34.6073 45.3489 34.7672C45.1238 34.987 44.8796 35.1613 44.6235 35.3434C44.4627 35.4587 44.3038 35.5752 44.1458 35.6944C43.7027 36.0273 43.2675 36.336 42.7731 36.5904C42.5951 36.6832 42.4256 36.7847 42.2547 36.8901C41.9274 37.0897 41.5885 37.2585 41.2429 37.4241C41.0656 37.5064 41.0656 37.5064 40.933 37.6526C40.7649 37.7313 40.5969 37.8058 40.426 37.8779C40.076 38.0277 39.7294 38.1812 39.386 38.3458C38.4972 38.757 37.5615 39.0573 36.6342 39.3683C36.5565 39.3944 36.4788 39.4205 36.3987 39.4474C35.0751 39.8868 35.0751 39.8868 34.6235 39.8709C34.6006 39.9166 34.5777 39.9624 34.5541 40.0095C34.4451 40.0265 34.336 40.0425 34.2264 40.055C34.0382 40.0834 33.8585 40.1302 33.6744 40.1785C33.1817 40.305 32.6856 40.3872 32.1818 40.4558C31.9206 40.4946 31.6629 40.5435 31.4037 40.5936C30.6334 40.7339 29.8566 40.7946 29.0766 40.8543C28.9996 40.8603 28.9227 40.8663 28.8434 40.8724C26.6508 41.0396 24.5008 41.0382 22.315 40.797C22.0024 40.7646 21.6894 40.7414 21.3758 40.72C21.0044 40.6884 20.6382 40.6265 20.2709 40.5641C20.2248 40.5564 20.1786 40.5487 20.131 40.5407C19.4785 40.4317 18.8336 40.3059 18.1908 40.1481C18.108 40.1283 18.0251 40.1085 17.9398 40.088C16.2191 39.6688 14.5322 39.1488 12.8953 38.4715C12.8117 38.4369 12.7281 38.4023 12.6419 38.3666C12.2207 38.1897 11.809 38.0023 11.4022 37.7942C11.1783 37.6826 10.9464 37.5986 10.7115 37.5135C10.5639 37.4447 10.5639 37.4447 10.4694 37.348C10.3015 37.1834 10.0958 37.0943 9.88786 36.9898C9.37114 36.7218 8.8922 36.414 8.41366 36.0836C8.26451 35.9812 8.11424 35.8806 7.96379 35.7802C7.86121 35.7112 7.75865 35.6421 7.65611 35.573C7.60723 35.5405 7.55834 35.508 7.50798 35.4745C7.39163 35.3954 7.27864 35.3114 7.16643 35.2264C7.16643 35.1807 7.16643 35.1349 7.16643 35.0878C7.09135 35.0642 7.09135 35.0642 7.01476 35.0401C6.78286 34.932 6.65052 34.7846 6.47307 34.6026C6.40443 34.5797 6.33578 34.5568 6.26506 34.5332C6.14619 34.4211 6.03123 34.3048 5.91838 34.1866C5.84559 34.1127 5.77264 34.039 5.69954 33.9654C5.66155 33.9271 5.62357 33.8888 5.58443 33.8494C5.54591 33.8106 5.50739 33.7717 5.4677 33.7317C5.40991 33.6731 5.40991 33.6731 5.35096 33.6133C5.13409 33.3952 4.91137 33.1999 4.67033 33.0082C4.58841 32.9224 4.50879 32.8343 4.43199 32.7439C4.37086 32.6722 4.37086 32.6722 4.30849 32.5991C4.26773 32.5511 4.22697 32.5031 4.18498 32.4537C4.14423 32.4078 4.10347 32.362 4.06148 32.3148C4.02358 32.2719 3.98569 32.2291 3.94664 32.185C3.91241 32.1466 3.87818 32.1082 3.84291 32.0686C3.76897 31.9684 3.76897 31.9684 3.76897 31.8298C3.70032 31.8069 3.63168 31.784 3.56096 31.7605C3.4428 31.6124 3.33418 31.4657 3.22728 31.3099C3.19622 31.2654 3.16516 31.2209 3.13316 31.175C3.04413 31.047 2.95584 30.9185 2.8676 30.79C2.83015 30.7366 2.7927 30.6833 2.75412 30.6283C2.13237 29.7253 1.51795 28.7263 1.12905 27.7007C1.08784 27.5923 1.04449 27.4848 0.998508 27.3784C0.770523 26.8472 0.62868 26.2927 0.480046 25.7354C0.443546 25.601 0.40464 25.4672 0.365547 25.3335C0.268299 24.9841 0.216858 24.6323 0.163498 24.2739C0.149644 24.1939 0.13579 24.1138 0.121517 24.0313C-0.222305 21.7428 0.178452 19.1739 1.1342 17.0647C1.15184 17.0247 1.16948 16.9847 1.18766 16.9435C1.53193 16.1662 1.93516 15.431 2.3724 14.7023C2.44001 14.5886 2.50499 14.4735 2.5694 14.358C2.59916 14.3133 2.62893 14.2686 2.65959 14.2226C2.70535 14.2226 2.75112 14.2226 2.79826 14.2226C2.81462 14.1743 2.83098 14.1259 2.84783 14.0761C2.95296 13.84 3.09435 13.6485 3.25328 13.4471C3.28397 13.4077 3.31465 13.3683 3.34626 13.3278C3.58879 13.0199 3.84488 12.7264 4.1105 12.4382C4.23977 12.2975 4.36441 12.1541 4.48833 12.0087C4.96937 11.4575 5.49905 10.9517 6.05705 10.4793C6.12078 10.4233 6.18451 10.3673 6.25016 10.3096C6.84764 9.78793 7.48245 9.3318 8.13713 8.88498C8.18277 8.85358 8.22841 8.82219 8.27543 8.78984C8.88264 8.37279 9.50101 7.99049 10.1479 7.63723C10.1931 7.61231 10.2383 7.58739 10.2849 7.56171C11.0307 7.15191 11.7919 6.7924 12.5746 6.45879C12.687 6.41081 12.687 6.41081 12.8016 6.36185C13.0027 6.27721 13.2046 6.19451 13.4067 6.1122C13.4828 6.08038 13.559 6.04857 13.6374 6.0158C14.6574 5.59642 15.7022 5.25731 16.7651 4.96409C16.8391 4.94345 16.9132 4.92281 16.9894 4.90154C17.4124 4.78846 17.8302 4.70253 18.2632 4.64186C19.2503 4.55994 19.2503 4.55994 20.0304 4.05183C20.1598 3.82143 20.2355 3.58654 20.2997 3.33122C20.365 3.12107 20.4878 2.96026 20.6176 2.78485C20.6715 2.70926 20.6715 2.70926 20.7265 2.63213C21.7801 1.24534 23.2246 0.371319 24.9381 0.0640566C26.4425 -0.136365 27.8735 0.136221 29.2153 0.843903ZM21.4402 2.50026C21.0695 2.91894 20.7892 3.38784 20.5223 3.87664C20.4983 3.92003 20.4743 3.96341 20.4495 4.00812C20.3106 4.26994 20.2332 4.50049 20.2016 4.79512C20.1606 4.79847 20.1197 4.80181 20.0775 4.80526C17.2182 5.06204 14.3097 6.10768 11.7426 7.35995C11.6771 7.39173 11.6115 7.42351 11.544 7.45625C9.962 8.23023 8.45791 9.14757 7.09709 10.2714C7.06095 10.301 7.02481 10.3307 6.98757 10.3613C6.03988 11.1414 5.11268 11.9626 4.32365 12.9055C4.29509 12.9393 4.26652 12.9731 4.23709 13.0079C1.6375 16.1007 0.304397 19.6837 0.60091 23.7264C0.627311 24.0037 0.669445 24.2769 0.718185 24.5512C0.726755 24.5997 0.735324 24.6481 0.744152 24.698C1.44483 28.5216 3.93307 32.0271 6.95842 34.3946C7.01285 34.4414 7.06728 34.4883 7.12336 34.5365C8.10407 35.3774 9.23403 36.0479 10.3559 36.6822C10.4093 36.7126 10.4627 36.743 10.5177 36.7743C10.6831 36.8683 10.8488 36.9616 11.0146 37.0548C11.0643 37.0828 11.1141 37.1109 11.1653 37.1398C11.5113 37.3321 11.8641 37.4973 12.228 37.6526C12.3035 37.6852 12.3035 37.6852 12.3805 37.7184C14.0069 38.4166 15.6278 38.9902 17.3415 39.4333C17.3929 39.4466 17.4442 39.46 17.4972 39.4737C18.5341 39.742 19.5736 39.9509 20.6349 40.0963C20.789 40.1175 20.943 40.1395 21.097 40.1615C22.6397 40.3785 24.1696 40.4514 25.7266 40.4474C25.876 40.4471 26.0254 40.447 26.1749 40.4469C27.6353 40.4455 29.0832 40.4128 30.5326 40.2175C30.612 40.2068 30.6913 40.1962 30.7731 40.1853C32.0441 40.0093 33.3169 39.7983 34.5541 39.4549C34.6959 39.4165 34.8376 39.378 34.9794 39.3396C35.1338 39.2973 35.2881 39.2548 35.4425 39.2123C35.5145 39.1926 35.5865 39.1729 35.6607 39.1525C36.0752 39.0366 36.4799 38.9058 36.883 38.7547C37.0404 38.6961 37.1985 38.6414 37.3579 38.5885C37.4082 38.5717 37.4585 38.555 37.5104 38.5378C37.6288 38.4993 37.7474 38.4617 37.8663 38.4246C38.4022 38.254 38.9009 38.0341 39.4076 37.7913C39.5058 37.7452 39.604 37.6993 39.7023 37.6535C39.8049 37.6055 39.9074 37.5576 40.01 37.5097C40.0803 37.4768 40.0803 37.4768 40.1521 37.4433C40.7918 37.1425 41.413 36.8226 42.0207 36.4612C42.0872 36.4217 42.1537 36.3822 42.2222 36.3416C43.0616 35.8397 43.8645 35.3042 44.6296 34.6948C44.7489 34.6007 44.8697 34.5089 44.9908 34.4171C46.1673 33.5103 47.3315 32.4029 48.195 31.1893C48.2954 31.0495 48.3991 30.9125 48.5031 30.7754C48.9988 30.1145 49.4211 29.4355 49.806 28.7051C49.9001 28.5293 50.0021 28.3583 50.1027 28.1862C50.3496 27.7338 50.5051 27.2459 50.6669 26.7582C50.7001 26.6587 50.7346 26.5595 50.7695 26.4605C50.8916 26.1129 50.993 25.7586 51.0951 25.4047C51.1097 25.3558 51.1242 25.3068 51.1392 25.2564C51.4036 24.3208 51.4332 23.3802 51.4331 22.4153C51.4332 22.3528 51.4333 22.2904 51.4334 22.226C51.4321 21.1827 51.3341 20.2233 51.0561 19.2136C51.0291 19.1069 51.0022 19.0003 50.9754 18.8935C50.5382 17.2278 49.7066 15.6124 48.6987 14.2226C48.6713 14.1848 48.6439 14.147 48.6156 14.1081C47.7505 12.9275 46.7577 11.8488 45.6479 10.8953C45.6039 10.8573 45.5598 10.8194 45.5145 10.7804C44.7627 10.1377 43.9776 9.56695 43.1518 9.02362C43.0988 8.98846 43.0458 8.9533 42.9912 8.91707C42.837 8.8149 42.6825 8.71331 42.5278 8.61204C42.483 8.58262 42.4383 8.55321 42.3922 8.5229C41.735 8.09806 41.037 7.75508 40.3307 7.42061C40.1816 7.3497 40.0325 7.27876 39.8835 7.20777C39.8133 7.17442 39.7431 7.14107 39.6707 7.1067C39.5066 7.02761 39.3444 6.94583 39.1826 6.86226C38.9104 6.72516 38.6301 6.62511 38.3416 6.52811C38.0272 6.42023 37.7157 6.31229 37.4099 6.18152C35.987 5.60096 34.3208 5.13794 32.7969 4.9584C31.8019 4.82849 31.8019 4.82849 31.5583 4.55223C31.4736 4.33501 31.4201 4.12025 31.3647 3.89397C30.9228 2.98614 30.2991 2.27515 29.4926 1.67574C29.4156 1.6181 29.4156 1.6181 29.3371 1.5593C26.8029 -0.231906 23.5328 0.332678 21.4402 2.50026Z" fill="white"/>
<path d="M25.7529 2.20864C25.8378 2.20907 25.8378 2.20907 25.9244 2.20952C26.6671 2.22305 27.4718 2.29869 28.106 2.71554C28.1604 2.74976 28.2148 2.78398 28.2709 2.81924C29.3401 3.52592 29.9882 4.47652 30.2952 5.71876C30.498 6.99315 30.1586 8.18081 29.4233 9.23158C29.1292 9.56068 29.1292 9.56068 28.8686 9.6475C28.8343 9.75044 28.8343 9.75044 28.7993 9.85546C28.3385 10.2251 27.8356 10.5064 27.2739 10.6873C27.2021 10.712 27.1302 10.7366 27.0562 10.762C25.9535 11.0254 24.6592 10.8642 23.6815 10.2974C22.8704 9.75643 22.307 9.17461 21.8874 8.30443C21.8667 8.26197 21.846 8.21951 21.8248 8.17576C21.3837 7.22291 21.3789 6.06878 21.71 5.08161C22.1949 3.86287 23.1076 2.97636 24.2995 2.4388C24.7807 2.27152 25.2447 2.20501 25.7529 2.20864Z" fill="#8E8F8C"/>
<path d="M15.5049 22.5411C15.6548 22.6507 15.7974 22.762 15.9375 22.8836C16.1077 23.024 16.1738 23.077 16.3882 23.0959C16.4782 23.1045 16.5683 23.1131 16.6612 23.1219C16.9079 23.1201 16.9397 23.0984 17.1465 22.9313C17.2882 22.7635 17.2882 22.7635 17.3589 22.6107C17.4504 22.6335 17.5419 22.6564 17.6362 22.68C17.4763 23.4091 17.1274 23.8928 16.5263 24.3304C16.0464 24.6173 15.5431 24.6149 15.0014 24.5516C14.646 24.4201 14.355 24.2293 14.0611 23.9927C13.5526 23.5886 13.0964 23.4559 12.4458 23.4834C12.0314 23.5375 11.8428 23.7394 11.591 24.049C11.2133 24.5441 11.1511 25.0453 11.1576 25.6477C11.1582 25.7154 11.1588 25.7831 11.1594 25.8528C11.1708 26.3412 11.2196 26.7549 11.4653 27.1858C11.499 27.245 11.5327 27.3042 11.5674 27.3653C12.1499 28.2808 13.3831 29.0903 14.4467 29.3347C14.6756 29.3575 14.9044 29.3804 15.1401 29.404C15.1401 28.8321 15.1401 28.2602 15.1401 27.671C14.932 27.6839 14.932 27.6839 14.7198 27.697C14.1972 27.6936 14.1972 27.6936 13.9701 27.515C13.692 27.2252 13.268 26.6959 13.268 26.2846C13.3376 26.2906 13.3376 26.2906 13.4086 26.2968C13.8749 26.3187 14.2545 26.2533 14.6938 26.1113C15.3781 25.8933 15.9979 25.82 16.6655 26.146C16.9475 26.322 17.1358 26.5102 17.2202 26.8392C17.2202 26.9307 17.2202 27.0222 17.2202 27.1164C16.9113 27.1508 16.9113 27.1508 16.5962 27.1858C16.5921 27.4587 16.5897 27.7316 16.5875 28.0046C16.5858 28.121 16.5858 28.121 16.584 28.2398C16.5835 28.3142 16.5831 28.3886 16.5826 28.4652C16.5819 28.5338 16.5812 28.6024 16.5804 28.6731C16.5835 28.8664 16.5835 28.8664 16.7348 29.0574C16.9751 29.0231 16.9751 29.0231 17.2202 28.9881C17.2665 29.1105 17.2665 29.1105 17.2895 29.2653C16.9111 29.9607 16.0086 30.4279 15.2788 30.6517C14.2143 30.8924 13.1203 30.7732 12.1803 30.2272C11.3351 29.6561 10.7662 28.7857 10.4946 27.8096C10.4091 27.3678 10.4125 26.9278 10.4123 26.4796C10.4114 26.4061 10.4106 26.3326 10.4097 26.2568C10.4083 25.5147 10.4733 24.8374 10.8326 24.179C10.8561 24.1334 10.8796 24.0877 10.9038 24.0407C11.3797 23.1307 12.0251 22.3909 12.9907 21.9868C13.9745 21.7472 14.6999 21.9858 15.5049 22.5411Z" fill="white"/>
<path d="M12.2973 12.4204C12.424 12.5546 12.5379 12.697 12.6543 12.8401C12.8305 13.0252 12.9682 13.1018 13.2217 13.1345C13.6216 13.1363 13.8808 13.0811 14.2388 12.9056C14.4424 12.858 14.4424 12.858 14.5854 12.8363C14.5646 13.253 14.3807 13.514 14.1001 13.8068C13.4693 14.312 12.8857 14.3576 12.0979 14.3126C11.7425 14.263 11.5022 14.0516 11.2573 13.8068C11.2426 14.1046 11.2699 14.2954 11.4046 14.5607C11.5633 14.8906 11.7008 15.2233 11.8293 15.5658C11.8472 15.6128 11.8651 15.6598 11.8835 15.7082C11.9739 15.9506 12.0479 16.1854 12.0893 16.4409C12.178 16.308 12.2649 16.1737 12.3493 16.038C12.5603 15.7392 12.7727 15.4507 13.1294 15.3318C13.484 15.2946 13.7468 15.2912 14.0654 15.4618C14.2388 15.6091 14.2388 15.6091 14.3774 15.7478C14.3611 16.035 14.1625 16.2544 14.0004 16.4799C13.9442 16.5595 13.8879 16.639 13.8317 16.7185C13.783 16.787 13.7343 16.8556 13.6841 16.9262C13.6383 16.9948 13.5925 17.0634 13.5454 17.1341C13.3367 17.102 13.2434 17.0466 13.0687 16.9175C12.8649 16.7699 12.8649 16.7699 12.6475 16.7884C12.3598 16.8816 12.3075 17.0067 12.163 17.2685C12.116 17.3506 12.0687 17.4326 12.0214 17.5146C11.9981 17.5556 11.9748 17.5966 11.9508 17.6388C11.8487 17.814 11.7365 17.9811 11.6213 18.1479C11.5845 18.2017 11.5477 18.2555 11.5097 18.311C11.3911 18.4573 11.2772 18.558 11.1186 18.6592C11.0729 18.6592 11.0271 18.6592 10.98 18.6592C10.98 18.7049 10.98 18.7507 10.98 18.7978C11.0543 18.7907 11.1287 18.7835 11.2053 18.7762C11.7005 18.777 12.151 19.0251 12.5758 19.26C13.0609 19.5273 13.4734 19.6647 14.0307 19.5603C14.3065 19.4326 14.4226 19.3221 14.5334 19.0404C14.5661 18.96 14.5661 18.96 14.5995 18.878C14.6433 18.7596 14.6842 18.6402 14.7241 18.5205C14.8156 18.5205 14.9071 18.5205 15.0014 18.5205C15.0497 19.2324 14.8834 19.933 14.4159 20.4864C13.913 21.0169 13.4113 21.2372 12.683 21.2587C11.9463 21.2365 11.3838 20.9536 10.7395 20.6188C10.3844 20.4408 10.0541 20.4062 9.66258 20.4615C9.41128 20.5916 9.268 20.7438 9.17723 21.016C9.0857 21.016 8.99418 21.016 8.89988 21.016C8.87062 20.378 9.1388 19.8601 9.55857 19.3914C9.72584 19.2169 9.89774 19.0494 10.0743 18.8845C10.378 18.5532 10.3933 18.1649 10.3879 17.7323C10.3278 17.2596 10.1528 16.8212 9.99028 16.3754C9.75556 15.7116 9.70578 15.1487 10.0093 14.5C10.2073 14.1707 10.4393 13.9095 10.7113 13.6422C10.7508 13.603 10.7903 13.5638 10.831 13.5235C11.1618 13.1997 11.5104 12.9056 11.8813 12.6284C11.9306 12.5892 11.9798 12.5501 12.0306 12.5098C12.1587 12.4204 12.1587 12.4204 12.2973 12.4204Z" fill="white"/>
<path d="M40.7945 14.7081C40.9459 14.7972 40.9459 14.7972 41.1022 14.9204C41.5651 15.2626 41.5651 15.2626 42.4586 15.6785C42.4815 17.074 42.5044 18.4694 42.5279 19.907C42.8025 19.9876 42.8025 19.9876 43.0826 19.9764C43.0826 20.0679 43.0826 20.1594 43.0826 20.2536C42.9128 20.405 42.9128 20.405 42.6883 20.5613C42.4582 20.7228 42.259 20.8685 42.0672 21.0749C41.9039 21.2241 41.9039 21.2241 41.7593 21.2276C41.5942 21.137 41.4966 21.0345 41.3752 20.8905C41.3138 20.8191 41.3138 20.8191 41.2512 20.7462C41.061 20.4938 41.0026 20.3688 41.0026 20.0457C40.5305 20.3807 40.0822 20.7273 39.651 21.1139C39.4772 21.2241 39.4772 21.2241 39.299 21.2198C38.8083 21.0305 38.4498 20.5796 38.2291 20.115C37.8555 19.1176 37.8664 17.6468 38.2508 16.662C38.6534 15.9016 39.2825 15.449 39.9885 14.981C40.0289 14.9537 40.0693 14.9264 40.1109 14.8982C40.3464 14.7468 40.5141 14.6562 40.7945 14.7081Z" fill="white"/>
<path d="M39.2689 24.2741C39.4695 24.3779 39.6615 24.4941 39.854 24.6121C39.9564 24.6741 40.0588 24.736 40.1614 24.7978C40.2289 24.8391 40.2289 24.8391 40.2977 24.8812C40.4825 24.9874 40.6724 25.0813 40.8637 25.1753C40.8644 25.2271 40.8651 25.2789 40.8658 25.3323C40.8726 25.8198 40.8797 26.3074 40.8872 26.795C40.891 27.0457 40.8947 27.2963 40.8982 27.547C40.9015 27.7888 40.9051 28.0307 40.9089 28.2725C40.911 28.4099 40.9128 28.5472 40.9146 28.6846C40.9167 28.8095 40.9167 28.8095 40.9188 28.9369C40.9204 29.0473 40.9204 29.0473 40.922 29.1599C40.9216 29.3342 40.9216 29.3342 41.0023 29.4731C41.1625 29.4731 41.3227 29.4731 41.4877 29.4731C41.4693 29.714 41.441 29.7996 41.2569 29.9627C41.1901 30.007 41.1232 30.0513 41.0543 30.097C40.7759 30.2882 40.5354 30.4711 40.309 30.7209C39.9446 30.6244 39.7579 30.393 39.5463 30.097C39.4405 29.8856 39.4076 29.7788 39.4076 29.5424C39.3113 29.6164 39.215 29.6904 39.1188 29.7644C39.0365 29.8275 38.9542 29.8906 38.8717 29.9534C38.6846 30.0965 38.5002 30.2407 38.3196 30.3921C38.2668 30.4363 38.214 30.4804 38.1596 30.5259C38.1138 30.5655 38.068 30.6051 38.0209 30.6459C37.8822 30.7209 37.8822 30.7209 37.7092 30.7119C37.3014 30.5701 36.9505 30.2045 36.7589 29.8225C36.5026 29.168 36.4648 28.527 36.4738 27.8311C36.4736 27.7442 36.4734 27.6573 36.4732 27.5678C36.4785 26.6462 36.6141 26.0392 37.2495 25.3573C37.6658 24.9537 38.153 24.6463 38.6449 24.3435C38.7183 24.2972 38.7183 24.2972 38.7931 24.25C38.9843 24.1831 39.0754 24.2094 39.2689 24.2741Z" fill="#FAFAFA"/>
<path d="M20.7563 24.2741C20.9467 24.3773 20.9467 24.3773 21.1333 24.5038C21.1991 24.5473 21.2648 24.5908 21.3326 24.6356C21.3941 24.6765 21.4556 24.7173 21.519 24.7594C21.7669 24.9129 21.9947 25.0428 22.2816 25.106C22.2825 25.185 22.2825 25.185 22.2833 25.2656C22.2887 25.7613 22.2948 26.2571 22.3016 26.7528C22.305 27.0077 22.3083 27.2625 22.3109 27.5174C22.3134 27.7633 22.3167 28.0091 22.3203 28.255C22.3216 28.3489 22.3227 28.4428 22.3235 28.5367C22.3246 28.668 22.3267 28.7993 22.3289 28.9306C22.3298 29.0054 22.3307 29.0802 22.3317 29.1573C22.3335 29.346 22.3335 29.346 22.4897 29.4731C22.739 29.4507 22.739 29.4507 22.975 29.4038C22.9923 29.5649 22.9923 29.5649 22.975 29.7504C22.858 29.8557 22.858 29.8557 22.6977 29.9454C22.3859 30.1328 22.1621 30.3486 21.9228 30.621C21.7963 30.7209 21.7963 30.7209 21.6525 30.7111C21.3038 30.5556 21.0815 30.2088 20.8949 29.889C20.8689 29.7741 20.8452 29.6586 20.8256 29.5424C20.7301 29.6178 20.7301 29.6178 20.6328 29.6946C20.4577 29.8327 20.2822 29.9701 20.1065 30.1073C19.9623 30.22 19.8201 30.3338 19.6791 30.4506C19.6327 30.4883 19.5863 30.5261 19.5385 30.5649C19.4998 30.5974 19.4611 30.63 19.4213 30.6635C19.2397 30.7495 19.1411 30.7162 18.9535 30.6516C18.4855 30.3052 18.2049 29.8914 18.0522 29.3345C18.0401 29.2918 18.028 29.2491 18.0155 29.2051C17.8976 28.7447 17.8904 28.2958 17.8918 27.8224C17.8901 27.7082 17.8901 27.7082 17.8884 27.5916C17.8879 26.6872 18.0522 26.0274 18.6797 25.3738C19.0248 25.0415 19.4022 24.7684 19.8029 24.5081C19.8496 24.4769 19.8963 24.4457 19.9444 24.4135C20.2379 24.2297 20.4113 24.1557 20.7563 24.2741Z" fill="white"/>
<path d="M25.8872 2.99316C26.2482 3.31164 26.5501 3.73238 26.7028 4.19216C26.78 4.38868 26.8436 4.50985 26.9966 4.65684C27.3498 4.74651 27.697 4.73794 28.0583 4.73049C28.1569 4.7307 28.2556 4.73119 28.3542 4.73198C28.5951 4.73328 28.8358 4.73075 29.0767 4.72615C28.9864 4.96952 28.8794 5.17811 28.7376 5.39525C28.6998 5.45481 28.6621 5.51437 28.6233 5.57573C28.544 5.69996 28.4638 5.82361 28.3828 5.94669C28.1539 6.29254 28.1539 6.29254 28.1376 6.6912C28.2366 6.86135 28.3341 7.02664 28.4483 7.187C28.6112 7.42216 28.743 7.65754 28.8687 7.91486C28.9073 7.96633 28.9459 8.0178 28.9857 8.07083C29.0767 8.19214 29.0767 8.19214 29.0767 8.33078C28.3674 8.33078 27.658 8.33078 26.9272 8.33078C26.8815 8.44515 26.8357 8.55953 26.7886 8.67737C26.7015 8.82618 26.6117 8.9734 26.5199 9.11929C26.3252 9.43056 26.1355 9.74318 25.9565 10.0638C25.7995 9.91739 25.6893 9.77274 25.5814 9.58747C25.5514 9.53622 25.5215 9.48497 25.4906 9.43217C25.4445 9.35235 25.4445 9.35235 25.3975 9.27092C25.3666 9.21798 25.3356 9.16504 25.3037 9.11049C25.1671 8.87606 25.038 8.64299 24.9165 8.4001C24.2072 8.37722 23.4979 8.35434 22.7671 8.33078C22.8675 8.07989 22.9578 7.88468 23.0964 7.65924C23.1325 7.59937 23.1687 7.5395 23.2059 7.47782C23.284 7.35195 23.3642 7.22739 23.4464 7.10414C23.4853 7.04427 23.5243 6.9844 23.5645 6.92272C23.6192 6.84163 23.6192 6.84163 23.675 6.7589C23.7573 6.59836 23.7573 6.59836 23.6835 6.43408C23.6039 6.26163 23.5178 6.09994 23.4212 5.93654C23.3875 5.87917 23.3539 5.82181 23.3192 5.7627C23.2843 5.70372 23.2494 5.64475 23.2134 5.58399C23.1438 5.46621 23.0744 5.34833 23.0052 5.23035C22.9745 5.17846 22.9437 5.12658 22.9121 5.07313C22.8364 4.93411 22.8364 4.93411 22.7671 4.72615C22.8279 4.72769 22.8888 4.72922 22.9514 4.73079C23.1787 4.73485 23.4056 4.73577 23.6329 4.73462C23.731 4.73475 23.8291 4.73611 23.9271 4.73875C24.2434 4.74677 24.5392 4.74023 24.8472 4.65684C25.0593 4.45408 25.1541 4.23263 25.2632 3.96364C25.3144 3.87501 25.3674 3.78737 25.4227 3.70125C25.5167 3.54821 25.6106 3.39513 25.7044 3.24201C25.8179 3.06248 25.8179 3.06248 25.8872 2.99316Z" fill="#FEFCFB"/>
<path d="M30.2554 14.7776C30.7587 15.0888 31.0699 15.8654 31.354 16.3698C31.4071 16.4631 31.4613 16.5558 31.5166 16.6478C31.7114 16.974 31.7114 16.974 31.7114 17.2038C31.5846 17.3024 31.5846 17.3024 31.407 17.4042C31.3423 17.4417 31.2777 17.4793 31.2111 17.518C31.1417 17.5573 31.0723 17.5966 31.0007 17.637C30.8963 17.6972 30.8963 17.6972 30.7898 17.7587C30.6516 17.8384 30.5131 17.9178 30.3745 17.9969C30.2169 18.0872 30.0603 18.1788 29.9044 18.272C29.8314 18.3155 29.7585 18.359 29.6833 18.4039C29.6215 18.4408 29.5596 18.4777 29.4959 18.5157C29.354 18.5902 29.354 18.5902 29.2153 18.5902C29.3856 19.2022 29.3856 19.2022 29.8277 19.637C30.1038 19.7514 30.3788 19.7441 30.6714 19.6993C30.8295 19.6243 30.962 19.5399 31.102 19.4353C31.2387 19.3443 31.3402 19.3018 31.5034 19.2834C31.6421 19.422 31.6421 19.422 31.6421 19.63C31.5963 19.63 31.5506 19.63 31.5034 19.63C31.487 19.6802 31.4705 19.7304 31.4536 19.7822C31.1563 20.4327 30.4149 20.9027 29.8125 21.2506C29.5441 21.3144 29.4164 21.2154 29.1807 21.0814C29.1041 21.0391 29.0276 20.9968 28.9488 20.9533C28.3231 20.539 27.829 19.8628 27.6528 19.1289C27.5875 18.7396 27.6048 18.3427 27.6033 17.949C27.6018 17.8599 27.6004 17.7708 27.5989 17.679C27.5953 16.7911 27.7747 16.2501 28.3787 15.6048C28.8805 15.1198 29.5355 14.7037 30.2554 14.7776Z" fill="white"/>
<path d="M17.0122 14.708C17.2042 14.7981 17.3631 14.9018 17.5322 15.0286C17.8933 15.2593 18.2614 15.2347 18.6763 15.1932C18.7693 15.1726 18.8621 15.1505 18.9536 15.1239C18.8875 15.5545 18.6843 15.9205 18.3418 16.1962C17.9887 16.3967 17.6179 16.4538 17.2202 16.3717C16.9725 16.2546 16.7495 16.1149 16.5269 15.9558C16.4977 16.1144 16.4977 16.1144 16.5269 16.3024C16.8243 16.6912 17.2611 16.8618 17.6908 17.07C18.1954 17.3233 18.7097 17.6433 18.9536 18.174C19.1007 18.6453 19.0968 19.2528 18.8843 19.699C18.5459 20.3004 17.8432 20.8701 17.217 21.1485C17.017 21.1577 16.9242 21.0722 16.7652 20.9554C16.461 20.7349 16.2497 20.6583 15.8725 20.6522C15.8068 20.6504 15.7411 20.6486 15.6734 20.6468C15.4574 20.6731 15.3758 20.7433 15.2095 20.8775C15.1408 20.8775 15.0722 20.8775 15.0015 20.8775C15.0809 20.3064 15.4966 19.8562 15.9253 19.4951C16.207 19.3172 16.55 19.3106 16.8735 19.3524C17.2857 19.4898 17.6006 19.7522 17.9136 20.0456C17.9259 19.8244 17.912 19.6335 17.8442 19.4217C17.6676 19.2323 17.4477 19.1258 17.2202 19.0058C15.6903 18.1989 15.6903 18.1989 15.4175 17.4808C15.3649 16.8529 15.3417 16.2014 15.7468 15.6871C16.1122 15.2962 16.5713 15.0064 17.0122 14.708Z" fill="white"/>
<path d="M21.1724 12.7671C21.3554 12.7671 21.5385 12.7671 21.7271 12.7671C21.7271 13.6364 21.7271 14.5056 21.7271 15.4012C22.0932 15.4012 22.4593 15.4012 22.8364 15.4012C22.8364 15.6757 22.8364 15.9502 22.8364 16.2331C22.4704 16.2331 22.1043 16.2331 21.7271 16.2331C21.7336 16.692 21.7409 17.1509 21.7491 17.6098C21.7517 17.7659 21.7542 17.9221 21.7563 18.0782C21.7595 18.3026 21.7635 18.527 21.7677 18.7513C21.7689 18.8561 21.7689 18.8561 21.7701 18.9629C21.7715 19.0281 21.7729 19.0934 21.7743 19.1605C21.7752 19.2178 21.7761 19.2751 21.7771 19.3341C21.7988 19.5105 21.8341 19.6218 21.9351 19.7684C22.1795 19.8198 22.1795 19.8198 22.4204 19.8377C22.4898 19.907 22.4898 19.907 22.5212 20.0603C22.474 20.3507 22.277 20.4716 22.0564 20.6435C22.0158 20.6766 21.9751 20.7097 21.9332 20.7437C21.8193 20.8359 21.704 20.9261 21.5884 21.0161C21.5362 21.0587 21.484 21.1012 21.4302 21.145C21.3111 21.2241 21.3111 21.2241 21.1551 21.1981C20.9239 21.0615 20.7365 20.8962 20.5392 20.715C20.4025 20.5886 20.4025 20.5886 20.2017 20.4616C20.1767 20.2844 20.1767 20.2844 20.1781 20.0577C20.1781 19.973 20.1781 19.8884 20.1781 19.8012C20.1792 19.7085 20.1803 19.6158 20.1814 19.523C20.1818 19.4284 20.1821 19.3338 20.1823 19.2392C20.1831 18.9901 20.1851 18.741 20.1874 18.4919C20.1895 18.2377 20.1905 17.9836 20.1915 17.7294C20.1938 17.2306 20.1974 16.7318 20.2017 16.2331C19.9271 16.2331 19.6525 16.2331 19.3697 16.2331C19.3091 15.8334 19.3091 15.8334 19.3697 15.6092C19.5304 15.4774 19.6979 15.393 19.8824 15.2975C20.5643 14.904 20.7812 13.983 20.9817 13.274C21.0035 13.1922 21.0253 13.1105 21.0478 13.0262C21.1031 12.8364 21.1031 12.8364 21.1724 12.7671Z" fill="white"/>
<path d="M26.5755 14.6557C26.8382 14.7515 26.963 14.9908 27.1222 15.2107C27.1579 15.257 27.1936 15.3034 27.2304 15.3512C27.4783 15.6889 27.4783 15.6889 27.493 15.9299C27.3815 16.1581 27.2216 16.3202 27.0399 16.4931C27.0055 16.5273 26.9712 16.5615 26.9359 16.5968C26.7727 16.756 26.6608 16.8533 26.4418 16.9263C26.4034 16.8813 26.365 16.8363 26.3254 16.7899C26.2751 16.732 26.2249 16.674 26.1732 16.6144C26.1233 16.5565 26.0734 16.4986 26.022 16.4389C25.9775 16.3939 25.933 16.3489 25.8871 16.3025C25.8414 16.3025 25.7956 16.3025 25.7485 16.3025C25.6361 16.5012 25.5919 16.6462 25.5886 16.8741C25.5875 16.9314 25.5863 16.9888 25.5852 17.0479C25.5848 17.1093 25.5845 17.1707 25.5841 17.2339C25.5834 17.2975 25.5828 17.3611 25.5822 17.4266C25.5812 17.5608 25.5806 17.6951 25.5803 17.8293C25.5795 18.0347 25.5761 18.24 25.5726 18.4454C25.5719 18.5759 25.5714 18.7064 25.5711 18.837C25.5697 18.8983 25.5684 18.9597 25.567 19.023C25.568 19.3812 25.568 19.3812 25.7712 19.6696C25.9883 19.7854 26.1298 19.791 26.3725 19.7684C26.4183 19.8828 26.464 19.9972 26.5112 20.115C26.1451 20.481 25.779 20.847 25.4018 21.2241C25.0878 21.0986 24.8941 20.9771 24.6304 20.7736C24.4276 20.6178 24.2279 20.4648 24.0151 20.323C23.9884 20.1551 23.9884 20.1551 23.9873 19.9415C23.9864 19.8617 23.9854 19.7819 23.9845 19.6996C23.9845 19.5698 23.9845 19.5698 23.9845 19.4373C23.9836 19.3487 23.9826 19.2602 23.9817 19.1689C23.9793 18.9332 23.9778 18.6975 23.9767 18.4618C23.9752 18.1298 23.973 17.7979 23.9697 17.4659C23.968 17.2891 23.967 17.1123 23.9667 16.9354C23.9656 16.8154 23.9656 16.8154 23.9646 16.6929C23.9643 16.6224 23.964 16.5518 23.9637 16.4792C23.958 16.2856 23.958 16.2856 23.8071 16.0945C23.5853 16.0595 23.4896 16.0755 23.3001 16.1985C23.2614 16.2328 23.2228 16.2671 23.183 16.3025C23.1406 16.0404 23.1297 15.8959 23.2815 15.6721C23.4206 15.5169 23.5655 15.3721 23.7161 15.228C23.7661 15.1767 23.8161 15.1254 23.8676 15.0726C24.1501 14.795 24.1501 14.795 24.2924 14.7081C24.6124 14.7307 24.7663 14.8615 24.9988 15.0764C25.0584 15.1304 25.118 15.1845 25.1794 15.2402C25.3164 15.3844 25.3965 15.4964 25.4711 15.6786C25.5005 15.6384 25.5299 15.5982 25.5602 15.5567C26.2663 14.6166 26.2663 14.6166 26.5755 14.6557Z" fill="white"/>
<path d="M36.9116 12.9058C36.9345 15.1704 36.9574 17.4351 36.981 19.7684C37.1411 19.837 37.3013 19.9057 37.4663 19.9764C37.431 20.2573 37.2974 20.3628 37.085 20.5396C36.8614 20.7171 36.8614 20.7171 36.7036 20.9468C36.6579 20.9468 36.6121 20.9468 36.5649 20.9468C36.5192 21.0383 36.4734 21.1298 36.4263 21.2241C35.9978 21.1404 35.6613 20.9384 35.3862 20.6002C35.2459 20.1752 35.293 19.702 35.3039 19.261C35.3043 19.1289 35.3043 18.9968 35.304 18.8647C35.304 18.5174 35.3084 18.1703 35.3138 17.8231C35.3218 17.269 35.3229 16.7149 35.3244 16.1608C35.3255 15.9687 35.3283 15.7767 35.3315 15.5847C35.346 14.5747 35.346 14.5747 35.1089 13.599C35.0402 13.5761 34.9716 13.5532 34.9009 13.5296C34.9009 13.4381 34.9009 13.3466 34.9009 13.2524C34.9729 13.2506 35.045 13.2488 35.1192 13.2469C35.6436 13.2278 36.0899 13.1964 36.5706 12.964C36.7036 12.9058 36.7036 12.9058 36.9116 12.9058Z" fill="white"/>
<path d="M25.2632 22.4717C25.264 22.5945 25.264 22.5945 25.2649 22.7198C25.2703 23.4909 25.2763 24.2621 25.2831 25.0332C25.2866 25.4296 25.2898 25.8261 25.2924 26.2226C25.295 26.6051 25.2982 26.9875 25.3019 27.37C25.3032 27.5161 25.3042 27.6621 25.305 27.8081C25.3062 28.0125 25.3082 28.2167 25.3104 28.4211C25.3106 28.4816 25.3107 28.5422 25.3109 28.6046C25.3116 28.6604 25.3124 28.7162 25.3132 28.7737C25.3136 28.822 25.314 28.8703 25.3144 28.9201C25.3363 29.0855 25.3806 29.1942 25.4712 29.3343C25.6821 29.4239 25.6821 29.4239 25.8872 29.473C25.8251 29.8282 25.5927 30.011 25.3455 30.2571C25.3019 30.3028 25.2582 30.3484 25.2132 30.3954C25.1706 30.4381 25.128 30.4809 25.0842 30.5249C25.0454 30.5642 25.0066 30.6035 24.9667 30.6439C24.8472 30.7207 24.8472 30.7207 24.7256 30.703C24.3453 30.577 24.0599 30.4125 23.8071 30.0968C23.6655 29.6543 23.7139 29.163 23.7248 28.7048C23.7252 28.5675 23.7252 28.4303 23.7249 28.293C23.7249 27.9323 23.7293 27.5718 23.7347 27.2112C23.7427 26.6348 23.7438 26.0585 23.7453 25.4821C23.7464 25.2819 23.7492 25.0817 23.7524 24.8814C23.7864 23.9627 23.7864 23.9627 23.5298 23.0956C23.4611 23.0727 23.3925 23.0498 23.3218 23.0262C23.3218 22.9347 23.3218 22.8432 23.3218 22.749C23.4235 22.7451 23.4235 22.7451 23.5273 22.7411C23.9929 22.7178 24.4226 22.6945 24.8588 22.5147C24.9858 22.4717 24.9858 22.4717 25.2632 22.4717Z" fill="white"/>
<path d="M33.7915 12.9058C33.7921 12.9895 33.7926 13.0733 33.7932 13.1596C33.7986 13.9481 33.8047 14.7366 33.8114 15.5251C33.8149 15.9305 33.8181 16.3359 33.8208 16.7413C33.8233 17.1323 33.8265 17.5233 33.8302 17.9144C33.8315 18.0637 33.8325 18.2131 33.8333 18.3625C33.8345 18.5713 33.8365 18.7801 33.8387 18.9889C33.8389 19.051 33.839 19.1132 33.8392 19.1772C33.84 19.234 33.8407 19.2909 33.8415 19.3495C33.8419 19.3989 33.8423 19.4483 33.8427 19.4992C33.8544 19.6527 33.8544 19.6527 33.9995 19.8377C34.2113 19.9218 34.2113 19.9218 34.4155 19.9764C34.3772 20.2313 34.2894 20.3246 34.0905 20.4833C33.8186 20.7096 33.5991 20.9503 33.3755 21.2241C32.9472 21.1405 32.6108 20.9378 32.3354 20.6002C32.1947 20.1771 32.2405 19.7058 32.2507 19.2664C32.2509 19.1352 32.2508 19.004 32.2503 18.8728C32.2499 18.5281 32.2539 18.1837 32.259 17.839C32.2645 17.4217 32.2652 17.0044 32.2662 16.587C32.2669 16.262 32.2684 15.937 32.2728 15.612C32.302 14.5584 32.302 14.5584 31.9194 13.599C31.8937 13.484 31.8702 13.3684 31.8501 13.2524C31.9163 13.2506 31.9826 13.2488 32.0508 13.2469C32.5791 13.2238 33.0151 13.1714 33.509 12.964C33.6528 12.9058 33.6528 12.9058 33.7915 12.9058Z" fill="white"/>
<path d="M31.7274 24.216C31.9144 24.3044 32.0044 24.4578 32.1274 24.6206C32.3193 24.7801 32.3193 24.7801 32.5175 24.7419C32.5718 24.7247 32.6261 24.7076 32.6821 24.6899C32.705 24.6441 32.7279 24.5984 32.7515 24.5513C32.843 24.5741 32.9345 24.597 33.0288 24.6206C32.9462 25.104 32.7826 25.6775 32.4178 26.0243C32.1861 26.1515 32.0403 26.2046 31.7786 26.1895C31.5173 26.1055 31.3631 25.8897 31.2261 25.6604C31.2261 25.6146 31.2261 25.5689 31.2261 25.5217C31.1803 25.5217 31.1346 25.5217 31.0874 25.5217C31.0905 25.8607 31.0954 26.1995 31.1018 26.5384C31.1037 26.6533 31.1052 26.7682 31.1062 26.8831C31.095 28.0491 31.095 28.0491 31.5674 29.0793C31.712 29.2169 31.712 29.2169 31.9498 29.226C32.2079 29.1943 32.327 29.1222 32.5435 28.9877C32.7038 29.0094 32.7038 29.0094 32.8208 29.057C32.7584 29.589 32.3221 29.9325 31.9311 30.2625C31.352 30.7029 31.352 30.7029 30.9487 30.7207C30.2711 30.4119 29.8856 29.7184 29.6313 29.057C29.5159 28.6886 29.5465 28.2981 29.5454 27.916C29.5447 27.777 29.5425 27.638 29.5403 27.499C29.5362 26.4623 29.7317 25.7242 30.4374 24.9585C30.7498 24.6588 31.2718 24.1825 31.7274 24.216Z" fill="white"/>
<path d="M35.3862 24.2739C35.409 25.8981 35.4319 27.5222 35.4555 29.1956C35.5699 29.2414 35.6843 29.2871 35.8022 29.3343C35.8365 29.2313 35.8365 29.2313 35.8715 29.1263C35.9745 29.1606 35.9745 29.1606 36.0795 29.1956C36.0459 29.5049 35.9499 29.6319 35.7242 29.8412C35.4311 30.1205 35.1625 30.4119 34.9008 30.7207C34.6037 30.6859 34.4695 30.6015 34.2638 30.3871C34.217 30.3394 34.1703 30.2918 34.1221 30.2427C33.8657 29.9376 33.8437 29.7159 33.845 29.3171C33.845 29.2671 33.845 29.217 33.845 29.1654C33.8451 29.0004 33.8461 28.8353 33.8472 28.6703C33.8475 28.5557 33.8477 28.4411 33.8478 28.3265C33.8484 28.0252 33.8497 27.7239 33.8513 27.4225C33.8527 27.1149 33.8533 26.8073 33.854 26.4997C33.8555 25.8964 33.8579 25.2931 33.8608 24.6898C34.0498 24.6198 34.239 24.5506 34.4285 24.4819C34.4818 24.462 34.5351 24.4422 34.59 24.4218C34.6421 24.403 34.6941 24.3842 34.7478 24.3649C34.7954 24.3475 34.8429 24.3301 34.8919 24.3121C35.0395 24.2739 35.0395 24.2739 35.3862 24.2739Z" fill="white"/>
<path d="M28.3833 24.274C28.384 24.3345 28.3848 24.395 28.3855 24.4573C28.3923 25.0265 28.3994 25.5956 28.4069 26.1648C28.4107 26.4575 28.4144 26.7501 28.4178 27.0427C28.4211 27.325 28.4247 27.6073 28.4286 27.8895C28.43 27.9974 28.4313 28.1052 28.4325 28.2131C28.4342 28.3638 28.4362 28.5145 28.4384 28.6652C28.44 28.794 28.44 28.794 28.4417 28.9255C28.4391 29.1222 28.4391 29.1222 28.522 29.265C28.6135 29.265 28.705 29.265 28.7993 29.265C28.8222 29.2192 28.8451 29.1735 28.8687 29.1264C28.9716 29.1607 28.9716 29.1607 29.0767 29.1957C29.0417 29.4849 28.9695 29.6108 28.756 29.8066C28.5102 30.0382 28.293 30.28 28.0811 30.5428C27.9454 30.6723 27.8783 30.7161 27.69 30.7207C27.5337 30.6184 27.5337 30.6184 27.3736 30.4694C27.2941 30.3973 27.2941 30.3973 27.213 30.3237C26.905 29.9937 26.832 29.7618 26.8343 29.3093C26.8343 29.2592 26.8343 29.2092 26.8342 29.1576C26.8344 28.9929 26.836 28.8283 26.8376 28.6636C26.838 28.5491 26.8383 28.4346 26.8385 28.3201C26.8393 28.0193 26.8413 27.7186 26.8437 27.4178C26.8458 27.1107 26.8467 26.8036 26.8478 26.4964C26.85 25.8942 26.8536 25.2921 26.8579 24.6899C27.0469 24.6199 27.2362 24.5507 27.4256 24.4819C27.4789 24.4621 27.5323 24.4423 27.5872 24.4218C27.8604 24.3234 28.0881 24.2456 28.3833 24.274Z" fill="white"/>
<path d="M38.1596 25.3833C38.5415 25.417 38.8605 25.5188 39.1798 25.7305C39.5561 26.2227 39.4118 26.9741 39.386 27.5625C39.3822 27.7139 39.3787 27.8654 39.3756 28.0168C39.3672 28.3869 39.3545 28.7567 39.3384 29.1266C39.0268 29.3117 38.8051 29.4373 38.437 29.4732C38.0075 29.0008 37.9999 28.5246 38.0026 27.9164C38.0024 27.8482 38.0023 27.78 38.0022 27.7097C38.0021 27.5663 38.0023 27.423 38.0029 27.2796C38.0036 27.0595 38.0029 26.8394 38.002 26.6193C38.0021 26.4798 38.0023 26.3403 38.0026 26.2008C38.0023 26.1348 38.002 26.0688 38.0017 26.0008C38.0021 25.9399 38.0026 25.879 38.003 25.8163C38.0031 25.7627 38.0033 25.709 38.0034 25.6538C38.021 25.5219 38.021 25.5219 38.1596 25.3833Z" fill="#8E8F8C"/>
<path d="M19.7306 25.3643C19.9797 25.389 20.1124 25.482 20.3186 25.6218C20.3847 25.666 20.4507 25.7102 20.5188 25.7558C20.5743 25.7931 20.6298 25.8303 20.687 25.8687C20.7327 25.8916 20.7785 25.9145 20.8256 25.938C20.8256 26.9903 20.8256 28.0426 20.8256 29.1267C20.2796 29.4387 20.2796 29.4387 19.7856 29.404C19.5076 28.9417 19.4696 28.5883 19.4787 28.0547C19.4789 27.9803 19.4792 27.9058 19.4794 27.8291C19.4801 27.6728 19.4815 27.5165 19.4835 27.3602C19.4866 27.1199 19.4878 26.8796 19.4886 26.6392C19.4895 26.4872 19.4906 26.3351 19.4917 26.1831C19.4922 26.1109 19.4927 26.0387 19.4933 25.9643C19.4942 25.8981 19.4951 25.8319 19.496 25.7637C19.4967 25.7052 19.4973 25.6466 19.498 25.5864C19.5128 25.3934 19.5386 25.3884 19.7306 25.3643Z" fill="#8E8F8C"/>
<path d="M39.7543 15.8862C40.1362 15.92 40.4552 16.0217 40.7745 16.2334C41.1508 16.7256 41.0064 17.477 40.9807 18.0655C40.9769 18.2169 40.9734 18.3683 40.9703 18.5197C40.9619 18.8898 40.9491 19.2596 40.933 19.6295C40.8342 19.6874 40.735 19.7447 40.6356 19.8017C40.5804 19.8337 40.5252 19.8656 40.4683 19.8986C40.309 19.9761 40.309 19.9761 40.075 19.9934C39.893 19.9068 39.893 19.9068 39.7673 19.6815C39.6265 19.2369 39.6045 18.8422 39.604 18.3788C39.6038 18.3119 39.6035 18.245 39.6033 18.1761C39.6029 18.0352 39.6028 17.8942 39.6028 17.7533C39.6026 17.537 39.6014 17.3207 39.6001 17.1043C39.5999 16.9674 39.5997 16.8304 39.5997 16.6934C39.5992 16.6285 39.5987 16.5636 39.5981 16.4967C39.5984 16.4368 39.5986 16.3768 39.5988 16.3151C39.5987 16.2623 39.5986 16.2094 39.5985 16.155C39.6156 16.0249 39.6156 16.0249 39.7543 15.8862Z" fill="#8E8F8C"/>
<path d="M27.8286 22.056C28.0922 22.2248 28.2795 22.4203 28.4526 22.6799C28.4853 23.0121 28.4882 23.1672 28.3313 23.4641C28.1428 23.6891 28.0114 23.8381 27.7162 23.8908C27.186 23.8967 27.186 23.8967 26.9229 23.698C26.648 23.3169 26.5787 23.0776 26.6499 22.6106C26.7667 22.3736 26.9322 22.2319 27.1612 22.0994C27.4046 22.0414 27.5784 22.0215 27.8286 22.056Z" fill="white"/>
<path d="M34.9831 22.1814C35.0475 22.2314 35.1118 22.2815 35.1781 22.333C35.2158 22.3622 35.2534 22.3913 35.2922 22.4213C35.4655 22.642 35.4219 22.8985 35.4157 23.1679C35.3713 23.4758 35.2703 23.5848 35.0395 23.7888C34.78 23.9617 34.6538 23.9535 34.3461 23.9274C34.0873 23.8361 33.9521 23.7431 33.7654 23.5418C33.6145 23.2227 33.5874 22.9573 33.6528 22.6103C33.7718 22.3722 33.9359 22.2302 34.1684 22.0991C34.4961 22.0192 34.6843 22.0115 34.9831 22.1814Z" fill="white"/>
<path d="M29.0767 15.8174C29.4233 15.8867 29.4233 15.8867 29.5454 16.0313C29.5994 16.1246 29.5994 16.1246 29.6544 16.2198C29.6939 16.2874 29.7335 16.355 29.7742 16.4247C29.8343 16.5316 29.8343 16.5316 29.8957 16.6406C29.9578 16.7466 29.9578 16.7466 30.0212 16.8547C30.3247 17.3811 30.3247 17.3811 30.3247 17.6197C30.1429 17.7125 29.9608 17.8048 29.7787 17.897C29.7269 17.9234 29.6752 17.9499 29.6219 17.9771C29.5723 18.0021 29.5227 18.0272 29.4715 18.0529C29.4258 18.0762 29.38 18.0994 29.3329 18.1233C29.2153 18.1743 29.2153 18.1743 29.0767 18.1743C29.0767 17.3965 29.0767 16.6187 29.0767 15.8174Z" fill="#8E8F8C"/>
<path d="M12.7264 16.7441C12.7886 16.7656 12.7886 16.7656 12.8521 16.7874C12.7748 16.8325 12.7748 16.8325 12.696 16.8784C12.5318 16.9792 12.3799 17.0852 12.228 17.2034C12.4041 16.6889 12.4041 16.6889 12.7264 16.7441Z" fill="#8E8F8C"/>
</svg>
