<svg width="53" height="27" viewBox="0 0 53 27" fill="none" xmlns="http://www.w3.org/2000/svg">
<path d="M37.1472 0.0755406C37.1132 0.122983 37.0655 0.18737 37.0485 0.217868C37.0144 0.275477 36.9838 0.272088 36.5547 0.173814C35.918 0.028098 35.9009 0.0247092 35.809 0.0755406C35.7647 0.0958731 35.7068 0.170426 35.6864 0.234812C35.6626 0.299198 35.6217 0.35003 35.5979 0.35003C35.5706 0.346641 35.3561 0.29581 35.1211 0.238201C34.8862 0.180592 34.658 0.133149 34.6172 0.133149C34.4878 0.133149 34.4129 0.197536 34.3686 0.339863C34.3243 0.495746 34.3175 0.495746 33.9327 0.383917C33.8169 0.35003 33.5582 0.32292 33.2687 0.312753L32.792 0.29581L32.7307 0.400861C32.6558 0.526245 32.54 0.563521 32.3663 0.509301C32.0803 0.424582 31.9543 0.472025 31.8828 0.692294C31.8317 0.848177 31.7943 0.854954 31.3958 0.766847C30.9395 0.665184 30.8612 0.661795 30.7557 0.743125C30.6773 0.804123 30.6637 0.841399 30.6637 0.983727C30.6637 1.13283 30.6569 1.15316 30.6024 1.13622C30.422 1.07861 29.9112 0.980338 29.7886 0.980338C29.6217 0.980338 29.5604 1.04472 29.523 1.25822C29.5094 1.32938 29.4787 1.38699 29.4549 1.38699C29.431 1.38699 29.2608 1.35649 29.0803 1.31921C28.6444 1.23111 28.5695 1.23111 28.4606 1.33955C28.3856 1.4141 28.3788 1.4446 28.3993 1.57676C28.4265 1.75636 28.4469 1.75297 27.9736 1.64115C27.5343 1.53948 27.4969 1.53948 27.3777 1.63098C27.296 1.69198 27.2858 1.71909 27.3028 1.84108C27.3096 1.91902 27.3232 2.00374 27.33 2.03085C27.3471 2.09524 27.296 2.09185 26.8533 2.00035C26.3425 1.89191 26.237 1.93597 26.237 2.24773V2.42395L25.9305 2.34601C25.7602 2.30534 25.5457 2.26129 25.4538 2.24773C25.3073 2.2274 25.2801 2.23418 25.2018 2.31212C25.0962 2.41717 25.0894 2.4985 25.1847 2.6781C25.2494 2.80688 25.2494 2.81366 25.1916 2.79671C24.926 2.71538 24.4254 2.60694 24.3232 2.60694C24.0883 2.60694 23.9929 2.79332 24.1121 3.01698C24.1393 3.07459 24.1564 3.12881 24.1496 3.13559C24.1428 3.14575 23.9282 3.11187 23.6796 3.06103C23.2676 2.9797 23.2097 2.97293 23.1212 3.01698C22.9884 3.07798 22.9748 3.21692 23.0667 3.49141C23.1042 3.59985 23.1212 3.69812 23.1076 3.7049C23.0565 3.73879 22.8181 3.65068 22.5287 3.49479C22.2801 3.35924 22.2154 3.33891 22.0349 3.33891C21.8919 3.33891 21.7761 3.36263 21.6672 3.41008C21.4594 3.50496 21.4254 3.60662 21.5378 3.81673C21.582 3.89806 21.6093 3.97261 21.5991 3.98278C21.5888 3.99294 21.4458 3.96244 21.279 3.915C20.8227 3.78284 20.6899 3.77267 20.5775 3.86078C20.4685 3.94211 20.4515 4.09122 20.5332 4.23354C20.6013 4.35215 20.5979 4.36909 20.5026 4.36909C20.4141 4.36909 20.3119 4.25726 20.3119 4.16577C20.3119 4.07427 20.1791 3.96244 20.0735 3.96244C19.9952 3.96244 19.9203 4.01666 19.733 4.19288C19.5219 4.3962 19.4946 4.43348 19.4946 4.5487C19.4946 4.70119 19.4878 4.70119 19.052 4.58936C18.657 4.4877 18.5412 4.48431 18.4254 4.57581C18.3198 4.65714 18.3062 4.80285 18.3948 4.94857C18.4254 4.9994 18.4458 5.05362 18.4356 5.0604C18.4254 5.07057 18.2586 5.03329 18.0645 4.97907C17.5503 4.82996 17.4856 4.82319 17.3732 4.91129C17.2574 5.00279 17.2472 5.17901 17.3494 5.31117C17.3868 5.35861 17.4073 5.40944 17.3902 5.42639C17.3766 5.43994 17.2336 5.41622 17.0769 5.37217C16.5628 5.22306 16.4742 5.20951 16.3653 5.26373C16.2529 5.32133 16.2188 5.41961 16.2461 5.59243C16.2597 5.66021 16.2529 5.7246 16.2393 5.73137C16.2222 5.74154 16.0418 5.70087 15.834 5.63649C15.6297 5.57549 15.4254 5.52466 15.3812 5.52466C15.2858 5.52127 15.1019 5.6941 15.1019 5.78559C15.1019 5.81948 15.1462 5.91776 15.2041 5.99909C15.2586 6.08042 15.3062 6.15497 15.3062 6.16513C15.3062 6.1753 15.1121 6.12108 14.8738 6.03975C14.3426 5.86353 14.254 5.85676 14.1348 5.99909C14.0259 6.12786 14.0225 6.18547 14.1314 6.34135C14.2302 6.48707 14.2404 6.54806 14.1587 6.52434C13.6854 6.38201 13.5321 6.32102 13.4027 6.21597C13.2461 6.09058 13.1712 6.0838 13.052 6.19224C12.9601 6.27019 12.9498 6.34813 13.0077 6.5074C13.0554 6.64634 13.0724 6.77511 13.0486 6.77511C13.0418 6.77511 12.8375 6.70734 12.5957 6.62262C12.3539 6.5379 12.1053 6.47012 12.0475 6.47012C11.7853 6.47012 11.7137 6.748 11.9181 6.97505C12.0304 7.09704 12.0679 7.18176 12.0134 7.18176C11.9964 7.18176 11.8227 7.12076 11.6252 7.0496C11.4277 6.97505 11.1962 6.90727 11.111 6.89372C10.9748 6.87338 10.9442 6.88016 10.8795 6.94455C10.8114 7.01232 10.8046 7.04282 10.825 7.21904C10.8352 7.33425 10.8318 7.41897 10.8114 7.41897C10.7943 7.41897 10.5866 7.34103 10.3483 7.24276L9.9192 7.06654L9.93623 6.91405C9.97028 6.63956 9.83748 6.4464 9.38799 6.12447C9.18027 5.97875 9.01682 5.92453 8.82272 5.94487C8.7444 5.95503 8.38345 5.96859 8.01909 5.97875C6.99753 6.00247 5.08381 6.01603 5.29493 5.9957C5.43795 5.98214 5.37665 5.97198 5.02251 5.95503C4.77053 5.94148 4.50152 5.92114 4.4266 5.91098C4.32444 5.89742 4.30742 5.90081 4.3585 5.92792C4.40276 5.94825 4.12013 5.95503 3.52422 5.94148C1.98166 5.91437 1.3517 5.92453 1.14058 5.98553C1.03842 6.01264 0.929453 6.03975 0.898806 6.04314C0.871565 6.04314 0.783029 6.10075 0.704709 6.16852C0.496992 6.34474 0.449319 6.50062 0.445914 7.01232C0.442508 7.40203 0.449319 7.44608 0.524233 7.56469C0.565096 7.63585 0.663847 7.72396 0.735356 7.76124C0.810271 7.79851 0.861349 7.84257 0.851133 7.85951C0.827297 7.90018 1.23252 7.9849 1.58325 8.01201C1.7433 8.02556 1.88972 8.05267 1.90675 8.07639C1.92718 8.09672 1.97145 8.13061 2.0089 8.15094C2.07701 8.18822 2.22684 8.44916 2.23024 8.53049C2.23024 8.55421 2.19279 8.53049 2.14852 8.47965C2.10425 8.42882 2.05317 8.39832 2.03955 8.41188C2.02252 8.42543 2.02593 8.44916 2.04296 8.46271C2.08722 8.49321 2.10084 8.69992 2.05998 8.72364C2.03955 8.7372 2.02593 8.83208 2.02252 8.93714C2.01912 9.04219 2.0089 9.21163 1.99869 9.31329C1.97485 9.48611 1.96804 9.49967 1.86589 9.52678C1.73308 9.56067 1.63433 9.71994 1.66838 9.8521C1.6786 9.89954 1.75692 10.0148 1.83864 10.1096C1.95783 10.2486 1.98166 10.2994 1.96804 10.3774C1.95783 10.4282 1.93739 10.4689 1.92037 10.4689C1.90334 10.4689 1.7467 10.3977 1.57644 10.313C1.20187 10.1266 1.06566 10.1096 0.949884 10.2452C0.902211 10.2994 0.868159 10.3807 0.868159 10.4417C0.868159 10.5468 0.932858 10.6247 1.63093 11.3398C1.78416 11.4956 1.89653 11.621 1.88291 11.621C1.86929 11.621 1.62752 11.5126 1.34148 11.3804C1.05204 11.2449 0.776219 11.1398 0.71152 11.1364C0.551475 11.133 0.425482 11.255 0.425482 11.4143C0.422077 11.5261 0.46294 11.5736 0.95329 12.0446C1.39597 12.4716 1.54239 12.6377 1.46748 12.6377C1.46067 12.6377 1.22911 12.5292 0.949884 12.3971C0.357378 12.1158 0.22798 12.0921 0.0951772 12.2446C-0.00697898 12.3632 0.00664185 12.4886 0.13604 12.658C0.207549 12.7529 0.622984 13.1494 1.37213 13.8441C1.47429 13.9389 1.55261 14.0304 1.5458 14.0508C1.53899 14.0711 1.27678 13.966 0.9601 13.8203C0.646821 13.6712 0.343757 13.5526 0.292679 13.5526C0.238196 13.5526 0.166687 13.5865 0.125824 13.6306C-0.024005 13.7864 -0.0444363 14.2134 0.0883668 14.3761C0.13604 14.4337 0.183713 14.4506 0.316516 14.4506H0.486776L1.1542 15.0572C1.52196 15.3927 1.82162 15.6909 1.82162 15.7214C1.82162 15.857 1.75351 15.8502 1.32786 15.6774C0.936264 15.5215 0.898806 15.5113 0.800055 15.552C0.588932 15.6367 0.537854 15.9417 0.701304 16.1145L0.772814 16.1925L0.694494 16.2873C0.636605 16.3585 0.582122 16.3856 0.507207 16.3856C0.370999 16.3856 0.29949 16.4432 0.234791 16.5991C0.166687 16.7618 0.132635 17.1278 0.176902 17.2226C0.197333 17.2633 0.241601 17.3616 0.275653 17.4429C0.377809 17.6869 0.704709 17.9004 1.04864 17.9444C1.16441 17.9614 1.20187 17.9783 1.17803 18.0021C1.11674 18.0631 1.13377 18.1884 1.20527 18.2291C1.31765 18.2867 1.37213 18.2698 1.62412 18.0936L1.86589 17.9241H2.18597C2.35964 17.9241 2.50266 17.9377 2.50266 17.9546C2.50266 17.9817 1.85226 18.263 1.78757 18.263C1.73308 18.263 1.7467 18.3206 1.808 18.3443C1.83864 18.3545 1.92037 18.3647 1.99528 18.3647C2.12468 18.3647 2.18938 18.429 2.0702 18.4358C2.03615 18.4392 2.0702 18.4528 2.14511 18.4697C2.35964 18.5138 2.63546 18.5036 2.71719 18.4528C2.75805 18.4257 2.83977 18.3985 2.90107 18.3918C2.99641 18.3816 3.07814 18.446 3.80004 19.0932C4.23591 19.4829 4.67859 19.8794 4.78074 19.9743C6.35395 21.3874 7.21547 22.238 7.35848 22.5227C7.44361 22.6955 7.47086 22.7192 7.5662 22.7294C7.79435 22.7531 7.91694 22.5904 7.84543 22.3668C7.74668 22.055 7.1746 21.4755 5.17575 19.6524C4.37212 18.9204 3.7081 18.307 3.70129 18.2935C3.69448 18.2799 3.73875 18.2427 3.79664 18.2122L3.89879 18.1579L4.07927 18.3511C4.17462 18.4562 4.61729 18.873 5.05656 19.2762C5.49584 19.6795 6.16326 20.2895 6.53783 20.6351C8.70354 22.6175 8.86699 22.7734 9.0032 22.9835C9.07811 23.0987 9.15643 23.214 9.17687 23.2377C9.23475 23.3021 9.43907 23.2885 9.51739 23.2106C9.60933 23.1191 9.60252 23.0005 9.50036 22.8005C9.42885 22.6548 9.42545 22.6345 9.47652 22.6345C9.50717 22.6345 9.64338 22.7192 9.77278 22.8243C10.1439 23.1191 10.6547 23.502 10.7807 23.5799C10.951 23.685 11.1349 23.6748 11.2574 23.5528C11.3732 23.4376 11.38 23.3495 11.2881 23.1496L11.2234 23.0072H11.2949C11.3324 23.0072 11.4515 23.0818 11.5571 23.1699C11.8329 23.4105 12.1666 23.6443 12.3573 23.7426C12.657 23.8917 12.8375 23.8443 12.9294 23.5969C12.9532 23.5325 12.9805 23.4817 12.9941 23.4817C13.0043 23.4817 13.0724 23.5664 13.1405 23.6681C13.287 23.8883 13.3346 23.9154 13.4538 23.8409C13.6002 23.7426 13.6241 23.6443 13.556 23.4105C13.5253 23.2953 13.5049 23.197 13.5083 23.1902C13.5151 23.1869 13.6785 23.3021 13.8761 23.4512C14.0736 23.6003 14.3426 23.7765 14.4788 23.8409C14.7035 23.9527 14.7308 23.9595 14.8431 23.9222C15.0645 23.851 15.1258 23.6579 15.0134 23.38C14.9827 23.3021 14.9657 23.2343 14.9725 23.2275C14.9793 23.2174 15.1462 23.3258 15.3437 23.4647C15.8375 23.8172 16.0894 23.8951 16.2733 23.7494C16.338 23.6986 16.3619 23.6477 16.3619 23.5664C16.3619 23.397 16.43 23.3631 16.5696 23.4681C16.7637 23.6138 17.0191 23.7291 17.1519 23.7324C17.2472 23.7324 17.3017 23.7121 17.3834 23.6342C17.5026 23.519 17.5162 23.38 17.4277 23.1936C17.397 23.1292 17.38 23.0682 17.3902 23.0547C17.4038 23.0445 17.5877 23.1394 17.8023 23.2716C18.2722 23.5528 18.3335 23.5732 18.5003 23.4918C18.691 23.4003 18.7285 23.2919 18.657 23.0411C18.6263 22.9293 18.6059 22.8276 18.6161 22.8209C18.6263 22.8107 18.7557 22.8853 18.9055 22.9869C19.3789 23.3088 19.5934 23.3563 19.7705 23.1801C19.8828 23.0649 19.8965 22.9395 19.8181 22.7463C19.7875 22.6785 19.7773 22.6108 19.7943 22.5938C19.8079 22.5803 19.9101 22.6311 20.0225 22.7056C20.3391 22.9191 20.5503 23.0174 20.7137 23.0208C20.8363 23.0242 20.8772 23.0072 20.9487 22.9259C21.0168 22.8446 21.0304 22.8005 21.0202 22.6718C21.01 22.587 20.9997 22.4955 20.9895 22.4684C20.9623 22.3668 21.1053 22.3939 21.3096 22.5294C21.7251 22.7971 21.9226 22.8344 22.086 22.6718C22.2018 22.5565 22.2154 22.4007 22.1337 22.2041C22.1064 22.1397 22.0826 22.0787 22.0826 22.072C22.0826 22.0347 22.1779 22.0787 22.5287 22.2787C22.9543 22.5227 23.0633 22.543 23.1893 22.4142C23.2574 22.3498 23.2744 22.299 23.2744 22.1634C23.2744 22.0686 23.2574 21.9567 23.237 21.9093C23.2131 21.8618 23.2063 21.8009 23.2199 21.7704C23.237 21.7263 23.2812 21.7466 23.489 21.8822C23.918 22.1736 24.204 22.2177 24.3471 22.0143C24.4118 21.9228 24.4118 21.6958 24.3471 21.584C24.2381 21.3942 24.2926 21.4044 24.6842 21.6348C25.0451 21.8517 25.1882 21.889 25.3448 21.8076C25.5355 21.7094 25.5729 21.5162 25.4538 21.2485C25.4163 21.1672 25.3891 21.096 25.3925 21.0892C25.3993 21.0858 25.5627 21.1705 25.7602 21.2824C26.1893 21.523 26.3187 21.5399 26.4821 21.3806C26.5707 21.2891 26.5809 21.2587 26.5673 21.1333C26.5605 21.0553 26.54 20.9571 26.5264 20.9198C26.4855 20.791 26.5911 20.8046 26.8533 20.9604C27.2449 21.1909 27.5003 21.1943 27.6161 20.9706C27.6774 20.8554 27.6671 20.7063 27.582 20.5436C27.4969 20.381 27.5786 20.381 27.8612 20.5504C28.2494 20.7842 28.4946 20.7978 28.6206 20.5911C28.7023 20.4623 28.7057 20.381 28.6376 20.2488C28.5763 20.1336 28.5729 20.059 28.624 20.059C28.6444 20.059 28.8011 20.137 28.9679 20.2352C29.3561 20.4589 29.5264 20.4758 29.6796 20.303C29.7954 20.1742 29.8022 20.0658 29.7103 19.8659C29.6762 19.7845 29.6592 19.7134 29.6762 19.7032C29.6932 19.693 29.7647 19.7202 29.8363 19.7642C30.078 19.9167 30.3879 20.059 30.4764 20.059C30.6331 20.059 30.7591 19.9675 30.8033 19.8252C30.8374 19.7134 30.8306 19.6761 30.7693 19.5338C30.7012 19.3813 30.6808 19.2796 30.7148 19.2796C30.7216 19.2796 30.8408 19.3474 30.977 19.4287C31.3856 19.6727 31.5797 19.6964 31.75 19.5134C31.8283 19.4287 31.8419 19.2796 31.784 19.1136C31.7364 18.9814 31.7602 18.9509 31.8692 19.0017C31.9202 19.0221 31.9645 19.0865 31.9918 19.1678C32.0871 19.4863 32.1348 19.5134 32.4991 19.4762C32.8328 19.4423 32.9282 19.4016 32.9929 19.2627C33.0644 19.117 33.061 19.0356 32.9827 18.873L32.918 18.7374H32.9929C33.0337 18.7374 33.1291 18.7815 33.204 18.8323C33.3743 18.9577 33.5956 19.0424 33.742 19.0424C33.8272 19.0424 33.8885 19.0153 33.9634 18.9374C34.0894 18.812 34.103 18.6629 34.0008 18.4663C33.9634 18.3952 33.9463 18.3274 33.96 18.3172C33.9872 18.3003 34.6274 18.6358 34.6955 18.7035C34.7159 18.7239 34.6955 18.7645 34.6376 18.8187C34.5389 18.9102 34.515 19.0593 34.5831 19.1847C34.6035 19.222 34.6104 19.2593 34.6001 19.2728C34.5899 19.283 34.4299 19.2593 34.2494 19.2186C33.8067 19.1203 33.6807 19.1203 33.5752 19.2288C33.4832 19.3169 33.4696 19.3948 33.5241 19.5372C33.5445 19.588 33.5547 19.6354 33.5479 19.6422C33.5377 19.649 33.3606 19.6253 33.1529 19.588C32.7681 19.5168 32.6013 19.5236 32.5332 19.6049C32.5128 19.632 32.5025 19.7337 32.5093 19.8388C32.5196 20.0285 32.5196 20.0285 32.4344 20.015C32.3868 20.0082 32.2063 19.9743 32.0326 19.9438C31.5423 19.8523 31.3856 19.9336 31.4333 20.2488C31.4537 20.3911 31.4503 20.4047 31.3924 20.3844C31.2903 20.3539 30.7318 20.2624 30.6467 20.2624C30.6058 20.2624 30.5275 20.2962 30.4764 20.3369C30.3913 20.4047 30.3845 20.4216 30.4015 20.5877L30.4185 20.7639L30.296 20.7469C30.2279 20.7402 30.0882 20.7165 29.9861 20.6995C29.7137 20.6555 29.5298 20.6622 29.4447 20.7232C29.3834 20.7639 29.3697 20.8079 29.3697 20.9469V21.1197L29.2029 21.1028C29.0973 21.0926 28.9986 21.0553 28.9203 20.9977C28.7704 20.8825 28.6342 20.8825 28.4878 20.9876C28.3107 21.1197 28.2699 21.1977 28.2937 21.3535C28.3141 21.4721 28.3073 21.4857 28.2562 21.4688C28.2222 21.4586 28.0315 21.4281 27.8306 21.3976C27.3607 21.3264 27.2858 21.3535 27.2585 21.5941C27.2313 21.8212 27.2006 21.8415 26.9452 21.7839C26.8261 21.7602 26.6354 21.7399 26.5196 21.7365C26.2472 21.7365 26.1859 21.7907 26.1859 22.0245C26.1859 22.2211 26.2097 22.2143 25.7773 22.1431C25.2358 22.055 25.1677 22.0787 25.1269 22.3736C25.0996 22.5565 25.1166 22.5532 24.6876 22.4786C24.204 22.3939 24.0576 22.4549 24.0576 22.7429C24.0576 22.8954 24.0508 22.9056 23.9827 22.8886C23.5264 22.7904 23.1893 22.7802 23.0769 22.8581C22.9952 22.9158 22.9782 23.0716 23.0361 23.2275C23.0769 23.3326 23.1246 23.3326 22.5219 23.2207C22.0656 23.136 21.926 23.2038 21.9532 23.4885L21.9702 23.6545L21.8647 23.6342C21.8068 23.6206 21.6365 23.5833 21.4867 23.5427C21.0202 23.4275 20.8738 23.458 20.8363 23.685C20.8057 23.8714 20.758 23.9019 20.5809 23.8544C20.5026 23.8341 20.3017 23.8138 20.1348 23.8104C19.7705 23.8036 19.733 23.8307 19.733 24.1188C19.733 24.2746 19.7262 24.2984 19.6751 24.2814C19.6411 24.2713 19.4674 24.2306 19.2903 24.1933C18.7523 24.0815 18.439 24.112 18.439 24.2746C18.439 24.2984 18.4935 24.4034 18.5582 24.5119C18.6229 24.6203 18.6774 24.7253 18.6774 24.7457C18.6774 24.8135 18.3743 24.7389 17.9929 24.5729C17.4345 24.3323 17.1757 24.295 17.0088 24.4373C16.9646 24.478 16.9407 24.539 16.9407 24.6203V24.7423L16.8147 24.722C16.7432 24.7118 16.464 24.6881 16.1916 24.6711C15.9192 24.6542 15.6638 24.6271 15.6263 24.6169C15.5718 24.6 15.5276 24.6203 15.4629 24.6915C15.3743 24.7863 15.3675 24.7863 14.9725 24.7863H14.5741L14.5367 24.905C14.5162 24.9693 14.4754 25.0337 14.4515 25.0507C14.4209 25.071 14.254 25.0473 14.0089 24.9931C13.7909 24.9456 13.5526 24.905 13.4776 24.905C13.3312 24.905 13.2291 24.9829 13.2291 25.0947C13.2257 25.2438 13.1916 25.2438 12.6876 25.0879C12.1053 24.9083 11.9862 24.905 11.884 25.0642C11.8465 25.1252 11.7921 25.1727 11.7648 25.1761C11.7342 25.1761 11.472 25.0913 11.1791 24.9897C10.8863 24.888 10.6002 24.8033 10.5424 24.8033C10.3993 24.8033 10.3006 24.9083 10.3006 25.0608C10.3006 25.1693 10.338 25.2167 10.699 25.5658C11.0361 25.8911 11.1178 25.9521 11.2098 25.9555C11.329 25.9555 11.4584 25.8301 11.4584 25.7149C11.4584 25.6776 11.4788 25.6505 11.5026 25.6505C11.5299 25.6505 11.7512 25.725 11.993 25.8199C12.6672 26.0741 12.8034 26.0775 12.9056 25.8369C12.9294 25.7725 12.9737 25.7183 12.9975 25.7183C13.0248 25.7183 13.2495 25.786 13.5015 25.8707C13.9748 26.03 14.2132 26.0605 14.2847 25.9724C14.3051 25.9453 14.3324 25.8606 14.3426 25.786C14.3528 25.7115 14.3732 25.6403 14.3868 25.6335C14.4039 25.6234 14.489 25.6301 14.5809 25.6471C14.6695 25.6674 14.8329 25.6979 14.9385 25.7183C15.0985 25.7488 15.1598 25.7826 15.2858 25.908C15.3709 25.9894 15.4629 26.0571 15.4935 26.0571C15.565 26.0571 15.7489 25.8741 15.7489 25.803C15.7489 25.725 15.6842 25.6132 15.5991 25.5454C15.4663 25.4404 15.5753 25.4336 15.9975 25.5251C16.4197 25.62 16.5866 25.6369 16.6547 25.5895C16.7092 25.5556 16.7705 25.4268 16.7705 25.3489C16.7705 25.2574 16.8113 25.2506 17.1348 25.298C17.3562 25.3319 17.4481 25.3624 17.5605 25.4438C17.741 25.5759 17.8942 25.5827 17.9895 25.4641C18.0713 25.3624 18.0576 25.2879 17.9214 25.0778C17.8704 24.9931 17.8329 24.9219 17.8397 24.9117C17.8499 24.905 17.9487 24.9626 18.0611 25.0405C18.3437 25.2269 18.7387 25.4133 18.8613 25.4133C18.9362 25.4133 19.0043 25.3726 19.1099 25.2709L19.2563 25.1286L19.3891 25.2032C19.4606 25.2438 19.5457 25.2777 19.5764 25.2777C19.6717 25.2777 19.7671 25.1523 19.7671 25.0236C19.7671 24.8507 19.825 24.8372 20.22 24.9253C20.6831 25.0303 20.7648 25.0269 20.8533 24.9185C20.9487 24.7999 20.9419 24.6813 20.8397 24.5593C20.7103 24.4068 20.7273 24.3899 20.9691 24.4204C21.0849 24.4339 21.3028 24.4475 21.4526 24.4475H21.7251L21.7863 24.3187C21.8204 24.2475 21.8647 24.1831 21.8885 24.173C21.9123 24.1662 22.0451 24.1967 22.1848 24.2475C22.3244 24.295 22.5559 24.3424 22.6955 24.3526C22.9373 24.3695 22.9611 24.3661 23.0531 24.2848C23.1484 24.2035 23.1518 24.1933 23.1178 24.0713C23.0974 23.9968 23.0667 23.9087 23.0531 23.8748C23.0293 23.8239 23.0361 23.8138 23.0769 23.8307C23.2233 23.8849 23.8669 23.9934 23.9384 23.9764C24.1428 23.9256 24.2143 23.7358 24.1019 23.5461C24.0712 23.4952 24.0542 23.441 24.0644 23.4308C24.0746 23.4207 24.2483 23.4308 24.4526 23.4512C24.6569 23.4749 24.8647 23.4851 24.9123 23.4715C25.0111 23.4478 25.0792 23.3258 25.0792 23.1767C25.0792 23.0581 25.0792 23.0581 25.5729 23.1225C26.0326 23.1835 26.1348 23.153 26.1348 22.9598C26.1348 22.8988 26.1552 22.8243 26.1791 22.7904C26.2233 22.7294 26.2404 22.7294 26.6149 22.7836C27.1598 22.8615 27.2892 22.8039 27.2415 22.4854L27.2177 22.3397L27.4867 22.3837C27.9225 22.4549 28.0996 22.4447 28.1984 22.3464C28.2733 22.2719 28.2835 22.2414 28.2631 22.1262C28.2426 21.9974 28.246 21.9906 28.3243 21.9906C28.464 21.9906 28.5968 22.055 28.7091 22.1804C28.7704 22.2448 28.8419 22.2956 28.8692 22.2956C28.9237 22.2956 29.2131 22.0821 29.2982 21.9805C29.3255 21.9466 29.3391 21.8686 29.3289 21.7839L29.3153 21.6416L29.5911 21.6653C29.7409 21.6789 29.9486 21.6958 30.0542 21.7094C30.221 21.7263 30.2551 21.7195 30.3198 21.6551C30.3641 21.6111 30.3913 21.5399 30.3913 21.4688C30.3913 21.2858 30.439 21.2688 30.8033 21.3298C31.2392 21.3976 31.3005 21.3942 31.3992 21.2959C31.4742 21.2214 31.481 21.1909 31.4639 21.0587L31.4401 20.9096L31.5695 20.9299C31.6444 20.9401 31.8113 20.9672 31.9407 20.9943C32.254 21.0553 32.3663 21.0519 32.4651 20.9774C32.5332 20.9266 32.5434 20.8927 32.5332 20.7402C32.5196 20.5673 32.523 20.564 32.6047 20.5809C32.6524 20.5911 32.7988 20.6216 32.9282 20.6487C33.2415 20.7165 33.456 20.7165 33.5547 20.6487C33.6297 20.5945 33.6331 20.5741 33.6126 20.3911C33.5956 20.2115 33.599 20.1912 33.6535 20.2081C33.868 20.2725 34.2154 20.3335 34.372 20.3335C34.6104 20.3369 34.6819 20.2657 34.6819 20.0184C34.6819 19.8964 34.6955 19.8523 34.7261 19.8659C34.7466 19.8727 34.9475 19.9167 35.1654 19.9608L35.5638 20.0387L35.6592 19.9709C35.7409 19.9099 35.7545 19.876 35.7545 19.7269C35.7545 19.632 35.7647 19.5473 35.7715 19.5372C35.7818 19.5304 35.9656 19.5643 36.1836 19.6185C36.616 19.7235 36.7148 19.7202 36.8306 19.5982C36.8987 19.5236 36.9021 19.5033 36.8714 19.3643C36.8306 19.1813 36.8476 19.178 37.137 19.2728C37.2392 19.3101 37.4231 19.3576 37.5456 19.3779C37.7432 19.4152 37.7874 19.4152 37.8794 19.3677C38.0054 19.3 38.0394 19.1915 37.9849 19.0255C37.9611 18.9577 37.9509 18.8967 37.9577 18.8899C37.9645 18.8831 38.0837 18.9102 38.2233 18.9543C38.3629 18.9984 38.574 19.056 38.6932 19.0763C38.8941 19.117 38.9145 19.1136 38.9997 19.0526C39.112 18.9712 39.1359 18.8187 39.061 18.673C39.0303 18.6188 39.0065 18.5646 39.0065 18.5578C39.0065 18.5476 39.1938 18.6019 39.4253 18.6764C39.9259 18.8425 40.1064 18.856 40.2017 18.7408C40.28 18.6459 40.2834 18.5307 40.2153 18.3985C40.1643 18.3003 40.1643 18.2969 40.2358 18.2969C40.2766 18.2969 40.4571 18.3511 40.6376 18.4189C41.0428 18.5714 41.2641 18.5883 41.3595 18.4697C41.4412 18.368 41.4412 18.2765 41.3527 18.1139L41.2846 17.9851L41.4106 18.0088C41.4821 18.0224 41.6387 18.0834 41.7613 18.1478C41.9418 18.2427 42.0133 18.263 42.1972 18.263C42.4866 18.263 43.028 18.1681 43.0927 18.1071C43.1302 18.0698 43.1404 17.9919 43.137 17.8225C43.1302 17.5412 43.1438 17.5344 43.4026 17.7072C43.6546 17.8767 43.8998 17.9682 44.0292 17.9444C44.0905 17.9309 44.179 17.8801 44.2301 17.8258C44.3254 17.7276 44.3254 17.7276 44.4991 17.775C45.0371 17.9207 46.0791 17.9682 46.7023 17.8767C47.1245 17.8123 47.5399 17.6801 47.86 17.5107C48.129 17.3684 48.5343 17.06 48.6194 16.9312C48.6466 16.8905 48.7249 16.799 48.793 16.7279C48.8612 16.6601 48.9088 16.6025 48.8986 16.6025C48.8884 16.6025 48.9293 16.5178 48.9871 16.4161C49.0893 16.2365 49.0961 16.1789 49.0314 16.0162C49.0178 15.9824 49.0484 15.962 49.1336 15.9451C49.2902 15.9146 49.3924 15.7858 49.3924 15.613C49.3924 15.5181 49.3481 15.3961 49.2357 15.1928L49.0825 14.9115L49.3106 15.0132C49.6205 15.1555 49.7363 15.1555 49.8793 15.0166C49.9406 14.9556 50.0019 14.9081 50.0121 14.9081C50.0257 14.9081 50.0359 14.9928 50.0359 15.0979C50.0359 15.3046 50.0564 15.2944 49.801 15.2233C49.7261 15.2029 49.7193 15.2063 49.7635 15.2572C49.8044 15.308 49.801 15.3148 49.7533 15.3148C49.6818 15.3148 49.6852 15.3554 49.7669 15.4435C49.8146 15.491 49.8316 15.5418 49.818 15.596C49.801 15.6604 49.818 15.6808 49.9168 15.7146C50.0325 15.7587 50.0394 15.7689 50.0394 15.918C50.0394 16.0129 50.0155 16.1111 49.9849 16.1586C49.9338 16.2263 49.9066 16.2365 49.7499 16.223C49.5865 16.2094 49.5762 16.2128 49.5899 16.2806C49.6001 16.3416 49.5762 16.3653 49.4503 16.4127C49.2221 16.4974 49.0008 16.6804 48.919 16.8499C48.8169 17.06 48.8203 17.3989 48.9259 17.5344C49.2698 17.9749 49.2528 17.9682 50.2096 17.9614C51.0609 17.9546 51.3095 17.9173 51.6636 17.7479C51.8986 17.6327 52.2357 17.3141 52.3447 17.0939C52.5286 16.7381 52.566 16.5279 52.5933 15.6706C52.6409 14.349 52.6954 13.3086 52.7295 13.1426C52.7465 13.0545 52.7533 12.9426 52.7431 12.8918C52.7329 12.8376 52.7465 12.7766 52.7737 12.7427C52.8146 12.6987 52.8214 12.5157 52.818 11.7634C52.8146 11.0585 52.8248 10.8281 52.8589 10.801C52.9202 10.7501 52.9099 10.6586 52.8316 10.5604C52.7942 10.5129 52.7737 10.4519 52.784 10.4248C52.7942 10.3977 52.7874 10.3638 52.7669 10.3502C52.6954 10.3062 52.7295 10.2316 52.818 10.2316H52.9099L52.8895 10.0046C52.8793 9.87582 52.8861 9.74705 52.9065 9.70977C52.9338 9.66233 52.9304 9.65216 52.8929 9.66233C52.8691 9.6725 52.8452 9.71994 52.8384 9.77077C52.8248 9.8826 52.7601 9.86904 52.7158 9.74705C52.6886 9.66911 52.6954 9.642 52.7703 9.56406C52.927 9.39801 52.978 9.16079 52.8963 8.95408C52.8623 8.86597 52.8555 8.86258 52.8316 8.92697C52.8078 8.98797 52.801 8.98119 52.7533 8.87953C52.692 8.73381 52.709 8.64909 52.7908 8.71348C52.835 8.75075 52.8418 8.74737 52.8248 8.69992C52.7942 8.62537 52.8316 8.59487 52.8929 8.6457C52.9372 8.68298 52.9406 8.66942 52.927 8.55421C52.9168 8.47965 52.9304 8.36783 52.9576 8.30683C53.0087 8.18822 52.9951 8.13061 52.9134 8.13061C52.8418 8.13061 52.8555 8.00523 52.9406 7.89001C53.0019 7.80868 53.0087 7.78157 52.9712 7.76124C52.9338 7.73752 52.9338 7.71041 52.9644 7.6223C53.0155 7.47319 53.0121 7.4427 52.9508 7.46642C52.9168 7.47658 52.8997 7.46303 52.8997 7.42575C52.8997 7.39186 52.8827 7.34781 52.8589 7.32409C52.8282 7.29359 52.8282 7.27326 52.8589 7.24276C52.8895 7.21226 52.8793 7.17498 52.8248 7.08349C52.7635 6.9886 52.7601 6.97166 52.8078 6.9886C52.944 7.03943 52.8725 6.59889 52.7295 6.52773C52.6852 6.50401 52.6375 6.4464 52.6239 6.39218C52.5967 6.28713 52.6443 6.26341 52.6784 6.36846C52.6988 6.43623 52.7635 6.46334 52.7635 6.40574C52.7635 6.36168 52.5626 6.16513 52.5218 6.16513C52.44 6.16513 52.1506 6.01603 52.1846 5.9957C52.2289 5.96859 51.9939 5.92114 51.8101 5.91776C51.7454 5.91776 51.5785 5.9347 51.4389 5.95842C51.2993 5.98214 51.0677 5.9957 50.9213 5.98892C50.7783 5.98553 50.6659 5.98892 50.6727 5.99909C50.6966 6.03636 50.5399 6.06347 50.4957 6.0262C50.4718 6.00586 50.4241 6.00586 50.3663 6.02958C50.3152 6.04653 50.2164 6.06008 50.1483 6.06008C50.0019 6.05331 49.7465 6.11769 49.7159 6.16513C49.7056 6.18547 49.6716 6.19902 49.6409 6.19902C49.5626 6.19902 49.2868 6.45996 49.1949 6.61923C49.1268 6.73783 49.1199 6.79205 49.1336 6.96149C49.1472 7.09365 49.1404 7.1411 49.1234 7.09704C49.1029 7.0496 49.0927 7.10382 49.0927 7.27326C49.0893 7.46981 49.0995 7.51386 49.1404 7.49692C49.1676 7.48675 49.1881 7.49353 49.1881 7.51386C49.1881 7.5308 49.2528 7.63247 49.3311 7.73752C49.4264 7.86968 49.4945 7.92729 49.5456 7.92729C49.5899 7.92729 49.6409 7.95101 49.6648 7.97812C49.6886 8.00523 49.7329 8.02556 49.7601 8.02217C49.8214 8.00862 49.8759 8.17805 49.8453 8.29327C49.835 8.34072 49.8419 8.38477 49.8691 8.40171C49.8895 8.41527 49.91 8.46271 49.91 8.50676C49.91 8.64231 49.8589 8.89308 49.8282 8.91341C49.8146 8.92358 49.8248 9.01169 49.8521 9.10657C49.8827 9.20485 49.8963 9.29973 49.8861 9.31668C49.8759 9.33362 49.8963 9.37767 49.9372 9.41834C50.0223 9.50306 50.0257 9.55389 49.9406 9.53017C49.8963 9.52 49.8725 9.53695 49.8521 9.59455C49.8384 9.63861 49.8248 9.67927 49.8214 9.68944C49.7601 9.86227 49.7703 9.96732 49.8691 10.1435C49.927 10.2452 49.9883 10.374 50.0053 10.4316C50.0325 10.5332 50.0291 10.5366 49.9338 10.5366C49.8453 10.5366 49.835 10.5265 49.835 10.4248C49.835 10.3672 49.818 10.2926 49.7976 10.2655C49.7703 10.2283 49.7669 10.2486 49.784 10.3401C49.7942 10.4112 49.7874 10.496 49.7703 10.5332C49.7431 10.5807 49.7465 10.601 49.7806 10.6146C49.8316 10.6349 49.8725 10.9094 49.8248 10.9094C49.8112 10.9094 49.8146 10.9365 49.8316 10.9738C49.8589 11.0178 49.8521 11.0924 49.818 11.2279C49.7908 11.333 49.7669 11.4279 49.7669 11.438C49.7669 11.4618 48.633 10.3028 48.599 10.2418C48.5819 10.2147 48.5751 10.1876 48.5819 10.1808C48.5853 10.1774 48.7215 10.2452 48.8816 10.3367C49.2153 10.5299 49.3992 10.557 49.5184 10.4248C49.6375 10.296 49.6444 10.2113 49.549 10.0181C49.3651 9.65216 48.759 9.04897 46.532 7.02588C44.8771 5.52127 44.9656 5.6026 44.9656 5.55855C44.9656 5.50094 44.952 5.49077 45.885 6.22613C47.0632 7.15804 47.4003 7.38509 47.6046 7.38509C47.7442 7.38509 47.86 7.24615 47.86 7.07671C47.86 6.93777 47.8464 6.91744 47.4786 6.56162C47.2675 6.3549 46.7942 5.91776 46.4298 5.58905C46.0655 5.26034 45.633 4.8503 45.4696 4.67747C45.1052 4.29454 45.0065 4.27421 44.8703 4.55209L44.8056 4.68086L44.213 4.20982C43.8861 3.95228 43.4298 3.58968 43.1949 3.4033C42.6603 2.9797 42.2823 2.72216 42.1052 2.67133C41.8294 2.58661 41.6285 2.79671 41.7272 3.05765C41.8192 3.29825 41.7341 3.27114 41.3527 2.93565C40.7091 2.37651 40.1438 1.99696 39.9429 1.99696C39.8986 1.99696 39.8135 2.03763 39.7556 2.08846C39.6467 2.17996 39.6467 2.17996 39.6671 2.41378C39.6909 2.69166 39.7454 2.7086 39.1904 2.2579C38.7375 1.8953 38.3867 1.70553 38.2097 1.73942C37.9985 1.78008 37.8794 2.04102 37.9883 2.23757C38.0088 2.27823 38.0156 2.32906 38.0054 2.35617C37.9917 2.39345 37.9168 2.35956 37.6887 2.20707C37.5218 2.09524 37.3413 1.98341 37.28 1.94952C37.1234 1.87158 36.8918 1.87836 36.7795 1.96647C36.6943 2.03424 36.6875 2.05457 36.6943 2.26468C36.6978 2.39006 36.6875 2.48495 36.6705 2.48156C36.6535 2.47478 36.5173 2.38328 36.3674 2.27145C35.9997 2.00374 35.7818 1.8953 35.5945 1.8953C35.3867 1.8953 35.305 1.9868 35.2744 2.24434C35.2608 2.35278 35.2403 2.44428 35.2267 2.45445C35.2165 2.46122 35.1143 2.407 35.002 2.33245C34.532 2.01391 34.2664 1.93258 34.086 2.05119C33.9736 2.12235 33.9191 2.29856 33.9634 2.45106C33.9838 2.53239 33.9838 2.57983 33.96 2.59339C33.9429 2.60355 33.8238 2.54594 33.6978 2.46122C33.1938 2.12913 32.9895 2.08507 32.8022 2.27145C32.7034 2.36973 32.7 2.38328 32.7171 2.57644C32.7307 2.70521 32.7273 2.77638 32.7034 2.77638C32.6864 2.77638 32.5809 2.72216 32.4753 2.65099C32.002 2.3494 31.7806 2.30195 31.6138 2.468C31.5252 2.55611 31.515 2.59 31.515 2.77299C31.515 2.89499 31.5014 2.9797 31.481 2.9797C31.4605 2.9797 31.3209 2.90854 31.1677 2.82043C30.96 2.70183 30.8476 2.65777 30.7114 2.64761C30.5445 2.63405 30.5207 2.64083 30.4254 2.73571C30.3164 2.84754 30.296 2.96954 30.3573 3.13559C30.4185 3.29147 30.347 3.29825 30.1359 3.16609C29.6898 2.88143 29.4685 2.84077 29.2948 3.01698C29.1927 3.11525 29.1927 3.12542 29.2131 3.33891C29.2267 3.46091 29.2233 3.55579 29.2029 3.55579C29.1859 3.55579 29.0565 3.48463 28.9134 3.39652C28.7091 3.27453 28.6138 3.23725 28.4674 3.22369C28.2971 3.21014 28.2733 3.21692 28.1779 3.3118C28.0656 3.42363 28.0451 3.56257 28.1132 3.75573C28.1337 3.81673 28.1439 3.87095 28.1371 3.88111C28.1268 3.88789 27.9804 3.81673 27.8102 3.72523C27.4492 3.52529 27.313 3.49141 27.1632 3.56935C26.9861 3.66084 26.9452 3.80317 27.027 4.06749C27.0474 4.14205 27.0542 4.20982 27.044 4.21999C27.0304 4.23354 26.918 4.17932 26.792 4.10477C26.38 3.85739 26.2438 3.82012 26.0701 3.91161C25.9135 3.98955 25.8726 4.13527 25.9373 4.38265C25.9679 4.49787 25.985 4.59614 25.9782 4.60292C25.9713 4.6097 25.8692 4.55209 25.7534 4.47753C25.3414 4.20982 25.0962 4.16238 24.9294 4.31826C24.8442 4.3962 24.8374 4.42331 24.851 4.56564C24.8578 4.65375 24.8851 4.77236 24.9123 4.83335C24.9362 4.89435 24.9464 4.95196 24.9362 4.96213C24.926 4.97229 24.8068 4.91129 24.674 4.82658C24.2279 4.53853 24.0508 4.50464 23.884 4.67069C23.775 4.78252 23.7512 4.9689 23.8261 5.13156C23.8533 5.19595 23.8567 5.22645 23.8261 5.25695C23.7988 5.28406 23.7273 5.25695 23.5571 5.15529C23.2608 4.97568 23.1314 4.93163 22.985 4.95874C22.7602 5.00279 22.6615 5.2705 22.7807 5.50094C22.8352 5.59921 22.8488 5.69071 22.8113 5.69071C22.7977 5.69071 22.6615 5.61277 22.5048 5.51788C22.1269 5.28745 21.9328 5.26034 21.7761 5.41283C21.657 5.53144 21.6433 5.65004 21.7285 5.85676C21.7591 5.93131 21.7761 6.00925 21.7693 6.0262C21.7659 6.04653 21.6229 5.98214 21.456 5.88726C21.061 5.66021 20.8738 5.6331 20.7205 5.78559C20.6047 5.9042 20.5843 6.04992 20.6694 6.21258C20.7273 6.31763 20.7341 6.40235 20.6933 6.40235C20.6763 6.40235 20.5264 6.32779 20.3596 6.23291C19.9884 6.0262 19.8318 6.00925 19.6853 6.16175C19.573 6.27696 19.5593 6.43962 19.6445 6.60906C19.75 6.81916 19.699 6.86322 19.5185 6.72767C19.3142 6.57178 19.0145 6.43623 18.8817 6.43623C18.7046 6.43623 18.6502 6.46334 18.5923 6.57517C18.5276 6.69717 18.5276 6.79205 18.5957 6.99199C18.6263 7.0801 18.6433 7.15804 18.6331 7.16821C18.6263 7.17837 18.4901 7.10721 18.3369 7.01232C17.9112 6.75478 17.7444 6.73106 17.5707 6.90049C17.4685 7.00216 17.4549 7.19532 17.5401 7.35459C17.6422 7.55452 17.5877 7.5613 17.2744 7.3817C17.1144 7.28681 16.9203 7.20209 16.8454 7.19193C16.6751 7.16821 16.5219 7.24615 16.464 7.3817C16.4231 7.48336 16.4402 7.58502 16.5491 7.8324C16.5866 7.9239 16.5015 7.90695 16.3176 7.79174C16.0315 7.61213 15.8919 7.55452 15.7353 7.55452C15.5344 7.55452 15.4833 7.57825 15.422 7.69685C15.3675 7.8019 15.3812 8.0425 15.4459 8.08317C15.4765 8.10011 15.4901 8.26616 15.4595 8.26616C15.4527 8.26616 15.3641 8.21533 15.2654 8.15094C14.7784 7.84257 14.5639 7.79174 14.4073 7.95101C14.2915 8.06623 14.2677 8.1645 14.3187 8.31699C14.3528 8.41866 14.3528 8.45254 14.3153 8.48643C14.2745 8.5271 14.2302 8.51015 14.0463 8.39832C13.9237 8.32716 13.7739 8.24922 13.7126 8.22889C13.5696 8.18144 13.3823 8.21533 13.2938 8.30344C13.212 8.38477 13.2052 8.64231 13.287 8.77786C13.3925 8.95408 13.2972 8.9473 12.9771 8.75414C12.6161 8.53387 12.4527 8.51354 12.279 8.65926C12.1564 8.76092 12.1394 8.92019 12.2245 9.12352C12.2518 9.19129 12.2756 9.25568 12.2756 9.26585C12.2756 9.31668 12.1462 9.26585 11.9317 9.12352C11.7274 8.98797 11.6627 8.96425 11.489 8.95069C11.3119 8.93714 11.2745 8.9473 11.203 9.01169C11.0838 9.12352 11.0668 9.25229 11.1485 9.43528L11.2166 9.58778H11.1349C11.0906 9.58778 10.9476 9.52339 10.8114 9.44884C10.4913 9.26246 10.321 9.24212 10.1712 9.36751C10.0827 9.44206 10.0622 9.48273 10.0622 9.58778C10.0622 9.65894 10.0758 9.75722 10.0963 9.80466C10.1439 9.93343 10.035 9.98426 9.88515 9.90632C9.82385 9.87582 9.76597 9.84532 9.75916 9.83855C9.75575 9.83516 9.80683 9.73688 9.87834 9.62166C9.95325 9.49967 10.0043 9.37767 10.0009 9.31668C10.0009 9.24551 10.018 9.21163 10.0656 9.19807C10.1712 9.16418 10.2665 9.04219 10.2665 8.94052C10.2665 8.8863 10.2155 8.78125 10.1473 8.69315C10.0827 8.60843 10.0452 8.53049 10.0622 8.52032C10.0792 8.51015 10.2665 8.57115 10.4811 8.65248C10.9816 8.85242 11.1042 8.87275 11.2302 8.77448C11.3596 8.67281 11.3528 8.53726 11.203 8.33055C11.094 8.17805 11.0906 8.1645 11.1553 8.1645C11.1927 8.1645 11.363 8.2255 11.5367 8.29666C11.7103 8.37121 11.9147 8.44577 11.993 8.4661C12.3267 8.55421 12.5072 8.28988 12.2994 8.01539C12.2484 7.95101 12.2075 7.89001 12.2075 7.87984C12.2075 7.83579 12.3539 7.86629 12.6638 7.97812C13.0486 8.11706 13.2631 8.13061 13.3653 8.02895C13.4572 7.93745 13.4504 7.79513 13.3482 7.65619C13.2631 7.54097 13.2393 7.45286 13.2904 7.45286C13.304 7.45286 13.5015 7.51386 13.7228 7.58841C14.1893 7.74429 14.2438 7.75107 14.3664 7.6528C14.4788 7.56469 14.4856 7.39864 14.3834 7.26987C14.3426 7.21904 14.3221 7.16821 14.3324 7.15804C14.346 7.14448 14.5264 7.18515 14.7376 7.24954C15.2484 7.40203 15.3028 7.40542 15.4186 7.31731C15.5344 7.22581 15.5446 7.05299 15.439 6.90388C15.3982 6.84966 15.3743 6.79544 15.3846 6.78528C15.3948 6.77511 15.5684 6.82255 15.7728 6.88694C16.2699 7.0496 16.3755 7.06654 16.481 6.99877C16.5287 6.96488 16.5832 6.90388 16.6002 6.85644C16.6411 6.75478 16.6104 6.69039 16.4334 6.47351C16.338 6.35829 16.3244 6.32779 16.3789 6.34474C16.6751 6.43623 17.2302 6.57178 17.2983 6.57178C17.3426 6.57178 17.4209 6.53451 17.4754 6.49045C17.5639 6.41251 17.5673 6.40235 17.5332 6.2363C17.506 6.09736 17.506 6.06347 17.5435 6.06347C17.5673 6.06347 17.7512 6.11091 17.9521 6.16513C18.3948 6.29052 18.4867 6.29052 18.5923 6.18208C18.7012 6.07703 18.6978 5.97536 18.5889 5.81609C18.5412 5.74493 18.5105 5.67715 18.5174 5.66699C18.5276 5.65682 18.7012 5.70087 18.9055 5.75848C19.3687 5.89742 19.5457 5.90759 19.6343 5.79576C19.7228 5.68732 19.716 5.56532 19.6104 5.41622C19.4912 5.24339 19.5219 5.21289 19.7534 5.26711C19.9067 5.301 19.9748 5.34167 20.0735 5.45011C20.2097 5.59582 20.3459 5.6331 20.4549 5.54499C20.5366 5.48061 20.6286 5.16545 20.6013 5.04346C20.5775 4.9384 20.5809 4.93502 20.6728 4.95535C20.7273 4.9689 20.9487 5.00957 21.1666 5.05362C21.5514 5.12479 21.5684 5.12479 21.657 5.06718C21.7489 5.00618 21.7489 4.99601 21.7319 4.7893C21.7148 4.63003 21.7217 4.57242 21.7523 4.57242C21.7761 4.57242 21.9396 4.6097 22.1167 4.65714C22.5321 4.76558 22.6411 4.76558 22.7466 4.65714C22.893 4.51481 22.8624 4.4267 22.5525 4.11155C22.2835 3.83367 22.212 3.71168 22.4572 3.93872C22.6274 4.10138 23.0224 4.33859 23.1552 4.35893C23.2744 4.37926 23.3085 4.35554 23.489 4.11833C23.5945 3.98278 23.6456 3.96922 23.7682 4.05055C23.8227 4.08444 23.884 4.09799 23.9384 4.08444C24.027 4.06072 24.1359 3.89467 24.1189 3.79978C24.0985 3.6744 24.1496 3.66762 24.5071 3.74895C25.1132 3.8845 25.2392 3.85061 25.2563 3.54563C25.2699 3.33213 25.2665 3.33213 25.7841 3.46768C26.145 3.55918 26.2029 3.55579 26.3323 3.44396C26.4208 3.36263 26.4242 3.30164 26.3561 3.13559L26.3051 3.01359H26.414C26.4753 3.01359 26.6388 3.04409 26.7784 3.08137C27.1223 3.17286 27.2415 3.16947 27.3471 3.06442C27.4254 2.98648 27.4322 2.95937 27.4118 2.80688C27.3879 2.64761 27.3913 2.63405 27.4492 2.65438C27.4867 2.66455 27.6433 2.70521 27.8034 2.74249C28.4299 2.88821 28.6002 2.79671 28.464 2.37312C28.4401 2.29179 28.4435 2.29179 28.59 2.31212C28.6717 2.32567 28.8692 2.35956 29.0258 2.38667C29.2574 2.42734 29.3255 2.43073 29.397 2.39345C29.5162 2.33923 29.5672 2.1969 29.5162 2.06474C29.4957 2.00713 29.4889 1.9563 29.506 1.94613C29.5196 1.93597 29.683 1.95969 29.8635 1.99696C30.4049 2.10879 30.5956 2.07491 30.5956 1.87158C30.5956 1.66826 30.6501 1.65809 31.0792 1.75975C31.4129 1.83769 31.6138 1.84447 31.7057 1.78008C31.7568 1.73942 31.7704 1.69537 31.7636 1.54626L31.7534 1.35988L31.9577 1.40732C32.2642 1.47849 32.9384 1.55982 33.0303 1.53609C33.0882 1.52254 33.1223 1.4751 33.1563 1.37682C33.2074 1.21416 33.2108 1.21416 33.6194 1.28872C33.9191 1.34294 34.0281 1.30227 34.0894 1.11589C34.1404 0.970172 34.1745 0.966783 34.7295 1.09556C35.2131 1.20738 35.305 1.19044 35.3697 0.97695C35.4174 0.817678 35.4242 0.817678 35.8465 0.929507C36.0201 0.97695 36.2551 1.01423 36.3709 1.01423H36.5786L36.6331 0.878676C36.6978 0.712627 36.7216 0.709238 37.2017 0.844788C37.6614 0.973561 37.8589 0.980338 37.9372 0.861732C38.0326 0.716015 38.0973 0.699072 38.3152 0.777013C38.574 0.868509 39.0542 0.980338 39.1767 0.980338C39.2414 0.980338 39.3232 0.939673 39.3981 0.871898L39.5207 0.766847L40.0961 0.912563C40.7295 1.07183 40.8283 1.06845 40.91 0.888842C40.9645 0.770235 40.9304 0.682128 40.7602 0.51269C40.6035 0.363585 40.5593 0.35003 40.372 0.40425C40.2426 0.441526 40.2426 0.441526 39.4253 0.221257C39.1052 0.136538 38.8158 0.0653743 38.7885 0.0653743C38.7579 0.0653743 38.6932 0.109428 38.6421 0.167037C38.5263 0.299198 38.4514 0.29581 37.9577 0.146704C37.7397 0.0823181 37.4809 0.0179317 37.3856 0.00776546C37.229 -0.00917832 37.2051 -0.00240081 37.1472 0.0755406ZM37.0281 3.47785C37.6614 4.05055 38.2097 4.55548 38.5979 4.92824C39.364 5.66021 40.5388 6.82594 40.5388 6.85305C40.5388 6.9276 40.4026 6.82594 39.9361 6.40235C38.4719 5.07057 36.6194 3.29825 36.6228 3.22369C36.6228 3.13898 36.708 3.18981 37.0281 3.47785ZM35.3357 3.25419C35.3765 3.27453 35.4378 3.32875 35.4787 3.36941C35.5196 3.41346 35.7579 3.63035 36.0099 3.85061C36.2619 4.07427 36.6296 4.40637 36.8271 4.58936C37.4946 5.21289 39.8578 7.52741 39.8578 7.55791C39.8578 7.65619 39.8169 7.61891 37.8657 5.82965C36.7318 4.7893 35.2267 3.32197 35.2267 3.25758C35.2267 3.20675 35.2471 3.20675 35.3357 3.25419ZM33.0235 3.74895C33.6297 4.26404 34.086 4.68764 35.3459 5.89742C36.8169 7.31053 37.6785 8.17128 37.6785 8.22889C37.6785 8.25261 37.6614 8.25939 37.6308 8.24244C37.5695 8.20516 35.9146 6.70395 34.9713 5.82287C34.1711 5.07734 32.6898 3.6134 32.6353 3.51174C32.5672 3.38974 32.6864 3.46091 33.0235 3.74895ZM34.3822 3.71506C35.1007 4.32165 35.826 4.9994 36.9702 6.12786C37.641 6.78867 38.1824 7.33425 38.1722 7.34442C38.1552 7.36475 37.1813 6.51756 36.4526 5.8432C35.4412 4.91129 33.977 3.45413 34.0519 3.45413C34.0621 3.45413 34.212 3.57274 34.3822 3.71506ZM38.8362 3.87434C39.473 4.4267 40.7465 5.64665 40.8896 5.8432C40.9781 5.9652 40.7602 5.78559 40.0144 5.10784C39.5036 4.65036 38.3288 3.48802 38.4276 3.54224C38.4548 3.55579 38.6387 3.7049 38.8362 3.87434ZM40.0791 3.69134C40.1813 3.80317 40.12 3.84045 40.0008 3.74217C39.9395 3.69134 39.8918 3.64051 39.8918 3.62357C39.8918 3.57951 40.0178 3.62357 40.0791 3.69134ZM32.0939 4.25049C32.775 4.82319 33.5854 5.57888 34.7772 6.75478C35.4549 7.42575 36.0099 7.98828 36.0099 8.00523C36.0099 8.03912 35.7783 7.83918 34.6478 6.82933C33.8374 6.10753 32.1314 4.45381 31.8079 4.08105C31.6104 3.85061 31.6376 3.86756 32.0939 4.25049ZM40.423 4.00989C40.5593 4.12849 40.5627 4.20304 40.4299 4.14205C40.3481 4.10477 40.2051 3.89467 40.2596 3.89467C40.2766 3.89467 40.3481 3.9455 40.423 4.00989ZM31.3277 4.82996C32.4072 5.79237 35.1961 8.50338 35.1041 8.50338C35.0326 8.50338 34.5048 8.04928 33.4049 7.04621C32.6864 6.39218 30.5752 4.30471 30.456 4.13188L30.3743 4.01327L30.5207 4.12849C30.6024 4.18949 30.9668 4.50803 31.3277 4.82996ZM40.9781 4.52837C41.288 4.8198 41.4276 4.97907 41.3731 4.97907C41.3118 4.97907 40.5729 4.29115 40.5729 4.23354C40.5729 4.15899 40.6478 4.21321 40.9781 4.52837ZM29.6081 4.60292C29.8771 4.82319 30.3096 5.20951 31.1064 5.94487C31.9849 6.75478 34.0213 8.7677 33.9906 8.79481C33.9497 8.83886 33.0848 8.09334 31.9441 7.03266C31.1575 6.30068 29.3902 4.54192 29.3357 4.43687C29.2846 4.33859 29.2812 4.33521 29.6081 4.60292ZM29.0531 5.38233C29.6047 5.87709 31.2835 7.47319 31.9543 8.14417C32.2165 8.4051 32.3663 8.57793 32.3493 8.60504C32.3323 8.62876 32.2233 8.54743 32.0292 8.36105C31.8692 8.20516 31.5286 7.89679 31.2767 7.67313C30.17 6.69039 28.4061 4.99262 28.4367 4.9384C28.4742 4.87741 28.5559 4.93502 29.0531 5.38233ZM27.9157 5.69071C29.0565 6.7175 31.0213 8.62537 30.9702 8.65587C30.9293 8.67959 30.9259 8.6762 29.8941 7.74091C28.8045 6.75478 27.2585 5.26711 27.2585 5.20951C27.2585 5.12479 27.4083 5.23323 27.9157 5.69071ZM26.6013 5.81609C26.6898 5.9042 26.9691 6.15836 27.2211 6.38201C27.7761 6.87677 29.2812 8.3441 29.4787 8.58471L29.6251 8.75753L29.3868 8.55421C29.036 8.25939 28.3107 7.61213 27.9566 7.28681C27.3028 6.68023 26.2029 5.57888 26.2233 5.55177C26.2472 5.5111 26.3902 5.61277 26.6013 5.81609ZM4.6241 5.98553C4.60027 5.99231 4.55259 5.99231 4.52195 5.98553C4.48789 5.97536 4.50833 5.96859 4.56281 5.96859C4.6207 5.96859 4.64453 5.97536 4.6241 5.98553ZM25.9169 6.51418C27.1836 7.65958 28.91 9.34718 28.8658 9.39123C28.8453 9.41156 28.7194 9.31668 28.5321 9.14046C28.3652 8.98458 28.0758 8.72026 27.8885 8.55421C26.6013 7.40203 25.1269 5.96181 25.2358 5.96181C25.2767 5.96181 25.5389 6.17191 25.9169 6.51418ZM9.06109 6.53112C9.136 6.56162 9.24837 6.62939 9.30626 6.68023L9.41523 6.77172V8.05267V9.33701L9.30967 9.43867C9.21432 9.53017 9.18708 9.53695 8.95553 9.53695C8.76143 9.53695 8.69333 9.52339 8.63884 9.47595C8.52307 9.3709 8.45496 9.1879 8.41069 8.85242C8.35281 8.46271 8.31194 8.33055 8.17233 8.11028C8.04634 7.91712 7.93737 7.82901 7.71263 7.74429C7.57301 7.69346 7.41297 7.68669 6.25179 7.69685L4.9476 7.70702L4.8863 7.78496C4.78415 7.90695 4.76712 8.22211 4.76712 9.7911V11.2652L5.15872 11.255C5.91468 11.2381 6.41184 11.0992 6.55145 10.8721C6.58891 10.8145 6.62637 10.6654 6.63999 10.5434C6.67063 10.2554 6.77279 9.92665 6.85792 9.83516C7.00094 9.68266 7.41978 9.69622 7.58323 9.85888L7.67857 9.95376V11.865V13.7763L7.57982 13.8712C7.52193 13.9254 7.44021 13.9728 7.39254 13.9762C7.34486 13.983 7.29038 13.9965 7.26995 14.0101C7.24611 14.0237 7.11671 14.0135 6.9771 13.9898C6.78641 13.9559 6.70468 13.9254 6.64339 13.861C6.54464 13.7526 6.4527 13.4611 6.4527 13.2442C6.4527 12.7427 6.28244 12.5021 5.88403 12.4377C5.75804 12.414 5.45497 12.4038 5.2098 12.4072L4.76712 12.4174V14.2304C4.76712 15.9756 4.76372 16.0535 4.69561 16.2806C4.52535 16.8397 4.21548 17.2057 3.67405 17.4937L3.49698 17.5852H2.33921C1.53217 17.5852 1.15079 17.5717 1.0929 17.5446C0.956695 17.487 0.895401 17.3582 0.87497 17.1142C0.861349 16.9109 0.868159 16.8838 0.946479 16.8058C1.06566 16.6872 1.31424 16.6059 1.77054 16.5347C1.98847 16.5042 2.19619 16.4534 2.24727 16.4195C2.36986 16.3382 2.5265 15.9925 2.57076 15.7045C2.5946 15.5452 2.60482 14.3015 2.598 11.8921L2.58779 8.31699L2.51287 8.11706C2.42774 7.8934 2.28132 7.66974 2.19279 7.6223C2.16214 7.60197 1.92037 7.54436 1.65817 7.49014C1.03161 7.36136 0.990747 7.33764 0.939669 7.09365C0.885185 6.82255 0.891996 6.76494 0.977126 6.6565C1.12696 6.46334 0.939669 6.47351 5.09062 6.47351C8.6116 6.47351 8.93169 6.4769 9.06109 6.53112ZM24.8068 6.86661C25.2358 7.23598 25.8079 7.76124 25.8283 7.80868C25.8385 7.82562 25.8147 7.84596 25.7738 7.85273C25.6955 7.8629 24.9736 7.19532 24.5514 6.72089C24.2892 6.42607 24.296 6.42946 24.8068 6.86661ZM52.0212 6.57856C52.0893 6.60906 52.1608 6.66328 52.1812 6.70056C52.2085 6.748 52.2187 8.20855 52.2187 11.5261C52.2187 16.7414 52.2255 16.5584 52.0144 16.9244C51.8816 17.1583 51.6841 17.3311 51.4048 17.4599L51.1801 17.5683L50.3458 17.5988C49.5797 17.6259 49.5013 17.6259 49.4196 17.5717C49.2902 17.487 49.2119 17.3006 49.2323 17.121C49.2596 16.8736 49.4503 16.7347 49.8725 16.6533C50.1551 16.6025 50.2505 16.5449 50.3254 16.3856C50.3765 16.2772 50.3799 15.9281 50.3731 12.0378C50.3628 7.24615 50.3833 7.58163 50.1006 7.53758C49.8963 7.50369 49.6784 7.40542 49.6341 7.32409C49.6137 7.28342 49.5967 7.15804 49.5967 7.03604C49.5967 6.85644 49.6103 6.809 49.675 6.748C49.8725 6.56501 50.2539 6.50401 51.1631 6.51418C51.7454 6.52434 51.9224 6.5379 52.0212 6.57856ZM23.3902 6.86661C23.758 7.19193 24.2756 7.66635 24.548 7.93068C24.8136 8.18822 24.8476 8.23228 24.8102 8.27972C24.7693 8.32716 24.7353 8.30683 24.5207 8.10689C23.8329 7.46303 23.1382 6.79205 23.1382 6.76833C23.1382 6.70395 23.2608 6.75139 23.3902 6.86661ZM40.6546 6.93099C40.7091 6.95133 40.7329 7.04621 40.6818 7.04621C40.6478 7.04621 40.5729 6.97166 40.5729 6.93777C40.5729 6.90388 40.5831 6.90388 40.6546 6.93099ZM22.985 7.84257C23.6967 8.45932 24.4322 9.17774 24.4322 9.25229C24.4322 9.28618 24.422 9.31668 24.4084 9.31668C24.3573 9.31668 24.2619 9.20146 24.2619 9.13707C24.2619 9.08624 24.2517 9.07946 24.2143 9.10996C24.1768 9.14385 23.9861 8.97441 23.2268 8.22889C22.7092 7.72396 22.2869 7.29359 22.2869 7.27665C22.2869 7.23937 22.3516 7.2902 22.985 7.84257ZM21.531 7.81546C22.8454 9.01169 24.0236 10.1537 24.0236 10.2384C24.0236 10.2723 24.01 10.2994 23.9963 10.2994C23.9384 10.2994 21.1291 7.6223 21.1291 7.56469C21.1291 7.47319 21.2143 7.52741 21.531 7.81546ZM20.6728 8.39155C21.0679 8.73042 22.0145 9.59794 22.0043 9.6115C21.9975 9.61489 21.9362 9.60472 21.8613 9.58778C21.7489 9.56406 21.6127 9.44206 20.9623 8.79142C20.54 8.36783 20.2234 8.03912 20.2608 8.05945C20.2983 8.07978 20.4856 8.22889 20.6728 8.39155ZM7.60366 8.38477C7.62409 8.43221 7.63771 8.46949 7.6309 8.46949C7.59004 8.46949 7.16779 8.32716 7.16779 8.31699C7.16779 8.30683 7.25633 8.30005 7.3653 8.30005C7.54577 8.30005 7.56961 8.30683 7.60366 8.38477ZM19.8215 8.91003C20.3459 9.39123 20.3868 9.43528 20.3017 9.44545C20.22 9.45562 20.128 9.38106 19.6649 8.94052C19.3652 8.65926 19.1201 8.41527 19.1201 8.40171C19.1201 8.35766 19.1643 8.33733 19.2052 8.36105C19.229 8.3746 19.5083 8.62198 19.8215 8.91003ZM26.1757 8.4661C26.288 8.47965 26.414 8.52032 26.4651 8.56098L26.5605 8.62876L26.5775 9.40478L26.5945 10.1808L27.4696 10.1978L28.3482 10.2147L28.4401 10.3096C28.5321 10.3977 28.5355 10.418 28.5355 10.74C28.5355 11.0754 28.5355 11.0788 28.4231 11.1873L28.3141 11.2991L27.4424 11.3093L26.5707 11.3194L26.5877 13.4272C26.6013 15.2301 26.6115 15.5655 26.6592 15.7485C26.775 16.1925 26.9486 16.3992 27.2108 16.3992C27.4458 16.3992 27.8272 16.3111 28.1541 16.1789C28.4912 16.0434 28.5831 16.0467 28.7704 16.2026C28.8862 16.2975 28.893 16.3145 28.893 16.5076V16.7143L28.6581 16.9414C28.3822 17.2057 28.0451 17.4158 27.7352 17.5107C27.473 17.5954 26.7205 17.6666 26.4447 17.6361C26.1723 17.6056 25.7841 17.4971 25.5832 17.3955C25.3414 17.2735 25.0792 16.999 24.9498 16.7381C24.7319 16.3009 24.7353 16.3517 24.7455 12.8647C24.7557 9.71316 24.7557 9.70638 24.834 9.43867C25.0451 8.69653 25.2869 8.43221 25.7602 8.43899C25.8828 8.43899 26.0701 8.45254 26.1757 8.4661ZM6.76938 8.91341C6.94986 9.08285 7.09969 9.23535 7.09969 9.25229C7.09969 9.26923 7.00094 9.28279 6.87835 9.28279C6.6468 9.28279 6.50037 9.33362 6.36076 9.46239L6.28584 9.53017L5.95894 9.23196C5.77506 9.06252 5.63545 8.91003 5.63545 8.87275C5.63545 8.8287 5.67631 8.80159 5.78187 8.77448C5.86019 8.75414 6.01683 8.71009 6.1292 8.6762C6.24158 8.63893 6.35735 8.61182 6.3846 8.60843C6.41184 8.60843 6.5855 8.74398 6.76938 8.91341ZM2.26429 8.7982C2.26429 8.9168 2.25408 8.9473 2.23024 8.91003C2.17576 8.82531 2.19279 8.63893 2.25408 8.63893C2.26089 8.63893 2.26429 8.71009 2.26429 8.7982ZM18.8511 9.37429C19.1133 9.60811 19.321 9.80466 19.3108 9.81482C19.3005 9.82499 19.2495 9.80127 19.195 9.7606C19.1371 9.71994 19.0724 9.68944 19.0452 9.68944C19.0043 9.68944 18.4254 9.12352 18.1836 8.84564L18.0815 8.72703L18.2279 8.84225C18.3096 8.90325 18.5889 9.14385 18.8511 9.37429ZM27.3436 9.28957C27.5037 9.45562 27.4594 9.43867 27.2517 9.25229C27.17 9.18113 27.1291 9.11335 27.1666 9.11335C27.17 9.11335 27.2517 9.19129 27.3436 9.28957ZM16.0043 9.4014C16.1473 9.53017 16.1609 9.55389 16.0962 9.55389C16.0213 9.55389 15.7489 9.33701 15.7489 9.2794C15.7489 9.21501 15.8409 9.25907 16.0043 9.4014ZM17.3834 9.38445C17.4651 9.459 17.5264 9.52678 17.5128 9.53695C17.5026 9.54711 17.4209 9.48611 17.3289 9.40478C17.1246 9.2184 17.1723 9.20146 17.3834 9.38445ZM15.2824 10.1503C15.2586 10.2113 15.2347 10.1944 14.9078 9.86904C14.5367 9.50306 14.5946 9.45562 14.9793 9.80805C15.1905 9.99782 15.296 10.1164 15.2824 10.1503ZM50.0394 9.67588C50.0394 9.70299 50.0223 9.71655 50.0053 9.70638C49.9849 9.69283 49.9781 9.66911 49.9883 9.65216C50.0189 9.60472 50.0394 9.61489 50.0394 9.67588ZM13.3108 10.0961C13.5321 10.1503 13.8079 10.2418 13.9237 10.296C14.6627 10.6349 15.1939 11.1873 15.5787 12.0107C15.691 12.2547 15.7353 12.414 15.8034 12.8071C15.9907 13.8678 15.8306 15.0132 15.3846 15.8231C15.1768 16.1959 14.7648 16.6703 14.4549 16.8872C13.7909 17.3514 13.1814 17.5547 12.2518 17.6157C11.6422 17.6598 11.2064 17.6191 10.7501 17.4768C9.59911 17.1278 8.8057 16.1789 8.50604 14.8065C8.39367 14.2778 8.36302 13.4137 8.44134 12.9291C8.63884 11.7464 9.24837 10.9297 10.3857 10.3333C10.9271 10.0486 11.4209 9.95715 12.2756 9.97748C12.8409 9.98765 12.9464 10.0012 13.3108 10.0961ZM21.9226 10.0724C22.3142 10.2079 22.4708 10.296 22.7398 10.5366C23.0054 10.7772 23.2642 11.2008 23.38 11.5871C23.5366 12.109 23.5468 12.3022 23.5468 15.02V17.5886L22.8726 17.5785C22.2154 17.5683 22.1916 17.5649 22.0724 17.4836C21.9157 17.3785 21.7591 17.0939 21.7114 16.8262C21.6876 16.694 21.674 15.9214 21.674 14.6574C21.674 13.573 21.657 12.5733 21.6399 12.4343C21.582 12.0107 21.4833 11.7667 21.2858 11.5702C21.061 11.3465 20.9078 11.3025 20.4413 11.3228C20.1246 11.3398 20.0667 11.3533 19.8454 11.4651C19.3652 11.7024 19.0077 12.2005 18.9668 12.6851C18.9566 12.7969 18.9362 13.6475 18.9192 14.5692C18.8953 16.0976 18.8851 16.267 18.8238 16.4873C18.6502 17.0905 18.3505 17.3751 17.7069 17.548C17.632 17.5683 17.2574 17.5852 16.8624 17.5852C16.2631 17.5852 16.1405 17.5751 16.069 17.531C15.9498 17.4531 15.8851 17.3108 15.8851 17.1311C15.8851 16.8567 16.0928 16.6974 16.5832 16.6025C16.7977 16.5584 16.9135 16.4805 16.9952 16.3246C17.0701 16.1823 17.0667 11.987 16.9884 11.6583C16.8965 11.2517 16.6819 11.0111 16.4061 11.0111C15.9634 11.0077 15.7523 10.7332 15.8987 10.3536C15.9464 10.2316 15.9873 10.1876 16.1031 10.1334C16.2393 10.0656 16.304 10.0622 17.3936 10.0622C18.6127 10.0622 18.6876 10.069 18.8272 10.2283C18.8681 10.2723 18.8987 10.3672 18.9089 10.4858C18.9158 10.5875 18.9294 10.6722 18.9362 10.6722C18.943 10.6722 19.0418 10.6044 19.1609 10.5231C19.4402 10.3299 19.7194 10.1944 20.0565 10.0859C20.4106 9.97071 20.4345 9.96732 21.0951 9.97748C21.6059 9.98087 21.6808 9.99104 21.9226 10.0724ZM33.5445 10.0724C33.9395 10.1808 34.2017 10.3028 34.4537 10.496C34.8555 10.801 35.1177 11.2313 35.2301 11.7735C35.288 12.0548 35.2914 12.2852 35.2948 14.8302V17.5852H34.9951C34.4912 17.5852 34.1915 17.4599 33.8306 17.0939C33.7284 16.9922 33.6331 16.9075 33.6228 16.9075C33.6092 16.9075 33.5071 16.9651 33.3981 17.0363C32.5468 17.592 31.2222 17.7513 30.439 17.3853C30.1734 17.2633 29.8567 16.9719 29.6898 16.6974C29.4447 16.2941 29.3732 15.4707 29.5366 14.942C29.8635 13.8949 31.0213 13.2612 32.826 13.146C33.1257 13.129 33.3879 13.1121 33.4117 13.1121C33.4458 13.1121 33.456 13.0003 33.456 12.6546C33.456 11.7125 33.2483 11.2279 32.7443 11.0009C32.6183 10.9399 32.5264 10.9297 32.2608 10.9297C31.8862 10.9331 31.6546 10.9975 31.481 11.1432C31.3686 11.2347 31.3618 11.2517 31.3652 11.438C31.3686 11.5702 31.3992 11.7125 31.4605 11.8549C31.5082 11.9768 31.5491 12.1327 31.5491 12.2073C31.5491 12.5936 30.9702 12.9765 30.4458 12.9359C30.1938 12.9155 30.0576 12.8511 29.8805 12.6682C29.7001 12.4818 29.6592 12.3462 29.6592 11.9091C29.6592 11.5533 29.666 11.5228 29.7716 11.3093C29.9827 10.8823 30.6739 10.3469 31.2733 10.1503C31.7296 9.99782 32.0224 9.96054 32.6558 9.9741C33.1461 9.98426 33.2823 10.0012 33.5445 10.0724ZM41.3254 10.0927C41.6251 10.2147 41.8498 10.4112 41.969 10.6383C42.078 10.8484 42.0882 11.4279 41.986 11.638C41.717 12.187 40.8112 12.3632 40.4401 11.9396C40.3822 11.8752 40.3277 11.7701 40.3175 11.699C40.3073 11.6278 40.28 11.4923 40.2562 11.4008L40.2153 11.2313L40.0212 11.2212C39.8646 11.2144 39.8033 11.2279 39.6977 11.2923C39.5002 11.4177 39.364 11.5905 39.2108 11.9057C38.9656 12.4208 38.969 12.3733 38.9758 14.3829C38.9792 15.369 38.969 16.223 38.9554 16.2806C38.7954 16.9617 38.557 17.2667 38.0292 17.4734C37.8044 17.5615 37.7704 17.5649 37.0144 17.5785C36.2449 17.5886 36.2278 17.5886 36.1325 17.5141C35.9452 17.3684 35.8907 17.1074 36.0099 16.9177C36.095 16.7787 36.2755 16.6872 36.6296 16.6059C36.9395 16.5347 37.0349 16.4568 37.0996 16.2297C37.1438 16.0806 37.1438 12.8003 37.0996 12.1293C37.0655 11.5668 36.9906 11.272 36.8612 11.1771C36.8135 11.1432 36.6331 11.0856 36.456 11.0449C36.2789 11.0077 36.1018 10.9568 36.0576 10.9263C36.0167 10.8992 35.9554 10.801 35.9248 10.7027C35.8465 10.4722 35.8907 10.3062 36.0678 10.174L36.1904 10.0791L37.3345 10.069C38.2029 10.0622 38.4991 10.0724 38.5604 10.1029C38.7 10.1774 38.7817 10.3231 38.8022 10.5299L38.8192 10.7196L39.0405 10.5231C39.2925 10.296 39.7011 10.0859 40.028 10.0114C40.1745 9.97748 40.389 9.96393 40.658 9.97071C41.0292 9.98087 41.0905 9.99104 41.3254 10.0927ZM46.2528 10.0012C46.6648 10.0656 47.2505 10.296 47.4378 10.4722C47.4752 10.5061 47.5195 10.5366 47.5331 10.5366C47.5638 10.5366 47.9349 10.9229 48.0609 11.0822C48.2005 11.2584 48.4934 11.8955 48.5853 12.2141C48.633 12.3801 48.6841 12.658 48.6977 12.8308C48.7181 13.1256 48.7147 13.1527 48.6296 13.3256C48.5785 13.434 48.507 13.5221 48.4559 13.5458C48.3912 13.5763 47.7783 13.5865 46.2085 13.5865H44.0462V13.7288C44.0462 13.8102 44.0768 14.0677 44.1109 14.3015C44.2573 15.2707 44.7068 15.8468 45.5343 16.1145C45.7522 16.1857 45.8509 16.1959 46.2732 16.1959C47.0428 16.1959 47.5706 16.0705 47.9962 15.7892C48.2652 15.6096 48.4457 15.6672 48.6228 15.9891L48.7181 16.1654L48.5887 16.3585C48.1256 17.0532 47.4718 17.4158 46.4332 17.5547C46.0655 17.6056 45.2516 17.5751 44.8703 17.5005C43.1438 17.165 42.1325 15.8909 42.0473 13.9423C41.986 12.5495 42.507 11.4245 43.5831 10.6281C44.0734 10.2621 44.3969 10.1232 44.9962 10.0114C45.2789 9.96054 45.9497 9.95376 46.2528 10.0012ZM5.88403 10.1673C5.95213 10.2045 6.01002 10.2452 6.01002 10.2588C6.01002 10.3164 5.93851 10.5366 5.91808 10.5366C5.87381 10.5366 5.50265 10.1096 5.49924 10.0554C5.49924 10.0012 5.50946 10.0012 5.62864 10.052C5.69674 10.0791 5.81252 10.1334 5.88403 10.1673ZM8.94872 10.1978C9.06109 10.1978 9.08152 10.2113 9.1326 10.3164C9.16324 10.3807 9.18027 10.4417 9.17006 10.4519C9.15984 10.4621 9.02023 10.3943 8.86018 10.2994C8.69673 10.2045 8.51966 10.1096 8.46177 10.0927C8.40729 10.0724 8.35962 10.0419 8.35962 10.0283C8.35962 10.0148 8.46177 10.0453 8.59117 10.0995C8.71716 10.1537 8.87721 10.1978 8.94872 10.1978ZM15.3641 10.2723C15.3539 10.296 15.3471 10.2791 15.3471 10.2316C15.3471 10.1842 15.3539 10.1673 15.3641 10.1876C15.3709 10.2113 15.3709 10.252 15.3641 10.2723ZM2.16214 10.5061C2.16214 10.5468 2.14171 10.5604 2.09403 10.5468C2.04636 10.5332 2.02593 10.4994 2.02593 10.4248C2.02593 10.3265 2.02593 10.3231 2.09403 10.3841C2.13149 10.418 2.16214 10.4722 2.16214 10.5061ZM6.04407 10.5502C6.04407 10.5841 5.93511 10.6722 5.89765 10.6722C5.87381 10.6722 5.89425 10.6417 5.94192 10.6044C6.03045 10.5332 6.04407 10.5265 6.04407 10.5502ZM16.2256 12.3496C16.3244 12.4513 16.4027 12.5428 16.3925 12.5495C16.3687 12.5733 16.0622 12.3056 16.0213 12.2276C15.9566 12.1124 16.035 12.1598 16.2256 12.3496ZM40.8385 13.1934C41.6523 13.922 41.6966 13.966 41.6966 14.0813V14.2033L41.465 13.9965C41.162 13.7288 39.6637 12.1836 39.8408 12.3225C39.9157 12.3801 40.3652 12.7732 40.8385 13.1934ZM49.6648 12.4072C49.7976 12.4479 49.8384 12.5089 49.7669 12.5529C49.7091 12.5868 49.7295 12.6309 49.8078 12.6444C49.9202 12.6614 49.927 12.7393 49.8146 12.7393C49.7227 12.7393 49.7227 12.7393 49.784 12.8139C49.8146 12.8579 49.7431 12.7834 49.6171 12.6546C49.4945 12.5224 49.3924 12.4072 49.3924 12.3903C49.3924 12.353 49.5115 12.3598 49.6648 12.4072ZM41.683 12.6478C41.7579 12.7156 41.7851 12.7664 41.7715 12.8139C41.7579 12.8715 41.7341 12.8579 41.574 12.702C41.4514 12.58 41.4037 12.5157 41.431 12.4987C41.4753 12.4716 41.5195 12.4953 41.683 12.6478ZM36.2278 12.8579C36.4424 13.0477 36.5173 13.1358 36.5275 13.2137C36.5377 13.268 36.5343 13.3154 36.5241 13.3154C36.4832 13.3154 35.8737 12.6885 35.8737 12.6478C35.8737 12.5631 35.9418 12.6038 36.2278 12.8579ZM40.12 13.8441C41.2982 14.9183 42.0303 15.6435 42.1257 15.8333C42.1733 15.9247 42.1972 15.9959 42.1767 15.9891C42.1154 15.9654 41.3118 15.2334 40.5559 14.5049C39.4594 13.451 39.347 13.3324 39.347 13.2476C39.347 13.207 39.3606 13.1799 39.3777 13.1866C39.3947 13.19 39.7284 13.4882 40.12 13.8441ZM1.86929 13.434C1.97145 13.4781 1.99188 13.5018 1.99188 13.5865C1.99188 13.6441 1.97826 13.6882 1.96464 13.6882C1.95102 13.6882 1.86929 13.6204 1.78757 13.5357C1.62752 13.373 1.65136 13.3425 1.86929 13.434ZM49.5115 13.8542C49.5218 13.8712 49.515 13.8949 49.4979 13.9051C49.4809 13.9152 49.4605 13.9017 49.4468 13.8746C49.4264 13.8203 49.4775 13.8034 49.5115 13.8542ZM36.2278 14.2067C36.4764 14.4337 36.5207 14.4879 36.5207 14.5794C36.5207 14.6845 36.5139 14.6811 36.1972 14.3659C36.0201 14.1897 35.8737 14.0169 35.8737 13.983C35.8737 13.8915 35.9009 13.9118 36.2278 14.2067ZM50.0394 14.0135C50.0394 14.0406 50.0223 14.0542 50.0053 14.044C49.9849 14.0304 49.9781 14.0067 49.9883 13.9898C50.0189 13.9423 50.0394 13.9525 50.0394 14.0135ZM49.7363 14.0372C49.8044 14.088 49.9372 14.2981 49.9372 14.3558C49.9372 14.454 49.835 14.3896 49.7193 14.2202C49.6512 14.1219 49.5967 14.0304 49.5967 14.0169C49.5967 13.9796 49.675 13.9898 49.7363 14.0372ZM8.05315 14.1897V14.2744L7.96802 14.1965C7.90332 14.1355 7.8931 14.1084 7.92034 14.0711C7.97483 14.0067 8.05315 14.0779 8.05315 14.1897ZM45.5479 14.898C45.9974 15.3385 46.3617 15.7113 46.3617 15.7282C46.3617 15.8299 46.1608 15.6943 45.6909 15.2741C44.809 14.4845 44.6251 14.2981 44.6251 14.1897C44.6251 14.1253 44.6421 14.0948 44.6796 14.0948C44.7102 14.0948 45.1018 14.4574 45.5479 14.898ZM46.7635 14.7184C47.1585 15.1047 47.3833 15.3554 47.3697 15.3792C47.3424 15.4232 47.2096 15.3148 46.4264 14.6099C46.171 14.3829 45.9633 14.1728 45.9633 14.1457C45.9633 14.1152 45.9974 14.0948 46.0519 14.0948C46.1166 14.0948 46.2834 14.2371 46.7635 14.7184ZM47.7579 14.3558C47.9213 14.5218 47.9417 14.5523 47.843 14.4778C47.5842 14.2778 47.4344 14.1321 47.4854 14.1287C47.5161 14.1287 47.6387 14.2304 47.7579 14.3558ZM40.1064 15.1487C40.8453 15.8536 42.0371 17.0464 42.0371 17.0837C42.0371 17.1616 41.9111 17.0837 41.6217 16.8329C41.1381 16.4093 40.1574 15.5113 39.7318 15.0979C39.3708 14.7522 39.347 14.7184 39.347 14.5964C39.347 14.4676 39.3504 14.4642 39.4185 14.5116C39.456 14.5387 39.7658 14.8268 40.1064 15.1487ZM28.1711 14.7997C28.1779 14.8234 28.1609 14.8403 28.1302 14.8403C28.0996 14.8403 28.0758 14.8166 28.0758 14.7861C28.0758 14.7285 28.1507 14.7387 28.1711 14.7997ZM1.96464 14.9352C1.97485 14.9488 2.0089 15.02 2.03955 15.0945L2.09744 15.2267L2.00209 15.1453C1.77394 14.9454 1.68541 14.8607 1.68541 14.8336C1.68541 14.8065 1.92377 14.8912 1.96464 14.9352ZM28.8215 15.4164C28.8828 15.474 28.9237 15.5317 28.9134 15.5452C28.8998 15.5554 28.7875 15.4605 28.6615 15.3317C28.5048 15.1724 28.4742 15.1318 28.5695 15.2063C28.6444 15.2639 28.7568 15.3588 28.8215 15.4164ZM27.4492 15.4402C27.7182 15.6909 27.7897 15.7892 27.6944 15.7892C27.6365 15.7892 27.1223 15.2775 27.1223 15.2233C27.1223 15.1996 27.1325 15.1792 27.1427 15.1792C27.153 15.1792 27.2892 15.2978 27.4492 15.4402ZM36.5854 15.9891C36.5752 16.0129 36.4151 15.8909 36.2244 15.7248C35.9418 15.474 35.8839 15.4063 35.8975 15.3453C35.9146 15.2843 35.9588 15.3148 36.2585 15.613C36.4458 15.7994 36.5922 15.9688 36.5854 15.9891ZM40.8759 16.9583C40.9543 17.06 41.0496 17.1752 41.0905 17.2125L41.1654 17.2803H41.07C40.9475 17.2803 40.5831 17.121 40.5593 17.0532C40.5456 17.0193 40.6955 16.7719 40.7295 16.7719C40.7329 16.7719 40.7976 16.8567 40.8759 16.9583ZM24.6365 16.9143C24.6365 16.9346 24.6127 16.9312 24.5854 16.9075C24.5582 16.8838 24.5344 16.8499 24.5344 16.8329C24.5344 16.8126 24.5582 16.816 24.5854 16.8397C24.6127 16.8634 24.6365 16.8973 24.6365 16.9143ZM39.8578 16.9617C39.8986 16.999 39.8986 17.0329 39.868 17.1515C39.8305 17.287 39.8339 17.3074 39.9259 17.4565C39.9804 17.548 40.0144 17.6191 39.9974 17.6191C39.9361 17.6191 39.633 17.5039 39.5888 17.4632C39.5479 17.426 39.5479 17.3989 39.5854 17.2836C39.6262 17.1583 39.6228 17.0803 39.5649 16.8838C39.5445 16.8058 39.5445 16.8058 39.6739 16.86C39.7488 16.8905 39.8305 16.9346 39.8578 16.9617ZM29.5332 17.4463C29.5775 17.5039 29.6251 17.5446 29.6388 17.5378C29.6626 17.5209 29.9657 17.8191 30.1019 17.9919C30.17 18.0766 30.17 18.0766 30.1019 18.0224C29.9452 17.9004 29.3153 17.3514 29.271 17.3006C29.2472 17.2735 29.2369 17.2226 29.2472 17.1921C29.2642 17.1447 29.2846 17.1515 29.3629 17.2396C29.414 17.2972 29.4889 17.3921 29.5332 17.4463ZM38.8362 17.4463C38.7783 17.5581 38.7988 17.6971 38.8873 17.8326C38.935 17.9004 38.9622 17.958 38.9452 17.958C38.9214 17.958 38.6455 17.8699 38.4685 17.8055C38.4412 17.7953 38.4991 17.714 38.6217 17.5852C38.8226 17.3785 38.9009 17.3277 38.8362 17.4463ZM21.5037 17.9919C21.977 18.4019 23.7988 20.1709 23.632 20.0556C23.4958 19.9608 23.0735 19.5982 22.5593 19.1237C22.0417 18.6493 20.775 17.3921 20.9078 17.4836C20.9453 17.5107 21.2143 17.7377 21.5037 17.9919ZM24.7897 18.3308C25.5627 19.0526 26.1689 19.6592 26.1689 19.7168C26.1689 19.7744 25.9952 19.649 25.6921 19.3643C25.5491 19.2356 25.2733 18.9814 25.0792 18.8052C24.3028 18.1037 23.8874 17.6801 23.8874 17.5954V17.5107L24.0168 17.6191C24.0849 17.6801 24.4356 18.0021 24.7897 18.3308ZM20.6184 18.4866C21.2211 19.0221 22.8317 20.5978 22.7807 20.6012C22.6649 20.6012 19.7603 17.897 19.6445 17.6801C19.5593 17.5175 19.5934 17.531 19.8454 17.775C19.9782 17.9072 20.3289 18.2257 20.6184 18.4866ZM5.19277 18.1681C5.19277 18.1884 4.84204 17.9343 4.57984 17.7276C4.56962 17.7208 4.59346 17.6937 4.63091 17.6632C4.69561 17.6157 4.71264 17.6293 4.9476 17.8801C5.0804 18.0224 5.19277 18.1546 5.19277 18.1681ZM28.6036 17.8733C29.1552 18.3816 29.3527 18.6019 29.2472 18.6019C29.2131 18.6019 29.0428 18.4562 28.6274 18.0698C28.3584 17.8191 28.2528 17.7038 28.2835 17.6835C28.338 17.6496 28.3959 17.6835 28.6036 17.8733ZM23.237 18.2189C23.7682 18.7001 25.0792 20.0014 25.0792 20.0489C25.0792 20.076 25.0656 20.0929 25.0485 20.0861C25.0077 20.0726 23.6796 18.856 23.1552 18.3511C22.7773 17.9919 22.7534 17.9614 22.8454 17.9614C22.9203 17.958 23.0088 18.019 23.237 18.2189ZM36.725 18.0156L36.8203 18.0698L36.7522 18.1647C36.6807 18.2562 36.6807 18.3409 36.742 18.5544L36.7659 18.629L36.5309 18.5646C36.4049 18.5273 36.2415 18.4833 36.1699 18.4629L36.0405 18.429L36.1461 18.3274C36.2244 18.246 36.2483 18.1952 36.2483 18.0902V17.958H36.439C36.5547 17.958 36.6671 17.9783 36.725 18.0156ZM37.7466 18.0122C37.7466 18.0427 37.7772 18.1207 37.8181 18.1817C37.8555 18.246 37.876 18.2969 37.8623 18.2969C37.8385 18.2969 37.3209 18.1478 37.2017 18.1071C37.1609 18.0936 37.1677 18.0766 37.2324 18.0224C37.3413 17.9343 37.7466 17.9275 37.7466 18.0122ZM35.3527 18.1647C35.7443 18.3884 35.7613 18.4053 35.6898 18.5036C35.6285 18.5951 35.6183 18.7781 35.6694 18.8764C35.7136 18.9577 35.6796 18.9577 35.4446 18.8933C35.3527 18.8662 35.2131 18.8255 35.1314 18.8052L34.9883 18.7679L35.0428 18.6629C35.0973 18.5578 35.0939 18.2765 35.036 18.0664C35.0258 18.0258 35.0224 17.9919 35.0326 17.9919C35.0428 17.9919 35.1858 18.0698 35.3527 18.1647ZM3.54125 18.0936C3.55146 18.1105 3.54806 18.1274 3.52763 18.1274C3.5106 18.1274 3.48336 18.1105 3.47314 18.0936C3.46293 18.0732 3.46633 18.0597 3.48676 18.0597C3.50379 18.0597 3.53103 18.0732 3.54125 18.0936ZM18.9328 18.307C19.7262 18.934 21.565 20.686 21.5003 20.7537C21.4799 20.7707 20.8601 20.2352 20.2949 19.71C19.4334 18.9069 18.5923 18.0936 18.6297 18.0936C18.6467 18.0936 18.783 18.1884 18.9328 18.307ZM2.82615 18.2155C2.87383 18.246 2.91128 18.2799 2.91128 18.2935C2.91128 18.3206 2.3971 18.4087 2.37326 18.385C2.34261 18.3511 2.41412 18.2867 2.55033 18.2257C2.72059 18.1478 2.724 18.1478 2.82615 18.2155ZM26.1518 18.2969C26.1791 18.3409 26.0667 18.3409 25.9986 18.2969C25.9577 18.2698 25.9679 18.263 26.0395 18.263C26.0905 18.263 26.1416 18.2765 26.1518 18.2969ZM17.6422 18.4019C17.6967 18.4595 17.9112 18.6629 18.1155 18.8492C19.3005 19.9235 20.6081 21.2044 20.4072 21.0892C20.2268 20.9876 17.901 18.8459 17.5809 18.4866C17.4141 18.3003 17.472 18.2223 17.6422 18.4019ZM27.851 18.5205C28.0996 18.7544 28.2699 18.9611 28.2392 18.995C28.212 19.0221 27.4969 18.3579 27.5173 18.324C27.5548 18.2664 27.6127 18.3037 27.851 18.5205ZM26.4753 18.5917C26.7716 18.8967 27.0542 19.2085 26.9691 19.1407C26.8329 19.0356 26.1007 18.3952 26.1007 18.3782C26.1007 18.3714 26.1348 18.3647 26.1757 18.3647C26.2199 18.3647 26.3323 18.4528 26.4753 18.5917ZM29.3697 18.6391C29.3697 18.6561 29.3459 18.6696 29.3187 18.6696C29.2676 18.6696 29.2506 18.629 29.288 18.5917C29.3153 18.5646 29.3697 18.5951 29.3697 18.6391ZM17.2472 19.3982C17.6286 19.7337 19.338 21.3942 19.1712 21.2756C18.8204 21.018 17.4515 19.7439 16.9373 19.1949C16.6275 18.8628 16.6309 18.8628 17.2472 19.3982ZM15.6536 19.2457C15.6944 19.2966 15.7046 19.3338 15.6808 19.3406C15.6229 19.3609 15.5003 19.2627 15.4288 19.1441L15.3641 19.0322L15.4765 19.0966C15.5378 19.1339 15.6161 19.1983 15.6536 19.2457ZM16.338 19.8625C17.792 21.2112 18.3641 21.7873 18.2415 21.7873C18.2245 21.7873 18.1768 21.7466 18.1292 21.6992C18.0849 21.6484 17.8772 21.462 17.6695 21.279C17.0531 20.7368 15.7489 19.4796 15.7489 19.4287C15.7489 19.4016 15.7659 19.3813 15.783 19.3813C15.8034 19.3813 16.052 19.5982 16.338 19.8625ZM15.2245 20.181C15.8681 20.7774 16.9918 21.8585 17.0054 21.8957C17.0327 21.9771 16.8931 21.889 16.6956 21.7026C16.5764 21.5907 16.321 21.3535 16.1235 21.1773C15.4629 20.5877 14.4141 19.5541 14.4379 19.5168C14.4617 19.4796 14.5026 19.5168 15.2245 20.181ZM13.9646 20.3708C14.0565 20.4318 14.3698 20.7131 14.6593 20.9943C14.9487 21.2756 15.2654 21.5772 15.3573 21.6619C15.4731 21.767 15.5174 21.828 15.4935 21.8517C15.4697 21.8754 15.296 21.7331 14.9623 21.4213C14.6899 21.1672 14.3017 20.8012 14.0974 20.6114C13.7126 20.2556 13.6717 20.181 13.9646 20.3708ZM13.5628 21.14C13.573 21.1672 13.5594 21.1807 13.5321 21.1705C13.5083 21.1638 13.481 21.1367 13.4742 21.1129C13.464 21.0858 13.4776 21.0723 13.5049 21.0824C13.5287 21.0892 13.556 21.1163 13.5628 21.14Z" fill="#8E8F8C"/>
<path d="M11.7308 10.9907C11.4176 11.1127 11.3324 11.1669 11.152 11.3465C10.6854 11.8108 10.4369 12.7596 10.4811 13.9423C10.5322 15.3724 10.8727 16.1789 11.5742 16.5347C11.7921 16.6431 11.7989 16.6431 12.1803 16.6296C12.6434 16.6126 12.8648 16.5279 13.1202 16.2738C13.5492 15.8468 13.7535 15.1555 13.7978 13.9762C13.8284 13.0816 13.7059 12.275 13.4607 11.7566C13.3143 11.4516 13.0044 11.15 12.7354 11.0449C12.4766 10.9466 11.9147 10.9161 11.7308 10.9907ZM12.4834 11.5566C12.5004 11.5939 12.5345 11.621 12.5583 11.621C12.5821 11.621 12.623 11.6515 12.6502 11.6888C12.6775 11.7261 12.7115 11.7566 12.7286 11.7566C12.7796 11.7566 12.8682 11.865 12.8716 11.9362C12.875 11.9734 12.9056 12.0243 12.9397 12.048C12.9771 12.0751 12.9908 12.0954 12.9771 12.0954C12.9261 12.0954 12.3438 11.5465 12.3438 11.499C12.3438 11.438 12.4391 11.4753 12.4834 11.5566ZM11.6014 12.0175C12.4459 12.7833 13.4368 13.7661 13.3994 13.8034C13.3653 13.8373 12.8614 13.3967 11.8977 12.4919C11.2813 11.9192 11.2745 11.9091 11.3052 11.8582C11.3426 11.7972 11.3835 11.8209 11.6014 12.0175ZM13.1746 12.1598C13.2087 12.214 13.0895 12.231 13.0384 12.1802C12.9908 12.1361 12.9942 12.1293 13.0725 12.1293C13.1202 12.1293 13.1644 12.1429 13.1746 12.1598ZM11.7479 13.5594C12.3846 14.1998 12.4085 14.2337 11.9522 13.8406C11.1588 13.1561 10.9544 12.9426 11.0941 12.9426C11.1179 12.9426 11.4107 13.2205 11.7479 13.5594ZM11.152 14.3625C11.152 14.3795 11.1792 14.4032 11.2167 14.4167C11.3222 14.4506 11.598 14.7488 11.5606 14.7861C11.5367 14.8098 11.4448 14.742 11.2779 14.576C11.1179 14.4167 11.0532 14.332 11.0941 14.332C11.1247 14.332 11.152 14.3456 11.152 14.3625Z" fill="#8E8F8C"/>
<path d="M33.2177 14.0642C32.2812 14.2336 31.7364 14.5047 31.4844 14.9215C31.3721 15.1079 31.3687 15.1316 31.3687 15.4298C31.3721 15.7619 31.4027 15.8602 31.573 16.0839C31.6956 16.2431 31.842 16.2974 32.145 16.2974C32.5809 16.2974 32.9214 16.1821 33.279 15.9212L33.456 15.7857V14.908C33.456 14.2234 33.4458 14.0269 33.4152 14.0303C33.3913 14.0337 33.3028 14.0472 33.2177 14.0642ZM32.615 14.8571C32.7205 14.9588 32.8091 15.0571 32.8091 15.0774C32.8091 15.0944 32.8227 15.1113 32.8431 15.1113C32.8772 15.1113 32.8738 15.2299 32.8397 15.2604C32.8091 15.2943 32.2881 14.7453 32.3119 14.708C32.3562 14.6403 32.4141 14.6708 32.615 14.8571ZM31.968 15.6772C31.9441 15.684 31.9033 15.684 31.8828 15.6772C31.859 15.6671 31.876 15.6603 31.9237 15.6603C31.9714 15.6603 31.9884 15.6671 31.968 15.6772ZM32.0769 15.7179C32.0872 15.7348 32.0803 15.7586 32.0599 15.7721C32.0429 15.7823 32.0259 15.7687 32.0259 15.7416C32.0259 15.6806 32.0463 15.6704 32.0769 15.7179Z" fill="#8E8F8C"/>
<path d="M45.2381 10.94C44.6796 11.0281 44.2131 11.6279 44.1518 12.3328C44.1348 12.5192 44.1416 12.6174 44.1654 12.6242C44.1824 12.631 44.7749 12.6344 45.4764 12.631L46.7534 12.6208L46.7636 12.4921C46.7704 12.4243 46.75 12.2345 46.7193 12.0752C46.5797 11.3263 46.229 10.9536 45.6331 10.9265C45.5003 10.9197 45.3232 10.9265 45.2381 10.94ZM45.1189 11.8075C45.3096 11.9804 45.3504 12.0312 45.3164 12.0651C45.2823 12.099 45.2721 12.099 45.2721 12.0685C45.2721 12.0447 45.2551 12.0278 45.2312 12.0278C45.1904 12.0278 44.7954 11.655 44.7954 11.6144C44.7954 11.5466 44.9009 11.6076 45.1189 11.8075Z" fill="#8E8F8C"/>
<path d="M9.99749 6.96484C9.99749 7.00212 10.0077 7.01228 10.0179 6.98517C10.0281 6.96145 10.0247 6.93095 10.0145 6.92079C10.0043 6.90723 9.99409 6.92756 9.99749 6.96484Z" fill="#8E8F8C"/>
<path d="M52.8997 8.79463C52.8997 8.84885 52.9167 8.91662 52.9371 8.94373C52.961 8.98101 52.9644 8.95729 52.9473 8.85901C52.9201 8.68958 52.8997 8.66247 52.8997 8.79463Z" fill="#8E8F8C"/>
<path d="M49.4127 16.2162C49.3038 16.3484 49.3072 16.3823 49.423 16.3213C49.474 16.2976 49.5081 16.2467 49.5149 16.1857C49.5183 16.1349 49.5217 16.0942 49.5183 16.0976C49.5149 16.0976 49.4672 16.1519 49.4127 16.2162Z" fill="#8E8F8C"/>
<path d="M49.1369 16.2668C49.0995 16.3244 49.1403 16.338 49.188 16.2804C49.2153 16.2499 49.2153 16.2295 49.1948 16.2295C49.1744 16.2295 49.1472 16.2465 49.1369 16.2668Z" fill="#8E8F8C"/>
<path d="M0.357422 17.9379C0.357422 17.9684 0.371043 18.026 0.391474 18.0599C0.428931 18.131 0.65708 18.2801 0.684322 18.253C0.694537 18.2429 0.772857 18.2598 0.854582 18.2869C0.939712 18.314 1.01803 18.3276 1.02825 18.3174C1.04187 18.3073 1.02825 18.2971 1.00101 18.2971C0.943118 18.2971 0.554924 18.0565 0.435742 17.9481C0.364232 17.8871 0.357422 17.8837 0.357422 17.9379Z" fill="#8E8F8C"/>
</svg>
