<svg width="52" height="12" viewBox="0 0 52 12" fill="none" xmlns="http://www.w3.org/2000/svg">
<path d="M45.9294 0.0123844C44.6006 0.120408 43.3655 0.689157 42.4206 1.63143C42.2918 1.76028 42.1291 1.93338 42.0614 2.01537C41.4068 2.80537 40.989 3.72292 40.8276 4.72767C40.7235 5.37581 40.7365 6.08382 40.8679 6.73326C41.1269 8.02304 41.8428 9.19567 42.8709 10.013C43.6154 10.6052 44.4991 11.0034 45.4088 11.157C45.7824 11.2208 45.962 11.2351 46.3784 11.2351C46.7962 11.2351 46.9849 11.2195 47.348 11.157C49.7102 10.751 51.5688 8.85599 51.9358 6.48077C52.0334 5.84825 52.0191 5.15456 51.8967 4.53375C51.7028 3.55243 51.2577 2.6531 50.594 1.89824C49.6243 0.797181 48.276 0.126915 46.7962 0.0110829C46.601 -0.00453496 46.1273 -0.00323347 45.9294 0.0123844ZM48.8773 4.33332C49.4864 5.30033 49.9862 6.09683 49.9875 6.10334C49.9901 6.10985 49.8209 6.11506 49.5697 6.11506H49.148L48.9281 5.76365L48.7081 5.41355L48.0469 5.40965L47.3858 5.40575L47.6044 5.05825L47.8231 4.71075L48.0404 4.70685L48.2591 4.70294L48.0183 4.319C47.8856 4.10816 47.7736 3.93246 47.7671 3.92726C47.7619 3.92205 47.447 4.41011 47.0669 5.0127L46.3758 6.10855L44.5446 6.11245C43.3681 6.11375 42.7148 6.11115 42.7148 6.10204C42.7148 6.09553 42.9113 5.78057 43.1508 5.40314L43.5881 4.71596L43.2679 4.71205C43.0922 4.71075 42.949 4.70424 42.949 4.69904C42.949 4.69383 43.0479 4.53505 43.1677 4.34503L43.3876 4.00014L44.749 3.99624C45.4986 3.99493 46.1116 3.99754 46.1116 4.00404C46.1116 4.00925 46.0127 4.16803 45.893 4.35805L45.6743 4.70294L45.0587 4.70945L44.4444 4.71596L44.2258 5.05434L44.0084 5.39273L44.978 5.40054C45.8813 5.40835 45.9503 5.40705 45.9685 5.38752C45.9789 5.37451 46.3862 4.73678 46.873 3.97021C47.3598 3.20363 47.7606 2.57631 47.7645 2.57631C47.7684 2.57631 48.2695 3.36632 48.8773 4.33332ZM47.1632 2.60625C47.1606 2.61536 47.063 2.77674 46.9446 2.96416L46.7298 3.30384H45.2813C44.1256 3.30384 43.834 3.29994 43.8418 3.28693C43.847 3.27912 43.9473 3.11773 44.0657 2.92902L44.2804 2.58803H45.7238C46.9459 2.58803 47.1671 2.59063 47.1632 2.60625ZM43.4592 6.47947C43.5321 6.5003 43.6141 6.56927 43.6505 6.64086C43.6753 6.68771 43.6844 6.72936 43.6883 6.81265L43.6948 6.92198H43.5711H43.4475L43.4254 6.84389C43.3915 6.72415 43.3707 6.71374 43.1755 6.71374C43.0883 6.71374 43.0063 6.71764 42.9946 6.72155C42.9568 6.73717 42.936 6.79964 42.936 6.90115C42.936 7.01048 42.9542 7.06254 42.9933 7.07165C43.0089 7.07425 43.1169 7.07946 43.2353 7.08076C43.4709 7.08596 43.4982 7.09377 43.5841 7.17447C43.6753 7.25906 43.6844 7.2929 43.6844 7.54018C43.6844 7.79267 43.674 7.82911 43.5737 7.91371C43.4956 7.98139 43.4514 7.9892 43.1625 7.9892C42.8735 7.9892 42.8384 7.98009 42.7564 7.89809C42.6861 7.82911 42.6718 7.78616 42.6653 7.64691L42.6601 7.52066H42.7824H42.9061L42.923 7.60135C42.9347 7.65081 42.9529 7.69376 42.9698 7.71198C42.9985 7.74061 43.0102 7.74191 43.1742 7.74191C43.4097 7.74191 43.4097 7.74191 43.415 7.5506C43.4189 7.42305 43.4176 7.40613 43.3915 7.37359L43.3642 7.33845H43.1586C42.9048 7.33845 42.8449 7.32414 42.7616 7.24084C42.677 7.15494 42.6601 7.09247 42.6653 6.87903C42.6692 6.72545 42.6731 6.69942 42.7017 6.64346C42.7395 6.57058 42.8059 6.51201 42.8787 6.48598C42.9399 6.46385 43.385 6.45995 43.4592 6.47947ZM44.8232 6.49769C44.9 6.53804 44.9767 6.62264 45.0002 6.69031C45.0158 6.74107 45.0197 6.79703 45.0158 6.97794C45.0106 7.23043 45.0002 7.26947 44.9065 7.35147C44.8193 7.42695 44.7893 7.43476 44.5212 7.43997L44.2765 7.44518V7.71719V7.9892H44.1399H44.0032V7.22653V6.46516L44.3911 6.46906C44.7386 6.47296 44.7828 6.47557 44.8232 6.49769ZM46.1194 6.5016C46.2014 6.54585 46.2769 6.63825 46.2938 6.71764C46.3043 6.7632 46.3082 6.9428 46.3043 7.27468L46.3004 7.76404L46.2613 7.82651C46.2079 7.91371 46.1299 7.97098 46.0375 7.9892C45.9906 7.99961 45.8839 8.00351 45.7485 7.99961C45.539 7.9944 45.5299 7.9944 45.4622 7.95666C45.3919 7.91761 45.3542 7.87727 45.3099 7.79397C45.2865 7.75102 45.2852 7.71588 45.2891 7.22783C45.2943 6.63825 45.293 6.64216 45.3997 6.55105C45.4869 6.47687 45.5377 6.46646 45.8188 6.47036C46.0453 6.47296 46.0713 6.47557 46.1194 6.5016ZM47.3402 6.47427C47.4339 6.48728 47.529 6.55105 47.5784 6.63565L47.6214 6.70593V6.92718C47.6214 7.12371 47.6188 7.15364 47.594 7.2031C47.5693 7.25516 47.5003 7.32674 47.447 7.35798C47.4248 7.37099 47.4339 7.39702 47.5498 7.67033C47.6201 7.83562 47.6799 7.97748 47.6825 7.98659C47.6877 7.99961 47.6578 8.00221 47.542 7.99961L47.3949 7.9957L47.2726 7.69897L47.1502 7.40353H47.0279H46.9055L46.9029 7.69897L46.899 7.9957H46.7624H46.6257L46.6218 7.59875C46.6192 7.3801 46.6218 7.03651 46.6257 6.83348L46.6348 6.46646H46.9576C47.1346 6.46646 47.3064 6.47036 47.3402 6.47427ZM48.8448 6.60311V6.72675H48.6495H48.4543V7.36448V8.00221H48.3177H48.181V7.36448V6.72675H47.9858H47.7906V6.60311V6.47947H48.3177H48.8448V6.60311ZM49.8664 6.5042C49.9367 6.53674 50.0109 6.61613 50.0356 6.68641C50.046 6.71764 50.0551 6.78532 50.0551 6.83868V6.93499H49.9341H49.8118L49.7935 6.85951C49.7844 6.81916 49.7636 6.77231 49.7467 6.75539C49.7194 6.72806 49.7076 6.72675 49.5411 6.72675C49.3849 6.72675 49.3627 6.72936 49.3406 6.75148C49.3081 6.78402 49.2964 6.84909 49.3029 6.95712C49.3107 7.08727 49.3198 7.09117 49.5723 7.09117C49.6842 7.09117 49.7974 7.09768 49.8235 7.10419C49.8977 7.12501 49.9784 7.19399 50.0187 7.27208C50.0538 7.33845 50.0551 7.34887 50.0551 7.53628C50.0551 7.75883 50.0434 7.81089 49.9797 7.88508C49.8912 7.9892 49.8664 7.9957 49.5411 7.9957C49.2287 7.9957 49.2118 7.9918 49.1272 7.91241C49.0595 7.85124 49.0361 7.78616 49.0296 7.64691L49.0231 7.51936L49.1454 7.52326L49.2677 7.52717L49.2899 7.61177C49.3263 7.74582 49.3432 7.75493 49.5489 7.75493C49.7115 7.75493 49.7194 7.75363 49.7493 7.72239C49.7792 7.69246 49.7818 7.68205 49.7818 7.5506C49.7818 7.34496 49.7948 7.35537 49.5124 7.34887C49.3016 7.34496 49.2755 7.34236 49.2196 7.31503C49.1402 7.27598 49.0712 7.19399 49.0465 7.11199C49.0231 7.03651 49.0205 6.80354 49.0413 6.72285C49.0621 6.63825 49.1311 6.55366 49.2105 6.51331C49.2782 6.47947 49.2834 6.47947 49.5463 6.47947C49.7792 6.47947 49.8209 6.48338 49.8664 6.5042ZM50.2243 6.54455C50.2243 6.55105 50.2126 6.55756 50.1983 6.55756C50.1762 6.55756 50.1723 6.56667 50.1723 6.61613C50.1723 6.65908 50.1671 6.6747 50.1528 6.6747C50.1384 6.6747 50.1332 6.65908 50.1332 6.61613C50.1332 6.56667 50.1293 6.55756 50.1072 6.55756C50.0929 6.55756 50.0812 6.55105 50.0812 6.54455C50.0812 6.53674 50.1137 6.53153 50.1528 6.53153C50.1918 6.53153 50.2243 6.53674 50.2243 6.54455ZM50.3128 6.57188L50.3376 6.61222L50.3662 6.57188C50.3818 6.54975 50.4013 6.53153 50.4078 6.53153C50.4143 6.53153 50.4196 6.56407 50.4196 6.60311C50.4196 6.64216 50.4143 6.6747 50.4065 6.6747C50.4 6.6747 50.3935 6.65257 50.3935 6.62524V6.57708L50.3662 6.62133L50.3389 6.66689L50.3141 6.63435L50.2894 6.60311V6.63825C50.2894 6.66168 50.2829 6.6747 50.2699 6.6747C50.2543 6.6747 50.2504 6.65778 50.2504 6.60311C50.2504 6.51982 50.2725 6.5081 50.3128 6.57188Z" fill="#8E8F8C"/>
<path d="M44.2766 6.9468V7.18237H44.4731C44.5812 7.18237 44.6801 7.17716 44.6931 7.16936C44.7295 7.14983 44.7451 7.08476 44.7451 6.9429C44.7451 6.83487 44.7399 6.80364 44.7191 6.7685C44.6944 6.72815 44.6905 6.72685 44.6046 6.72685C44.5551 6.72685 44.4614 6.72295 44.3963 6.71904L44.2766 6.70993V6.9468Z" fill="#8E8F8C"/>
<path d="M45.5924 6.76075C45.5664 6.79459 45.5651 6.81021 45.5651 7.23449C45.5651 7.78632 45.5455 7.74207 45.7915 7.74207C45.9607 7.74207 45.9646 7.74077 45.9959 7.70823L46.0271 7.67439L46.031 7.25662C46.0336 7.02625 46.031 6.82452 46.0271 6.8076C46.0232 6.79199 46.0089 6.76726 45.9946 6.75294C45.9711 6.72952 45.9503 6.72691 45.7941 6.72691C45.621 6.72691 45.6184 6.72691 45.5924 6.76075Z" fill="#8E8F8C"/>
<path d="M46.9055 6.94272V7.15747L47.102 7.15356C47.3532 7.14836 47.348 7.15356 47.348 6.94142C47.348 6.81388 47.3441 6.79045 47.3207 6.76051L47.2947 6.72668H47.0994H46.9055V6.94272Z" fill="#8E8F8C"/>
<path d="M25.815 1.16559C24.3912 1.30485 23.5803 2.0532 23.3825 3.40935C23.3396 3.69958 23.3331 4.03406 23.3396 5.80929C23.3448 7.68213 23.3435 7.64829 23.4137 8.01791C23.5218 8.58666 23.7834 9.08513 24.1465 9.41441C24.4536 9.69163 24.8831 9.90377 25.3347 9.99878C25.677 10.0704 25.7382 10.0756 26.5048 10.0808C27.2531 10.0873 27.4418 10.0795 27.736 10.0326C28.3399 9.9337 28.8501 9.68382 29.1989 9.3155C29.709 8.77668 29.9342 8.02312 29.9043 6.94809C29.8938 6.58107 29.8626 6.4275 29.752 6.20624C29.683 6.07089 29.6036 5.96287 29.1858 5.44618L28.8214 4.99586H27.7776H26.7325V5.86786V6.73985H27.3833H28.034V7.34114C28.034 7.99058 28.0314 8.02312 27.9637 8.13765C27.9221 8.20923 27.8661 8.25739 27.7737 8.30034L27.7021 8.33418H26.6219H25.5417L25.4545 8.29123C25.3517 8.24177 25.2879 8.17279 25.2462 8.06867L25.2163 7.99579L25.2124 5.66613C25.2098 3.96899 25.2124 3.31564 25.2228 3.25838C25.2541 3.09439 25.3556 2.97465 25.5078 2.9239C25.5924 2.89526 25.6028 2.89396 26.5412 2.89006C27.5238 2.88615 27.6683 2.89136 27.7763 2.93821C27.8661 2.97595 27.9468 3.05665 27.9898 3.15166C28.0262 3.23105 28.0275 3.23886 28.0314 3.48874L28.0366 3.74644H28.9737H29.9108L29.9017 3.59286C29.8652 2.9304 29.6921 2.43584 29.3537 2.03108C28.9841 1.58727 28.4362 1.31135 27.6891 1.19422C27.516 1.16689 27.4627 1.16429 26.687 1.16298C26.2367 1.16168 25.8436 1.16168 25.815 1.16559Z" fill="#8E8F8C"/>
<path d="M0.00260297 4.80308L0.00650743 8.36004L0.0416476 8.48759C0.0832951 8.63856 0.178304 8.84419 0.266805 8.97174C0.300643 9.02119 0.498469 9.27238 0.705406 9.52747L1.08284 9.99341H3.13138H5.17992V9.12141V8.24941H3.52052H1.86113V4.74841V1.24742H0.930563H0L0.00260297 4.80308Z" fill="#8E8F8C"/>
<path d="M7.19733 4.93323C6.63639 6.96094 6.16395 8.68151 6.14833 8.75699C6.10798 8.9418 6.09106 9.18779 6.09106 9.62508V9.99341H6.92141H7.75046L7.91315 9.34787L8.07583 8.70363L9.42027 8.01515C10.1595 7.63771 10.766 7.33187 10.7686 7.33707C10.7712 7.34098 10.9209 7.94096 11.1018 8.66849L11.4298 9.99341H12.2549H13.08V9.52747C13.08 9.03811 13.0683 8.88714 13.0163 8.68541C13.002 8.62815 12.5647 7.04424 12.0454 5.16489C11.2528 2.29511 11.094 1.73157 11.0484 1.64046C10.9794 1.4999 10.8688 1.38537 10.7504 1.32811C10.5786 1.24742 10.5812 1.24742 9.34088 1.24742H8.21769L7.19733 4.93323ZM9.69618 2.99791C9.69618 3.00182 9.91613 3.89464 10.1842 4.98268C10.4523 6.07072 10.6723 6.96875 10.6723 6.98046C10.6723 6.99738 10.5513 6.99999 9.58425 6.99999C8.55478 6.99999 8.49751 6.99868 8.50402 6.97656C8.50792 6.96485 8.72527 6.08504 8.98687 5.02173C9.24847 3.95841 9.46842 3.06689 9.47623 3.03956L9.48925 2.99141H9.59206C9.64933 2.99141 9.69618 2.99401 9.69618 2.99791Z" fill="#8E8F8C"/>
<path d="M13.939 4.69245C13.939 6.89457 13.9442 8.18304 13.952 8.26243C13.978 8.51101 14.0665 8.75309 14.2071 8.96133C14.2422 9.01339 14.4413 9.26587 14.6483 9.52357L15.0257 9.9921H17.0729L19.1189 9.99341V9.12141V8.24941H17.466H15.8131V4.74841V1.24742H14.876H13.939V4.69245Z" fill="#8E8F8C"/>
<path d="M20.186 5.62041V9.99341H21.1231H22.0602V5.62041V1.24742H21.1231H20.186V5.62041Z" fill="#8E8F8C"/>
<path d="M32.5958 1.26303C32.5698 1.33852 30.5368 8.71404 30.5173 8.80905C30.4939 8.91838 30.49 8.99517 30.4848 9.4624L30.4783 9.99341H31.3047H32.1299L32.1832 9.78777C32.2132 9.67584 32.2847 9.38952 32.3433 9.15395C32.4019 8.91708 32.4565 8.71795 32.4643 8.70884C32.4891 8.68151 35.1467 7.32666 35.1506 7.33967C35.1532 7.34618 35.3029 7.94487 35.4838 8.66849L35.8118 9.9869L36.6421 9.9908L37.4725 9.99341L37.466 9.48973C37.4594 9.06805 37.4542 8.96263 37.4334 8.8481C37.41 8.72315 35.5996 2.14284 35.4981 1.81356C35.4083 1.52203 35.2612 1.36195 35.01 1.27865C34.9437 1.25653 34.8604 1.25392 33.7697 1.25002C32.8275 1.24742 32.601 1.25002 32.5958 1.26303ZM34.5688 4.98919C34.8396 6.08374 35.0608 6.98437 35.0621 6.98957C35.0621 6.99608 34.5727 6.99999 33.9754 6.99999C33.1151 6.99999 32.8886 6.99608 32.8886 6.98307C32.8886 6.97526 33.1086 6.07203 33.3793 4.97878L33.8699 2.99011L33.9728 2.99401L34.0769 2.99791L34.5688 4.98919Z" fill="#8E8F8C"/>
</svg>
