<svg width="32" height="39" viewBox="0 0 32 39" fill="none" xmlns="http://www.w3.org/2000/svg">
<path fill-rule="evenodd" clip-rule="evenodd" d="M23.5753 2.0826C21.6929 2.0249 19.7955 1.61992 17.8977 0.888961C17.239 0.630196 16.5919 0.342401 15.9583 0.0264071V0C15.9486 0.000125287 15.9393 0.00383645 15.9321 0.0104296C15.924 0.0055008 15.9152 0.00197534 15.9059 0V0.0261851C15.2231 0.362819 14.5453 0.662615 13.8623 0.92025C11.975 1.64078 10.093 2.02979 8.22135 2.08238C5.44797 2.15605 2.70034 1.48278 0 0V6.16348C0.448333 16.9493 3.35216 25.2584 8.22135 31.5903C9.87917 33.7517 11.7664 35.6818 13.8623 37.4016C14.5255 37.9456 15.2071 38.4665 15.9059 38.9632V39C15.9139 38.9936 15.9227 38.9884 15.9321 38.9845C15.9401 38.9908 15.9489 38.996 15.9583 39V38.9632C16.6179 38.4867 17.2646 37.9922 17.8977 37.4804C20.0038 35.7606 21.9069 33.8307 23.5753 31.6691C28.4755 25.327 31.4055 16.9968 31.8592 6.16348V0C29.1326 1.49366 26.3694 2.1667 23.5753 2.0826Z" fill="#8E8F8C"/>
<path fill-rule="evenodd" clip-rule="evenodd" d="M1.0986 6.64336C3.53261 5.50521 5.90924 4.92853 8.23945 4.94396C10.1492 4.95938 12.0226 5.36615 13.8546 6.18489C14.3684 6.41152 14.8769 6.674 15.3803 6.96256V11.5302C14.8355 11.5869 14.3217 11.7516 13.8546 11.9936C13.308 12.2838 12.8308 12.6874 12.4556 13.177C12.0803 13.6667 11.8158 14.2308 11.6801 14.831H2.10024C1.55015 12.1686 1.22321 9.42399 1.0986 6.64336Z" fill="white"/>
<path fill-rule="evenodd" clip-rule="evenodd" d="M15.6575 12.0845H15.7314C16.4462 12.0981 17.1399 12.328 17.7213 12.7437C18.629 13.3924 19.2254 14.4526 19.2254 15.6549C19.2254 16.852 18.629 17.9175 17.7213 18.5662C17.1388 18.9797 16.4457 19.2093 15.7314 19.2254H15.6575C14.9346 19.2268 14.2289 19.0058 13.6361 18.5925C12.7018 17.9491 12.0845 16.8731 12.0845 15.6549C12.0845 14.4368 12.7018 13.3554 13.6361 12.7121C14.2305 12.3026 14.9356 12.0838 15.6575 12.0845Z" fill="#8E8F8C"/>
<path fill-rule="evenodd" clip-rule="evenodd" d="M29.8204 14.831H20.0897C19.8247 13.629 19.0296 12.6111 17.9596 12.0383C17.5007 11.7896 16.9984 11.6283 16.4789 11.5626V7.06654C16.9478 6.73929 17.443 6.4502 17.9596 6.20212C19.575 5.41951 21.5026 4.95417 23.6175 4.94381C25.8461 4.93366 28.2828 5.43483 30.7606 6.62149C30.6308 9.38353 30.3708 12.1866 29.8204 14.831Z" fill="white"/>
<path fill-rule="evenodd" clip-rule="evenodd" d="M30.729 5.54323C28.2825 4.36308 25.8565 3.84342 23.5186 3.87457C21.5632 3.90068 19.6752 4.31636 17.8854 5.04945C17.2182 5.32497 16.5715 5.6472 15.9353 6.00585C15.9259 6.00981 15.9172 6.01506 15.9093 6.02143V6.04227H15.9043C15.237 5.67309 14.5646 5.35085 13.8818 5.08038C12.0456 4.34751 10.1678 3.97307 8.2851 3.96276C5.89533 3.95245 3.49529 4.52936 1.14175 5.71981C1.08996 4.34106 1.08479 2.96095 1.12626 1.58185L1.15725 1.59742C3.53655 2.5955 5.91606 3.06361 8.28488 3.02193C10.1574 2.98552 12.0246 2.63191 13.8816 1.96156C14.5816 1.71269 15.2671 1.42459 15.935 1.0986C16.5701 1.40861 17.2211 1.68451 17.8852 1.92514C19.7162 2.58541 21.6145 2.9649 23.5184 3.02193C25.9547 3.0998 28.4064 2.64244 30.734 1.58185C30.7702 2.90765 30.7702 4.22796 30.729 5.54323Z" fill="#8E8F8C"/>
<path fill-rule="evenodd" clip-rule="evenodd" d="M4.78185 15.9296H2.19721C2.81262 18.6472 3.66429 21.279 4.78185 23.7845V15.9296ZM9.68346 15.9296H7.23531V28.3824C7.23531 28.3824 7.24217 28.4679 8.179 29.8029C8.65652 30.4814 9.15841 31.1423 9.68368 31.7843L9.68346 15.9296ZM14.6532 19.9778C14.3755 19.8964 14.1068 19.7868 13.8513 19.6506C13.1369 19.2726 12.5428 18.7005 12.1369 17.9996V34.4758C12.6904 35.0217 13.2622 35.5486 13.8513 36.0555C14.1141 36.2802 14.3822 36.501 14.6532 36.72V19.9778ZM19.6181 17.9297L19.6199 17.9266C19.2213 18.6451 18.6281 19.2355 17.909 19.6295C17.6519 19.7691 17.3814 19.8822 17.1016 19.9671V36.8028C17.9762 36.1021 18.8161 35.3588 19.6183 34.5755L19.6181 17.9297ZM29.662 15.9296H26.9676V24.0191C26.8818 24.2087 28.8061 20.1639 29.662 15.9296ZM24.5193 15.9296H22.066V31.9136C21.7835 32.2563 22.8752 30.9384 23.618 29.8875C23.9287 29.4461 24.2292 28.9976 24.5193 28.5423V15.9296Z" fill="white"/>
<path fill-rule="evenodd" clip-rule="evenodd" d="M7.37346 15.9296V28.1786C6.45623 26.732 5.64421 25.2216 4.94366 23.6591V15.9296H7.37346ZM12.2278 17.959V34.1734C11.3706 33.336 10.5595 32.453 9.798 31.5282V15.9296H11.6567C11.6717 16.6434 11.8682 17.3416 12.2278 17.959ZM17.1444 19.9006V36.4617C16.7641 36.7657 16.3782 37.0625 15.9868 37.3521C15.5571 37.0391 15.1347 36.7163 14.7198 36.3839V19.9109C15.0988 20.0247 15.5039 20.0819 15.914 20.0819C16.3309 20.0827 16.7455 20.0216 17.1444 19.9006ZM22.0611 15.9296V31.652C21.3013 32.5684 20.492 33.443 19.6368 34.2717V17.897C19.9738 17.2947 20.1572 16.6192 20.1712 15.9298L22.0611 15.9296ZM26.9155 15.9296V23.8867C26.2153 25.4268 25.405 26.9148 24.4907 28.339V15.9296H26.9155Z" fill="#8E8F8C"/>
<path fill-rule="evenodd" clip-rule="evenodd" d="M26.9155 11.3469C26.9155 11.3641 26.9155 11.3817 26.9151 11.3992C26.8961 13.1027 26.0265 14.0994 24.4001 14.2817H23.9532C23.4172 14.2611 22.2994 14.1059 22.1428 13.8386C22.1325 13.8221 22.1265 13.8031 22.1254 13.7834C22.1242 13.7637 22.128 13.7441 22.1364 13.7264C22.2391 13.5659 22.6991 13.7212 23.0352 13.8345L23.117 13.8617C23.3543 13.9411 23.7204 13.9186 23.9627 13.9035L23.9755 13.9028V12.3184L23.6475 12.3033L23.3284 12.2263C21.9208 11.8131 21.4226 10.8677 21.4226 10.1C21.4226 10.0816 21.423 10.0632 21.4234 10.0451C21.453 9.09598 22.1948 8.29762 23.271 8.05391L23.1723 7.96331C22.9954 7.80177 22.8281 7.64954 22.7297 7.41016C22.6303 7.171 22.5804 6.94308 22.5804 6.73181C22.5804 6.51665 22.6318 6.319 22.7349 6.14493C22.9619 5.76239 23.4216 5.52474 23.9973 5.49296L24.4013 5.55459C24.6258 5.58918 25.4829 6.06686 25.5318 6.42518C25.5451 6.52508 25.4927 6.60444 25.3748 6.66066L25.3701 6.66304L25.3663 6.65872C25.099 6.33565 24.5069 5.93928 24.0865 5.8876L23.8507 5.90295C23.5732 5.91701 23.3033 6.12957 23.1797 6.43123C23.117 6.57893 23.089 6.71386 23.089 6.8382C23.089 7.3308 23.5262 7.65538 23.9606 7.92611V7.00968L25.9861 7.01292L26.0031 7.03801C26.035 7.0845 26.0557 7.11456 26.0557 7.16343C26.0557 7.20041 26.0439 7.24841 26.0166 7.32258L26.0145 7.32734H24.584V7.97326C24.9905 7.97369 25.4229 8.01499 25.8722 8.09803L25.9576 8.17825L25.9872 8.27556C25.8998 8.51948 25.573 8.42888 25.31 8.35622L25.1114 8.30627L24.8356 8.29589L24.6604 8.26907L24.7223 8.32227C26.075 9.03176 26.9155 9.78753 26.9155 11.3469ZM23.9755 11.9387V8.47429C23.4371 8.33697 22.907 8.51083 22.5199 8.9524C22.219 9.2984 22.0509 9.7481 22.0476 10.2155C22.0476 10.3926 22.0735 10.5671 22.1273 10.7308C22.3284 11.3399 22.8796 11.753 23.68 11.8937C23.68 11.8937 23.9596 11.9363 23.9755 11.9387ZM24.5693 10.3376C24.8523 10.4308 24.9449 10.4239 25.2427 10.3513C25.415 10.3076 25.4794 10.3604 25.502 10.3958C25.5339 10.4451 25.5246 10.5165 25.4769 10.5865C25.367 10.7481 25.089 10.8646 24.7173 10.7608L24.5548 10.7172V11.9856L24.8103 11.9787C25.2042 11.9621 25.7991 11.9368 25.8988 12.0423L25.9141 12.0808C25.913 12.1087 25.9065 12.1362 25.895 12.1614C25.8835 12.1867 25.8671 12.2092 25.847 12.2276C25.6476 12.4198 25.0445 12.3943 24.7206 12.3805L24.5695 12.3755V13.9002C26.0742 13.564 26.4461 12.4912 26.4461 11.5142C26.4461 11.3724 26.438 11.2327 26.4245 11.0975C26.3181 10.0647 25.642 9.216 24.5693 8.76665V10.3376Z" fill="#8E8F8C"/>
<path fill-rule="evenodd" clip-rule="evenodd" d="M17.5032 14.4069C17.4984 14.405 17.4953 14.4043 17.4953 14.4043C17.3277 14.2952 17.1713 14.2586 17.0297 14.2956C16.8495 14.343 16.6853 14.513 16.5403 14.7993C16.8993 15.3147 17.0805 15.8385 17.0805 16.3641C17.0805 16.606 17.0424 16.8484 16.9661 17.0905C16.7487 17.7918 16.2142 18.5085 15.3803 19.2212L15.5236 19.2253C16.0106 19.2253 16.4795 19.1358 16.9177 18.9601C17.7237 17.938 18.1268 16.9917 18.1268 16.1299C18.1268 15.5106 17.9189 14.9355 17.5032 14.4069Z" fill="#8E8F8C"/>
<path fill-rule="evenodd" clip-rule="evenodd" d="M19.2253 15.9664C19.2253 15.7638 19.2029 15.562 19.1559 15.3646C19.0731 15.0182 18.9144 14.6982 18.6931 14.4316C18.5384 14.3044 18.4008 14.2578 18.2839 14.2931C18.1535 14.3324 18.0425 14.4764 17.9531 14.7194C18.2864 15.1979 18.4537 15.7169 18.4537 16.2737C18.4537 17.0104 18.1599 17.8136 17.5774 18.676C18.5766 18.1568 19.2253 17.0524 19.2253 15.9664Z" fill="#8E8F8C"/>
<path fill-rule="evenodd" clip-rule="evenodd" d="M15.953 15.3803C16.124 15.0879 16.3636 14.9597 16.6665 15C16.8153 14.739 16.9899 14.5819 17.1861 14.5346C17.338 14.4979 17.5043 14.5283 17.6799 14.6204C17.8032 14.3686 17.9576 14.2181 18.1404 14.1763C18.3112 14.1372 18.5087 14.1906 18.7281 14.3352L18.7355 14.3415C18.9454 14.538 19.1114 14.7652 19.2254 15.0122C19.1924 14.8884 19.1496 14.7666 19.0973 14.6477C19.084 14.6465 19.0688 14.6412 19.0573 14.6215C18.8422 14.2822 18.5249 14.0251 18.139 13.878C17.8621 13.7691 17.5583 13.7208 17.2369 13.7348C16.9258 13.7483 16.6224 13.8219 16.3499 13.9499C15.9282 14.143 15.5977 14.4483 15.3954 14.8287C15.3853 14.8905 15.3803 14.9469 15.3803 14.9975C15.3803 15.1144 15.4071 15.2004 15.4603 15.255C15.5457 15.3401 15.7024 15.3797 15.953 15.3803Z" fill="#8E8F8C"/>
<path fill-rule="evenodd" clip-rule="evenodd" d="M18.0929 13.598C18.3081 13.7061 18.5057 13.8712 18.676 14.0775C18.4703 13.69 18.2036 13.3409 17.8888 13.064C17.2914 12.6399 16.7324 12.5285 16.2276 12.7337C15.7432 12.9267 15.2861 13.4083 14.8694 14.1615C14.8455 14.2268 14.8324 14.2966 14.831 14.3673C14.831 14.4308 14.8442 14.4879 14.8708 14.538C14.9497 14.687 15.1517 14.7852 15.4692 14.831L15.4731 14.8172L15.4682 14.8308L15.4696 14.8119C15.658 14.3358 15.9785 13.9423 16.3825 13.6912C16.6437 13.5276 16.9345 13.4336 17.2326 13.4163C17.5367 13.3995 17.8345 13.4623 18.0929 13.598Z" fill="#8E8F8C"/>
<path fill-rule="evenodd" clip-rule="evenodd" d="M13.7324 13.7934C13.8006 14.0645 14.0271 14.2284 14.4051 14.2817C14.8747 13.3391 15.3999 12.7323 15.9655 12.478C16.3081 12.3306 16.6588 12.3197 17.0281 12.4284C16.5963 12.2048 16.146 12.0845 15.6834 12.0845C15.3683 12.0845 15.0465 12.14 14.7269 12.2496L14.735 12.2437C14.735 12.2437 14.7062 12.2636 14.7143 12.2611C14.2126 12.5666 13.8917 13.0681 13.7324 13.7934Z" fill="#8E8F8C"/>
<path fill-rule="evenodd" clip-rule="evenodd" d="M13.1831 14.3283C13.1831 14.5677 13.2252 14.795 13.3092 15.0091C13.513 15.5155 13.9437 15.9292 14.5887 16.2385C14.7806 16.3254 14.9416 16.3918 15.1054 16.4336C15.2592 16.4718 15.4179 16.486 15.5758 16.4756C15.5758 16.4756 15.6388 16.4562 15.6348 16.4589C15.8039 16.3031 15.8814 16.1929 15.9101 16.0651C15.9237 16.0139 15.9296 15.9594 15.9296 15.9012C15.9296 15.8025 15.9121 15.6923 15.8864 15.568C15.6285 15.5604 15.4609 15.5037 15.3627 15.3874C15.2903 15.2965 15.2556 15.1724 15.2556 15.0021C15.2556 14.9729 15.2572 14.9414 15.2594 14.9089C14.8892 14.8596 14.6462 14.7512 14.5396 14.5853C14.4958 14.5164 14.4731 14.4357 14.4744 14.3536C14.4744 14.3037 14.4843 14.2499 14.4986 14.1942C14.0922 14.143 13.8479 13.9812 13.7733 13.7075L13.774 13.6815C13.8876 13.2384 14.1018 12.8899 14.4021 12.6338C14.0277 12.8043 13.6919 13.0296 13.4064 13.3103C13.2577 13.6692 13.1831 14.0094 13.1831 14.3283Z" fill="#8E8F8C"/>
<path fill-rule="evenodd" clip-rule="evenodd" d="M15.903 17.3002C15.9207 17.2514 15.9295 17.1981 15.9295 17.1387C15.9295 17.079 15.9205 17.0134 15.9023 16.9412C15.8773 16.8399 15.8371 16.7427 15.7832 16.6524C15.5985 16.6657 15.4274 16.6524 15.2612 16.6111C15.0681 16.5674 14.8862 16.4924 14.7182 16.4181C14.0499 16.117 13.5847 15.6912 13.3734 15.1869C13.2817 14.9678 13.2352 14.7335 13.2366 14.4972C13.2366 14.2545 13.2846 13.9986 13.3754 13.7324C13.0298 14.1134 12.7721 14.559 12.6338 15.0311C12.636 15.0407 12.6386 15.052 12.6386 15.052C12.7595 15.9356 13.08 16.5945 13.5907 17.0102C14.0647 17.398 14.7284 17.5887 15.5607 17.577C15.6122 17.5672 15.6617 17.5491 15.707 17.5235C15.7991 17.4736 15.8688 17.3946 15.903 17.3002Z" fill="#8E8F8C"/>
<path fill-rule="evenodd" clip-rule="evenodd" d="M13.157 16.866C12.6459 16.4158 12.3107 15.7297 12.1557 14.831C12.1114 15.0784 12.0845 15.3222 12.0845 15.5561C12.0845 15.9102 12.1346 16.2701 12.2336 16.6261C12.5017 17.3442 12.8449 17.8833 13.2534 18.2282C13.6914 18.5893 14.2112 18.7333 14.7988 18.6556C14.9002 18.6452 14.9991 18.6168 15.0912 18.5716C15.1975 18.5135 15.2749 18.4351 15.3215 18.3387C15.3606 18.2573 15.3803 18.1653 15.3803 18.064C15.3803 18.0328 15.3786 18.0015 15.3751 17.9705C15.3583 17.8367 15.3131 17.6929 15.2426 17.5443C14.3582 17.5416 13.6758 17.3202 13.157 16.866Z" fill="#8E8F8C"/>
<path fill-rule="evenodd" clip-rule="evenodd" d="M14.9493 18.674C14.4974 18.7411 14.0899 18.6498 13.7324 18.4107C14.2381 18.8763 14.8599 19.1632 15.5103 19.2253C16.2639 18.4931 16.7424 17.763 16.9315 17.0549C16.9959 16.82 17.0281 16.5849 17.0281 16.3504C17.0281 15.8417 16.8762 15.3355 16.5748 14.8387C16.3258 14.7947 16.135 14.939 15.9939 15.2731L15.985 15.2918C16.0096 15.4238 16.0266 15.5418 16.0266 15.6503C16.0266 15.7208 16.0198 15.7872 16.0032 15.8515C15.9699 16.007 15.8832 16.1439 15.7079 16.3204C15.7584 16.4359 15.7971 16.5478 15.8217 16.6531C15.8399 16.7334 15.8493 16.8105 15.8493 16.8838C15.8493 16.9641 15.8383 17.04 15.8164 17.111C15.776 17.2419 15.6992 17.3455 15.5873 17.42C15.5416 17.4456 15.4898 17.4656 15.4358 17.4819C15.4946 17.6286 15.5333 17.7667 15.5476 17.891C15.5523 17.9278 15.5546 17.9644 15.5546 18.0004C15.5546 18.1085 15.5337 18.2125 15.4917 18.3115C15.4358 18.4271 15.3494 18.5203 15.2444 18.5783C15.1527 18.6321 15.0524 18.6646 14.9493 18.674Z" fill="#8E8F8C"/>
<path fill-rule="evenodd" clip-rule="evenodd" d="M13.6193 11.1428C13.5305 10.8381 13.3791 10.5436 13.17 10.2438C13.191 10.1458 13.1857 10.0579 13.1804 9.95981C13.1804 9.91839 13.1753 9.87719 13.1753 9.83054V9.75315C13.1804 9.67054 13.1804 9.59315 13.1597 9.52078C13.4155 9.08676 13.4887 8.6994 13.4261 8.17753C13.3479 8.22396 13.2745 8.27061 13.2172 8.34277C13.2015 8.26015 13.1912 8.17753 13.1755 8.08968C13.1702 8.05873 13.1286 8.04826 13.1077 8.07421C13.0398 8.15682 12.9719 8.23443 12.8987 8.31705C12.6898 8.55465 12.4966 8.80272 12.5122 9.14867V9.21058L12.4913 9.24154C12.2877 9.49985 12.1989 9.78411 12.1048 10.0732C12.0735 10.1765 12.0422 10.2798 12.0056 10.3831V8.23421L11.9952 8.22396C11.943 8.17753 11.9014 8.14135 11.8648 8.10516C11.75 8.00707 11.6559 7.96042 11.6506 7.71234C11.6455 7.59877 11.7237 7.5264 11.7707 7.49545C11.8073 7.46449 11.8595 7.46972 11.9377 7.51616C11.9481 7.55757 11.9587 7.58853 11.9534 7.61447C11.943 7.74352 11.8176 7.77469 12.0265 7.92445C12.0893 7.96565 12.1623 7.96063 12.246 7.84706C12.2845 7.79575 12.308 7.73497 12.3139 7.67136C12.3239 7.57417 12.3077 7.47611 12.2669 7.38711C12.226 7.29463 12.1633 7.21317 12.084 7.1495C12.0318 7.11331 11.9692 7.08236 11.9014 7.07734H11.8908C11.7028 7.09784 11.5774 7.15473 11.4939 7.24258C11.4051 7.33043 11.3632 7.44923 11.3319 7.59899C11.3057 7.75398 11.3372 7.89873 11.4102 8.03802C11.473 8.16729 11.5721 8.29132 11.6817 8.39465V11.7783C11.6766 11.7833 11.666 11.7833 11.6607 11.7885C11.551 11.8609 11.5459 12.0882 11.4727 12.2121C11.3839 12.3516 11.1907 12.3775 11.0759 12.4859C10.9128 12.6334 10.7023 12.955 10.705 12.9456V5.13463C10.5575 5.10798 10.4095 5.08385 10.2612 5.06226V5.21703H9.93193C9.87441 4.93822 9.4253 4.9537 9.36778 5.14989H9.14852C9.00748 4.83991 8.63682 4.91228 8.53237 5.14989H8.25052C8.11477 4.88133 7.75954 4.90182 7.62908 5.14989H7.39417C7.38381 4.97419 7.16961 4.95348 7.01822 5.01561C6.91376 5.06204 6.8406 5.13943 6.86154 5.23251H6.55875V5.01561C6.40714 5.03109 6.25574 5.05179 6.10435 5.0725V7.4076C5.88509 6.84453 5.71276 6.26599 5.56643 5.682C5.56136 5.6408 5.4882 5.66129 5.49327 5.69748L6.10413 8.47683V14.0355H10.4491C10.4502 14.0113 10.4491 14.087 10.4491 14.1491C10.4491 14.2472 10.7729 14.2317 10.8147 14.2265C10.8451 14.2228 10.8751 14.2195 10.9035 14.2173L10.893 14.831H11.7965C11.8148 14.7634 11.8293 14.6995 11.8465 14.633L11.8434 14.6398C11.8454 14.6322 11.8482 14.625 11.8502 14.6174L11.8465 14.633C11.8501 14.6255 11.8521 14.6172 11.8527 14.6088C12.0481 13.9237 12.4093 13.2992 12.8981 12.8006C13.1458 12.5452 13.4247 12.3213 13.7284 12.1342C13.7445 11.7678 13.7132 11.4476 13.6193 11.1428ZM10.3081 11.1376C10.2455 11.0602 9.49339 10.1612 9.18532 9.78433C9.57185 9.54149 9.89557 9.26246 10.1151 8.86986C10.1463 8.81297 10.1776 8.75106 10.2039 8.6837C10.2455 8.67346 10.277 8.65798 10.3083 8.63204L10.3081 11.1376ZM10.3081 8.12064C10.2527 8.07893 10.1846 8.0571 10.1151 8.05873C9.99495 8.05873 9.8905 8.12064 9.83298 8.21372L9.5562 8.34277C9.52469 8.2292 9.46739 8.11541 9.39423 7.9966C9.31379 7.87886 9.21906 7.77131 9.11216 7.67638C9.2219 7.49545 9.23226 7.31473 9.18003 7.12356C9.12274 6.93761 8.99713 6.74121 8.84044 6.52932C8.86667 6.48812 8.88738 6.4467 8.90325 6.40027C8.91889 6.34861 8.92396 6.2867 8.90854 6.20386C8.89796 6.13171 8.83537 6.04909 8.76221 5.95601C8.65776 5.82173 8.5273 5.65628 8.49072 5.45486C8.48565 5.41867 8.42813 5.41867 8.41756 5.44962C8.4089 5.50378 8.39125 5.55615 8.36533 5.60461C8.30803 5.71819 8.22958 5.80604 8.15642 5.88865C8.05726 5.99721 7.9788 6.09007 7.96845 6.19863C7.96316 6.25553 7.97374 6.31744 7.99467 6.37956C8.01032 6.43123 8.03125 6.47788 8.05725 6.52932C8.03643 6.5557 8.01722 6.58329 7.99974 6.61194C7.78047 6.92693 7.55063 7.26285 7.76483 7.67616C7.67095 7.75878 7.58192 7.85709 7.49862 7.96543C7.41023 8.07854 7.32997 8.19763 7.25842 8.32184L7.04422 8.20827C7.03386 8.19279 7.02858 8.18255 7.01822 8.16707C6.98585 8.13059 6.94552 8.10187 6.90028 8.08306C6.85504 8.06425 6.80608 8.05586 6.75708 8.05851C6.64734 8.06352 6.53253 8.12042 6.4803 8.23421V5.42913C6.5744 5.49627 6.67356 5.53769 6.75708 5.52723C6.80525 5.5229 6.85002 5.5008 6.88247 5.46532C6.92412 5.51698 6.96599 5.56341 7.01822 5.61006C7.09645 5.68745 7.18526 5.75459 7.27936 5.82696C7.34723 5.52723 7.37852 5.37224 7.54049 5.34652C7.70753 5.32079 7.87479 5.57388 7.97396 5.75982C8.07312 5.52221 8.18264 5.34652 8.30825 5.23796H8.50659C8.66327 5.36722 8.75736 5.55317 8.79901 5.77007C8.94005 5.52723 9.05486 5.29485 9.24812 5.31534C9.43632 5.33605 9.48833 5.58914 9.50926 5.82696C9.62407 5.68222 9.74946 5.54794 9.88543 5.42913C9.97424 5.49627 10.0421 5.52723 10.1153 5.52723C10.1779 5.52723 10.2354 5.49627 10.3083 5.44461L10.3081 8.12064Z" fill="#8E8F8C"/>
<path fill-rule="evenodd" clip-rule="evenodd" d="M9.08809 9.83285C9.47408 10.254 9.8634 10.6728 10.256 11.0892C10.3162 11.153 10.3764 11.2168 10.4366 11.2859V11.9461L10.256 11.8343L8.34181 10.7004C8.32625 10.6952 8.3091 10.6952 8.29355 10.7004L6.04226 12.0845V10.1415L6.32522 11.3073C6.33107 11.3286 6.36129 11.3392 6.38543 11.334C6.39127 11.334 6.40346 11.3286 6.40346 11.3181C6.49389 11.201 6.58406 11.0838 6.68643 10.9668C6.93332 10.6633 7.22823 10.3654 7.55946 10.0671V10.062C7.5653 10.062 7.5653 10.0566 7.5653 10.0566C7.56866 10.0488 7.56989 10.0404 7.56887 10.032C7.56786 10.0237 7.56463 10.0157 7.55946 10.0087C7.28843 9.81174 7.04763 9.58285 6.83096 9.33801H9.74445C9.55775 9.50311 9.34134 9.64687 9.10028 9.77984C9.07615 9.79018 9.07615 9.81691 9.08809 9.83285Z" fill="#8E8F8C"/>
<path fill-rule="evenodd" clip-rule="evenodd" d="M5.49302 6.59156C5.68877 7.12577 5.92765 7.64904 6.22128 8.15156V8.15669C6.21508 8.26782 6.28868 8.39992 6.41109 8.45816C6.47204 8.54273 6.52731 8.6273 6.58851 8.70674C6.68639 8.83884 6.78427 8.96581 6.89454 9.09278C7.12696 9.36233 7.38418 9.61627 7.6902 9.83317C7.67807 9.8383 7.04561 10.4287 6.59471 10.9859L6.58877 10.9701L5.49302 6.59156Z" fill="white"/>
<path fill-rule="evenodd" clip-rule="evenodd" d="M10.4364 12.0845L6.04226 12.0845V11.7345C6.06594 11.7298 7.03471 8.45213 8.82046 8.84873C8.98595 8.9312 10.4249 11.5985 10.4366 11.6034L10.4364 12.0845Z" fill="#8E8F8C"/>
<path fill-rule="evenodd" clip-rule="evenodd" d="M10.1655 8.23947C10.0329 8.23947 9.90616 8.23947 9.88864 8.23947C9.8716 8.23947 10.0215 8.23947 10.1655 8.23947C10.304 8.23947 10.4366 8.23947 10.4366 8.23947C10.4366 8.23947 10.2982 8.23947 10.1655 8.23947Z" fill="#8E8F8C"/>
<path fill-rule="evenodd" clip-rule="evenodd" d="M9.88215 8.76152C9.83527 8.76181 9.78893 8.75078 9.74653 8.72925C9.70414 8.70771 9.66677 8.67622 9.63718 8.63709C9.60759 8.59796 9.58653 8.55219 9.57555 8.50315C9.56458 8.4541 9.56396 8.40303 9.57375 8.35369L9.33105 8.47326C9.32529 8.4774 9.31782 8.47763 9.31078 8.47602V8.81063C9.31078 8.82693 9.29052 8.84873 9.27538 8.84873H8.82046C8.80532 8.84873 8.78506 8.82693 8.78506 8.81063V8.57677H7.71867V8.81063C7.71867 8.82693 7.69841 8.84873 7.68326 8.84873H7.22834C7.2132 8.84873 7.19294 8.82693 7.19294 8.81063V8.37871C7.18292 8.39776 7.17268 8.41612 7.16265 8.4354C7.15263 8.45169 7.12725 8.46271 7.11211 8.45169L6.95023 8.35943C6.97049 8.46271 6.94533 8.56598 6.88454 8.64218C6.853 8.68065 6.81406 8.71128 6.77042 8.73193C6.72677 8.75257 6.67947 8.76275 6.63181 8.76175H6.60643V8.75624H6.5915C6.60664 8.77804 6.61688 8.80512 6.63202 8.82693C6.71285 8.9683 6.79368 9.10439 6.88475 9.24026C6.90502 9.27285 6.92506 9.30544 6.95044 9.33803H9.52321C9.66718 9.1688 9.78804 8.9784 9.88215 8.77253C9.88215 8.76726 9.88215 8.76726 9.88727 8.76175L9.88215 8.76152ZM7.89057 6.60788C7.6967 6.92344 7.48428 7.25484 7.67921 7.65417L7.68326 7.65211C7.69841 7.65211 7.71867 7.6684 7.71867 7.69021V8.13085H8.8002V7.69021C8.8002 7.66703 8.82302 7.65188 8.84648 7.64867C8.94181 7.48067 8.95504 7.30763 8.90641 7.12448C8.85586 6.92849 8.73472 6.72745 8.57796 6.5046C8.56794 6.49358 8.56794 6.47178 8.57284 6.46099C8.60334 6.4066 8.62851 6.36851 8.63853 6.31962C8.65368 6.27625 8.65368 6.22185 8.64365 6.14566C8.63853 6.09127 8.58308 6.0098 8.51227 5.91708C8.43144 5.80278 8.33035 5.66141 8.27468 5.49296C8.25009 5.54971 8.22135 5.60427 8.18873 5.65613C8.1433 5.73233 8.08764 5.792 8.0373 5.85718C7.95647 5.95517 7.88567 6.04215 7.87543 6.13441C7.87052 6.18881 7.88055 6.23792 7.89569 6.29231C7.91574 6.3467 7.936 6.4066 7.96138 6.46627C7.9665 6.47178 7.9665 6.49358 7.96138 6.5046C7.93621 6.53696 7.91595 6.56978 7.89057 6.60788Z" fill="#8E8F8C"/>
<path fill-rule="evenodd" clip-rule="evenodd" d="M8.63274 6.7586C8.53628 6.65223 8.39536 6.59156 8.2394 6.59156C8.08375 6.59156 7.94252 6.65244 7.84606 6.7586C7.7496 6.85473 7.6901 6.99144 7.6901 7.1384C7.6901 7.28515 7.7496 7.42186 7.84606 7.52311C7.94252 7.62436 8.08375 7.69015 8.2394 7.69015C8.39536 7.69015 8.53628 7.62415 8.63274 7.52311C8.7295 7.42186 8.78869 7.28515 8.78869 7.1384C8.78869 6.99122 8.7295 6.85473 8.63274 6.7586Z" fill="#8E8F8C"/>
<path fill-rule="evenodd" clip-rule="evenodd" d="M8.47544 7.26921C8.40985 7.33609 8.3261 7.37792 8.23023 7.37792C8.13462 7.37792 8.05112 7.33609 7.98528 7.26921C7.91338 7.19809 7.8715 7.09768 7.8715 6.98491C7.8715 6.87621 7.91338 6.77562 7.98528 6.70468C8.05112 6.63356 8.13462 6.59156 8.23023 6.59156C8.3261 6.59156 8.4096 6.63338 8.47544 6.70468C8.54129 6.77562 8.58317 6.87621 8.58317 6.98491C8.58317 7.09768 8.54129 7.19792 8.47544 7.26921ZM6.32329 7.83798C6.16789 7.83798 6.04226 7.92586 6.04226 8.03862C6.04226 8.14733 6.16789 8.23945 6.32329 8.23945C6.48475 8.23945 6.61038 8.14733 6.61038 8.03862C6.61038 7.92568 6.48475 7.83798 6.32329 7.83798ZM10.1556 7.83798C9.99413 7.83798 9.8685 7.92586 9.8685 8.03862C9.8685 8.14733 9.99413 8.23945 10.1556 8.23945C10.311 8.23945 10.4366 8.14733 10.4366 8.03862C10.4366 7.92568 10.311 7.83798 10.1556 7.83798Z" fill="white"/>
<path fill-rule="evenodd" clip-rule="evenodd" d="M12.933 9.22435C12.8307 9.17967 12.7173 9.15937 12.6038 9.16542V9.1557C12.5926 8.8813 12.7464 8.67039 12.933 8.47457C13.0098 8.39124 13.0864 8.31784 13.158 8.23947C13.2073 8.55294 13.3554 9.11662 13.1689 9.4303C13.1122 9.34405 13.0308 9.27293 12.933 9.22435ZM10.4367 13.8795L10.5135 13.9041C10.5628 13.9238 10.6506 13.9139 10.7386 13.9041C10.8374 13.8944 10.936 13.8795 11.002 13.9091C11.0897 13.9532 11.1502 13.9924 11.1939 14.0268C11.2872 14.0905 11.3421 14.1248 11.5669 14.0905C11.578 14.0905 11.5944 14.0952 11.6053 14.1051C11.6546 14.1688 11.6822 14.2031 11.7095 14.2228C11.7315 14.2424 11.7643 14.2571 11.8136 14.2817C11.9618 13.8113 12.2088 13.38 12.5269 12.9929C12.8567 12.5977 13.2637 12.2591 13.7284 11.9933C13.7448 11.6503 13.712 11.3513 13.6187 11.0672C13.5309 10.8025 13.3936 10.5574 13.2017 10.2977C13.1469 10.6065 13.0702 10.8564 12.9054 11.0525C12.7299 11.2679 12.4556 11.4249 12.0111 11.5326C12.0056 11.5326 12.0002 11.5326 11.9947 11.5374V12.2578C11.9936 12.2666 11.9898 12.2751 11.9838 12.2822C11.94 12.3262 11.9016 12.3802 11.8576 12.4488C11.8136 12.5222 11.7699 12.6056 11.7259 12.7086C11.715 12.7379 11.6546 12.7282 11.6546 12.6939V11.7332H11.6493C11.6384 11.7675 11.6273 11.7971 11.6164 11.8312C11.5889 11.9245 11.556 12.0125 11.5011 12.0959C11.4354 12.1889 11.3365 12.2332 11.2377 12.282C11.1772 12.3115 11.1171 12.3359 11.0677 12.375C10.8365 12.5604 10.6642 12.7971 10.5684 13.0611C10.4751 13.3111 10.4367 13.5855 10.4367 13.8795Z" fill="#8E8F8C"/>
<path fill-rule="evenodd" clip-rule="evenodd" d="M12.533 9.58055C12.4978 9.57537 12.47 9.58551 12.4419 9.60601C12.4068 9.62652 12.3858 9.66234 12.379 9.69817C12.3722 9.73896 12.379 9.77479 12.4 9.80047C12.4209 9.82616 12.449 9.84666 12.4771 9.84666C12.512 9.85162 12.5401 9.84148 12.5682 9.82098C12.6033 9.80047 12.6243 9.76464 12.6311 9.72882C12.6382 9.68803 12.6311 9.6522 12.6101 9.62652C12.6038 9.61466 12.5933 9.60419 12.5798 9.59614C12.5663 9.58809 12.5502 9.58272 12.533 9.58055ZM11.6993 8.24567C11.6434 8.20488 11.5944 8.17402 11.5521 8.14337C11.3771 8.03092 11.2928 7.97459 11.2228 7.70352L11.2296 7.68819C11.2857 7.56021 11.3416 7.46827 11.4259 7.4223C11.629 7.30985 11.853 7.4428 11.8321 7.60661C11.8321 7.64244 11.8111 7.67309 11.783 7.71906C11.8111 7.77021 11.846 7.82136 11.895 7.84683C11.9302 7.86733 11.9793 7.85719 12.049 7.7905C12.0842 7.7497 12.112 7.70373 12.1191 7.65237C12.1315 7.5667 12.1122 7.48017 12.0632 7.40179C12.0142 7.32518 11.9441 7.24834 11.853 7.20237C11.7901 7.17173 11.7268 7.14604 11.657 7.14086C11.4327 7.16137 11.2857 7.20755 11.1876 7.28417C11.0894 7.35582 11.0336 7.46309 10.9984 7.60122C10.9632 7.73417 11.0052 7.86711 11.0894 7.98992C11.1858 8.11719 11.3087 8.23274 11.4537 8.33243L11.4676 8.34776V12.6338C11.4885 12.593 11.5166 12.5572 11.5376 12.5266C11.5935 12.4549 11.6497 12.3936 11.6987 12.3474L11.6993 8.24567Z" fill="white"/>
<path fill-rule="evenodd" clip-rule="evenodd" d="M5.94501 13.945C5.91113 13.7554 5.87154 13.5658 5.84339 13.3712C5.815 13.1148 5.80355 12.8537 5.79234 12.5923C5.78113 12.3925 5.7754 12.1925 5.75274 11.9928C5.75151 11.9835 5.74765 11.9746 5.74153 11.967C5.66806 11.9004 5.60007 11.8339 5.5266 11.7621C5.35127 11.5826 5.17045 11.4034 4.95003 11.2908V8.44734C5.0631 8.34487 5.17069 8.22185 5.24392 8.09364C5.31763 7.95528 5.35699 7.81194 5.32312 7.65822C5.29473 7.50948 5.24392 7.39187 5.15351 7.30474C5.06883 7.22799 4.95552 7.17654 4.79736 7.15102C4.77149 7.14485 4.74491 7.14144 4.71816 7.14086H4.70147C4.63212 7.15064 4.56631 7.17516 4.50944 7.21242C4.49799 7.2228 4.48105 7.23296 4.4696 7.24831C4.40185 7.29955 4.3508 7.37133 4.31144 7.44808C4.27161 7.5404 4.24918 7.63768 4.26063 7.73C4.27184 7.79659 4.29451 7.85302 4.33411 7.90426C4.38492 7.96566 4.43024 7.99138 4.46984 8.00154C4.50967 8.00673 4.54331 8.00154 4.5717 7.98122C4.62823 7.94014 4.66783 7.86858 4.69598 7.80178V7.77086C4.66783 7.72481 4.65638 7.6993 4.65089 7.67357C4.65089 7.64785 4.65662 7.61715 4.67356 7.57607C4.68501 7.5711 4.69049 7.56591 4.70194 7.56072C4.70194 7.56072 4.70767 7.56072 4.70767 7.55575H4.71315C4.73925 7.54304 4.76824 7.53601 4.79784 7.53521C4.8205 7.53521 4.83744 7.5404 4.85437 7.55575C4.90518 7.58666 4.94478 7.66341 4.98438 7.77086C4.9393 7.97582 4.88825 8.04241 4.79784 8.11937C4.7809 8.13472 4.76396 8.15007 4.74703 8.16045C4.73582 8.17061 4.72437 8.18099 4.71292 8.18618C4.71292 8.19115 4.70743 8.19115 4.70743 8.19634C4.70743 8.19634 4.7017 8.19634 4.7017 8.20153C4.67007 8.22562 4.63989 8.25124 4.6113 8.27828C4.60524 8.28579 4.60139 8.29456 4.60008 8.30379V10.261H4.47008V10.2405C4.44752 10.092 4.40182 9.94712 4.33434 9.81025C4.2373 9.61183 4.10354 9.42991 3.93883 9.27235L3.91617 9.1956C3.91617 9.13917 3.91617 9.08794 3.91045 9.03151C3.90496 8.91887 3.90496 8.8112 3.89351 8.70354C3.87085 8.52928 3.83697 8.36022 3.74657 8.19115L3.65544 8.01711C3.64423 7.99138 3.59891 7.99138 3.58769 8.01711L3.55382 8.06316C3.53116 8.09905 3.5085 8.13494 3.48035 8.17061L3.42954 8.24736C3.41871 8.22083 3.40547 8.19515 3.38994 8.17061C3.36728 8.12456 3.34485 8.07851 3.31647 8.03224C3.30526 8.01171 3.27687 8.00673 3.25993 8.01689C3.02806 8.16542 2.92072 8.42162 2.89233 8.70332C2.85273 9.06199 2.93742 9.46672 3.05645 9.72291C3.045 9.83555 2.98847 9.87662 2.92072 9.92786C2.86991 9.96375 2.81313 10.0046 2.76232 10.0766C2.70579 10.1585 2.68313 10.2558 2.66619 10.3482L2.64925 10.4096V10.4197C2.66046 10.512 2.69458 10.5836 2.74539 10.6504C2.79047 10.7014 2.84152 10.7477 2.90378 10.7888L2.81337 10.9732C2.76795 11.1006 2.71895 11.227 2.66643 11.3522C2.54787 11.6596 2.42908 11.9618 2.36681 12.2898C2.25374 12.8891 2.21414 13.499 2.19721 14.1087C2.19721 14.1087 2.20293 14.1292 2.20866 14.1292L2.27068 14.201L2.27641 14.206C2.38948 14.2827 2.4348 14.2827 2.37826 14.2624L2.30455 14.831H5.71887C5.71887 14.826 5.71887 14.8208 5.71338 14.8208L5.56071 14.4827L6.00178 14.5186C6.02444 14.5186 6.04711 14.4981 6.04138 14.4777C6.01752 14.299 5.98536 14.1213 5.94501 13.945Z" fill="#8E8F8C"/>
<path fill-rule="evenodd" clip-rule="evenodd" d="M4.51581 8.19495C4.52007 8.19001 4.52415 8.18506 4.53267 8.18033V8.17559L4.53693 8.17085L4.54101 8.16591C4.5664 8.14141 4.58734 8.11711 4.60403 8.10249C4.60403 8.09755 4.60403 8.09755 4.60829 8.09755C4.71338 7.99027 4.76379 7.93652 4.80177 7.67789V7.66327C4.76823 7.54116 4.73042 7.45344 4.68409 7.40958C4.66064 7.39049 4.63268 7.38027 4.60403 7.38034C4.58308 7.38034 4.56622 7.38034 4.54101 7.39002L4.53693 7.39476H4.53267C4.51083 7.40589 4.48976 7.41897 4.46966 7.43388C4.4654 7.43862 4.45705 7.4485 4.45705 7.45344C4.44019 7.51213 4.43167 7.54611 4.43593 7.58523C4.44001 7.61941 4.44853 7.64865 4.46948 7.69251C4.44853 7.74131 4.42741 7.79012 4.4022 7.81441C4.38978 7.8243 4.377 7.8243 4.36013 7.81441C4.34327 7.80968 4.32658 7.79012 4.30972 7.76067C4.28535 7.72217 4.27077 7.67651 4.26765 7.62888C4.25931 7.55084 4.27191 7.46786 4.29712 7.38982C4.31398 7.35069 4.33493 7.31177 4.36013 7.27265C4.38126 7.24341 4.4022 7.21911 4.42741 7.19955C4.45687 7.17031 4.49468 7.15075 4.53249 7.1458V7.14086H4.54492C4.56604 7.1458 4.58291 7.1458 4.60385 7.15075C4.70486 7.17504 4.77639 7.21911 4.8268 7.27759C4.88574 7.34595 4.9152 7.4483 4.93615 7.58008C4.95727 7.70693 4.93207 7.83377 4.88148 7.95094C4.83089 8.0681 4.75101 8.18012 4.66687 8.27773C4.66168 8.28631 4.65878 8.29648 4.65852 8.30697V10.9859C4.6374 10.9763 4.62072 10.9713 4.60385 10.9616H4.59977V10.9569H4.58717V10.952H4.57882C4.57456 10.9472 4.56622 10.9472 4.55788 10.9423C4.55362 10.9423 4.54936 10.9373 4.5451 10.9373H4.52433V10.9423H4.51599L4.51581 8.19495ZM3.93091 9.4881C3.94298 9.49252 3.95436 9.49912 3.96464 9.50766C3.98559 9.52228 4.00245 9.55152 4.01079 9.5857C4.01914 9.61989 4.01505 9.65407 4.00653 9.68331C3.99393 9.70781 3.97707 9.72717 3.95612 9.73211C3.94778 9.73705 3.93926 9.73705 3.93074 9.73705C3.91813 9.73211 3.90553 9.72737 3.89293 9.71749C3.88136 9.70777 3.87165 9.69539 3.86441 9.6811C3.85717 9.66682 3.85255 9.65096 3.85086 9.63451C3.84251 9.60032 3.84251 9.56614 3.85512 9.54184C3.8593 9.52971 3.86556 9.51869 3.87352 9.50945C3.88149 9.50021 3.89099 9.49295 3.90145 9.4881H3.93091Z" fill="white"/>
<path fill-rule="evenodd" clip-rule="evenodd" d="M3.64679 8.33421C3.65086 8.32916 3.65086 8.32916 3.65086 8.32431C3.6668 8.29421 3.67901 8.26936 3.69495 8.23947L3.73515 8.34432C3.83147 8.59865 3.83961 8.86329 3.84775 9.13763L3.85572 9.31237C3.77534 9.27258 3.70699 9.30227 3.65086 9.35722C3.60253 9.40712 3.55843 9.47701 3.52621 9.53702C3.52231 9.54186 3.52231 9.54186 3.52231 9.54691C3.51824 9.54691 3.51824 9.55175 3.51824 9.55175L3.5062 9.5667C3.38155 8.99783 3.46601 8.70834 3.64679 8.33421ZM3.89185 14.2817C3.81146 14.2718 2.84294 14.172 2.77867 14.1171L2.74645 14.0621C2.75849 13.4834 2.78664 12.8947 2.86312 12.3208C2.90739 12.0064 2.99167 11.7121 3.07613 11.4176C3.10818 11.298 3.14447 11.1782 3.17669 11.0485L3.2369 10.8788H3.2447C3.2447 10.8788 3.24877 10.8788 3.24877 10.8737H3.25284C3.33322 10.8137 3.36934 10.7739 3.39343 10.7491C3.40954 10.7341 3.41768 10.724 3.42955 10.719C3.47381 10.704 3.57031 10.724 3.65069 10.744C3.69088 10.7539 3.72294 10.764 3.74719 10.7691C3.79535 10.7891 3.84351 10.804 3.89185 10.8139C4.01242 10.844 4.13707 10.8289 4.23357 10.7141C4.26969 10.6743 4.28987 10.6242 4.30191 10.5746C4.31395 10.5196 4.31395 10.4596 4.30988 10.3998H4.39433V11.2729C4.36211 11.2927 4.33006 11.3079 4.30191 11.3279C4.15099 11.4244 4.01278 11.5488 3.89201 11.6969C3.80237 11.7993 3.7216 11.9131 3.65103 12.0363C3.38579 12.4803 3.20501 13.0341 3.06426 13.5979C3.06426 13.608 3.06426 13.6128 3.06035 13.6229C3.06035 13.628 3.05645 13.6379 3.05645 13.6429V13.6478C3.05238 13.6526 3.05238 13.6627 3.05238 13.6678C3.04831 13.6777 3.04831 13.6827 3.04831 13.6928C3.04441 13.7078 3.05645 13.7326 3.0685 13.7326C3.09682 13.7377 3.1248 13.7425 3.15685 13.7476C3.31762 13.7775 3.46635 13.8074 3.63509 13.8175C3.64115 13.8163 3.64677 13.8129 3.6512 13.8076C3.6551 13.8076 3.65917 13.8025 3.65917 13.8025C3.74363 13.6629 3.81994 13.5133 3.89218 13.3587V13.5733C3.89625 13.8129 3.90422 14.0472 3.91237 14.2817H3.89185Z" fill="#8E8F8C"/>
<path fill-rule="evenodd" clip-rule="evenodd" d="M5.57108 14.4001C5.54152 14.4001 5.51793 14.4282 5.5296 14.456L5.68855 14.831H5.42951L5.58846 13.3536C5.58846 13.3369 5.59442 13.3144 5.55319 13.3144C5.51197 13.3088 5.50625 13.3255 5.50625 13.348L5.3473 14.8251V14.8307H5.12974L5.28869 13.6332C5.28869 13.6164 5.2944 13.594 5.25317 13.594C5.21194 13.5883 5.20623 13.6051 5.20623 13.6275L5.04728 14.8305H4.02303C4.02303 14.6737 4.01732 14.5172 4.01136 14.3604V14.3547C3.99944 14.075 3.9818 13.8008 3.97584 13.521V13.3029L4.11716 12.9112C4.12312 12.9057 4.12312 12.9001 4.12883 12.8944V12.8835H4.13455V12.8724H4.14051V12.8616H4.14647V12.8448H4.15218L4.49368 12.3301L4.57614 12.2014C4.58185 12.1957 4.58185 12.1903 4.58185 12.1844C4.59948 12.0838 4.55229 12.1117 4.49368 12.1676C4.43442 12.2314 4.37943 12.2987 4.32901 12.3691C4.32901 12.3691 4.32902 12.3747 4.32305 12.3747C4.32305 12.3802 4.32305 12.3801 4.31709 12.3858C4.31709 12.3858 4.31709 12.3912 4.31113 12.3912C4.31113 12.3969 4.31113 12.3969 4.30542 12.4026C4.30542 12.4026 4.30542 12.408 4.29971 12.408C4.29971 12.4134 4.29971 12.4191 4.29375 12.4191C4.29375 12.4248 4.29375 12.4248 4.28779 12.4302L4.28207 12.4359C4.28207 12.4415 4.27636 12.447 4.27636 12.447C4.27636 12.4526 4.2704 12.4526 4.2704 12.4581C4.2704 12.4581 4.26469 12.4637 4.26469 12.4692C4.25873 12.4692 4.25873 12.4748 4.25873 12.4748C4.25277 12.4803 4.25277 12.4859 4.25277 12.4859C4.24705 12.4914 4.24706 12.4914 4.24706 12.497L4.23538 12.5081C4.23538 12.5136 4.23538 12.5136 4.22942 12.5192C4.17056 12.6198 4.12362 12.7374 4.0588 12.8382L4.05283 12.8436C4.04116 12.8774 4.02328 12.8996 4.00589 12.9331V12.9388H3.99993C3.96467 13.0004 3.9294 13.0564 3.89388 13.1123C3.78212 13.297 3.67036 13.4816 3.54096 13.6551C3.52911 13.6732 3.51529 13.6901 3.49973 13.7054C3.25499 13.6932 3.01124 13.667 2.76979 13.6271H2.75241V13.6214H2.74645C2.93495 13.0228 3.1704 12.4687 3.54121 11.9429C3.54692 11.9372 3.55288 11.9261 3.55884 11.9204C3.65893 11.7804 3.77094 11.6463 3.89438 11.5287C4.07693 11.3441 4.27711 11.1873 4.49467 11.0811C4.55353 11.053 4.61836 11.0251 4.68293 11.0027L4.72987 10.9859H4.75918C4.78873 10.9972 4.81208 11.0083 4.83567 11.014C5.11235 11.1259 5.3242 11.3498 5.53606 11.5736C5.60684 11.6466 5.67713 11.719 5.74816 11.7863C5.76579 12.0045 5.77747 12.2172 5.78343 12.4297C5.7951 12.7098 5.80702 12.995 5.84229 13.2859C5.8716 13.4984 5.91282 13.7054 5.94809 13.9182C5.98361 14.0917 6.01888 14.2653 6.04222 14.4442L5.57108 14.4001Z" fill="#8E8F8C"/>
<path fill-rule="evenodd" clip-rule="evenodd" d="M4.39769 14.2203C4.40685 14.189 4.41153 14.1573 4.42069 14.126C4.43952 14.0678 4.452 14.0062 4.45773 13.9431C4.46241 13.8801 4.45773 13.8299 4.45325 13.7794C4.44857 13.6975 4.43921 13.622 4.46709 13.4961L4.47157 13.4836L4.87357 12.8348C4.88273 12.8034 4.8644 12.7468 4.84588 12.6902C4.82736 12.6336 4.81352 12.5767 4.81352 12.5201C4.80904 12.4318 4.83204 12.3122 4.85037 12.224C4.85953 12.1801 4.86889 12.1421 4.86889 12.1233C4.87337 12.1044 4.87337 12.0791 4.90573 12.0855C4.93829 12.0916 4.93829 12.1108 4.93361 12.1358C4.93361 12.161 4.92445 12.2051 4.91509 12.2493C4.89657 12.3311 4.87824 12.4382 4.87824 12.5201C4.87824 12.5581 4.89209 12.602 4.90593 12.6525C4.93381 12.7343 4.96149 12.8162 4.92913 12.8853V12.8917L4.52713 13.5341C4.50861 13.6348 4.51329 13.6978 4.51797 13.7672C4.52246 13.8238 4.52713 13.8804 4.52246 13.95C4.51728 14.0213 4.50488 14.0912 4.48561 14.1579C4.47645 14.1895 4.46709 14.2209 4.4626 14.2461C4.45793 14.2714 4.45344 14.2902 4.42089 14.2777C4.38852 14.2645 4.39301 14.2456 4.39769 14.2203Z" fill="#8E8F8C"/>
</svg>
