<svg width="32" height="39" viewBox="0 0 32 39" fill="none" xmlns="http://www.w3.org/2000/svg">
<path fill-rule="evenodd" clip-rule="evenodd" d="M23.5753 2.0826C21.6929 2.0249 19.7955 1.61992 17.8977 0.888961C17.239 0.630196 16.5919 0.342401 15.9583 0.0264071V0C15.9486 0.000125287 15.9393 0.00383645 15.9321 0.0104296C15.924 0.0055008 15.9152 0.00197534 15.9059 0V0.0261851C15.2231 0.362819 14.5453 0.662615 13.8623 0.92025C11.975 1.64078 10.093 2.02979 8.22135 2.08238C5.44797 2.15605 2.70034 1.48279 0 0V6.16348C0.448333 16.9493 3.35216 25.2584 8.22135 31.5903C9.87917 33.7517 11.7664 35.6818 13.8623 37.4016C14.5255 37.9456 15.2071 38.4665 15.9059 38.9632V39C15.9139 38.9936 15.9227 38.9884 15.9321 38.9845C15.9401 38.9908 15.9489 38.996 15.9583 39V38.9632C16.6179 38.4867 17.2646 37.9922 17.8977 37.4804C20.0038 35.7606 21.9069 33.8307 23.5753 31.6691C28.4755 25.327 31.4055 16.9968 31.8592 6.16348V0.0157554V0C29.1326 1.49366 26.3694 2.1667 23.5753 2.0826Z" fill="#8E8F8C"/>
<path fill-rule="evenodd" clip-rule="evenodd" d="M1.09863 6.64356C3.53264 5.5054 5.90927 4.92872 8.23948 4.94415C10.1492 4.95958 12.0226 5.36634 13.8547 6.18508C14.3684 6.41171 14.8769 6.67419 15.3803 6.96275V11.5304C14.8355 11.5871 14.3218 11.7518 13.8547 11.9938C13.308 12.284 12.8308 12.6876 12.4556 13.1772C12.0804 13.6669 11.8159 14.231 11.6802 14.8312H2.10027C1.55018 12.1687 1.22323 9.42419 1.09863 6.64356Z" fill="white"/>
<path fill-rule="evenodd" clip-rule="evenodd" d="M15.6575 12.0845H15.7314C16.4461 12.0981 17.1399 12.3279 17.7212 12.7436C18.6289 13.3923 19.2253 14.4525 19.2253 15.6549C19.2253 16.8519 18.6289 17.9174 17.7212 18.5662C17.1388 18.9796 16.4457 19.2092 15.7314 19.2253H15.6575C14.9346 19.2268 14.2288 19.0058 13.636 18.5924C12.7018 17.949 12.0845 16.8731 12.0845 15.6549C12.0845 14.4367 12.7018 13.3554 13.636 12.712C14.2304 12.3026 14.9355 12.0837 15.6575 12.0845Z" fill="#8E8F8C"/>
<path fill-rule="evenodd" clip-rule="evenodd" d="M29.8204 14.8312H20.0898C19.8248 13.6292 19.0297 12.6113 17.9596 12.0385C17.5008 11.7898 16.9985 11.6285 16.479 11.5628V7.06673C16.9479 6.73948 17.4431 6.45039 17.9596 6.20231C19.5751 5.4197 21.5027 4.95436 23.6175 4.944C25.8462 4.93385 28.2828 5.43502 30.7607 6.62168C30.6309 9.38372 30.3709 12.1868 29.8204 14.8312Z" fill="white"/>
<path fill-rule="evenodd" clip-rule="evenodd" d="M30.729 5.54326C28.2825 4.36311 25.8565 3.84345 23.5187 3.8746C21.5632 3.90071 19.6752 4.31639 17.8855 5.04948C17.2182 5.325 16.5715 5.64723 15.9353 6.00588C15.926 6.00984 15.9172 6.01508 15.9093 6.02146V6.04229H15.9043C15.2371 5.67312 14.5646 5.35088 13.8819 5.08041C12.0456 4.34754 10.1679 3.97309 8.28513 3.96278C5.89536 3.95247 3.49532 4.52939 1.14178 5.71984C1.08999 4.34109 1.08482 2.96098 1.12629 1.58188L1.15728 1.59745C3.53658 2.59553 5.91609 3.06364 8.28491 3.02196C10.1574 2.98555 12.0246 2.63194 13.8816 1.96159C14.5816 1.71272 15.2672 1.42462 15.9351 1.09863C16.5701 1.40864 17.2211 1.68454 17.8853 1.92517C19.7163 2.58544 21.6145 2.96493 23.5184 3.02196C25.9547 3.09983 28.4065 2.64247 30.734 1.58188C30.7703 2.90767 30.7703 4.22799 30.729 5.54326Z" fill="#8E8F8C"/>
<path fill-rule="evenodd" clip-rule="evenodd" d="M4.78191 15.9297H2.19727C2.81268 18.6474 3.66434 21.2791 4.78191 23.7847V15.9297ZM9.68352 15.9297H7.23537V28.3825C7.23537 28.3825 7.24222 28.468 8.17906 29.803C8.65657 30.4815 9.15846 31.1425 9.68374 31.7844L9.68352 15.9297ZM14.6533 19.9779C14.3756 19.8965 14.1069 19.7869 13.8514 19.6507C13.137 19.2727 12.5429 18.7006 12.137 17.9998V34.4759C12.6904 35.0218 13.2622 35.5487 13.8514 36.0556C14.1142 36.2804 14.3823 36.5011 14.6533 36.7201V19.9779ZM19.6181 17.9298C19.6186 17.9289 19.619 17.9276 19.6199 17.9267C19.2213 18.6452 18.6281 19.2357 17.9091 19.6296C17.652 19.7693 17.3814 19.8824 17.1016 19.9672V36.8029C17.9763 36.1022 18.8162 35.3589 19.6184 34.5756V17.9298H19.6181ZM29.6621 15.9297H26.9677V24.0192C26.8819 24.2088 28.8062 20.164 29.6621 15.9297ZM24.5193 15.9297H22.0661V31.9137C21.7836 32.2564 22.8753 30.9385 23.6181 29.8876C23.9288 29.4462 24.2293 28.9977 24.5193 28.5424V15.9297Z" fill="white"/>
<path fill-rule="evenodd" clip-rule="evenodd" d="M7.3734 15.9297V28.1788C6.45618 26.7321 5.64416 25.2217 4.9436 23.6592V15.9297H7.3734ZM12.2277 17.9591V34.1735C11.3706 33.3361 10.5594 32.4531 9.79795 31.5283V15.9297H11.6566C11.6716 16.6435 11.8681 17.3418 12.2277 17.9591ZM17.1443 19.9007V36.4618C16.7641 36.7658 16.3781 37.0627 15.9867 37.3522C15.557 37.0392 15.1346 36.7164 14.7198 36.384V19.911C15.0988 20.0248 15.5039 20.082 15.914 20.082C16.3308 20.0828 16.7455 20.0217 17.1443 19.9007ZM22.0611 15.9297V31.6521C21.3012 32.5686 20.4919 33.4431 19.6368 34.2718V17.8971C19.9737 17.2949 20.1572 16.6194 20.1711 15.9299L22.0611 15.9297ZM26.9154 15.9297V23.8868C26.2153 25.427 25.4049 26.9149 24.4907 28.3391V15.9297H26.9154Z" fill="#8E8F8C"/>
<path fill-rule="evenodd" clip-rule="evenodd" d="M26.9156 11.3471C26.9156 11.3644 26.9156 11.3819 26.9152 11.3994C26.8961 13.1029 26.0265 14.0996 24.4001 14.2819H23.9532C23.4173 14.2614 22.2994 14.1061 22.1429 13.8388C22.1325 13.8223 22.1265 13.8033 22.1254 13.7836C22.1242 13.7639 22.1281 13.7443 22.1364 13.7266C22.2391 13.5661 22.6991 13.7214 23.0352 13.8347L23.117 13.862C23.3543 13.9413 23.7204 13.9188 23.9627 13.9037L23.9756 13.903V12.3186L23.6475 12.3035L23.3284 12.2265C21.9209 11.8133 21.4226 10.8679 21.4226 10.1002C21.4226 10.0818 21.423 10.0634 21.4234 10.0453C21.453 9.09619 22.1948 8.29783 23.2711 8.05412L23.1723 7.96352C22.9954 7.80198 22.8281 7.64975 22.7297 7.41037C22.6303 7.1712 22.5804 6.94328 22.5804 6.73202C22.5804 6.51685 22.6318 6.31921 22.7349 6.14513C22.9619 5.7626 23.4216 5.52495 23.9973 5.49316H23.9981L24.4013 5.55479C24.6258 5.58939 25.4829 6.06707 25.5318 6.42538C25.5451 6.52529 25.4927 6.60465 25.3748 6.66087L25.3701 6.66325L25.3664 6.65893C25.099 6.33586 24.5069 5.93949 24.0866 5.88781L23.8507 5.90316C23.5732 5.91722 23.3034 6.12978 23.1797 6.43144C23.117 6.57913 23.089 6.71407 23.089 6.83841C23.089 7.33101 23.5262 7.65559 23.9607 7.92632V7.00989L25.9862 7.01313L26.0031 7.03821C26.035 7.08471 26.0557 7.11476 26.0557 7.16364C26.0557 7.20061 26.0439 7.24862 26.0166 7.32279L26.0145 7.32755H24.584V7.97346C24.9905 7.9739 25.4229 8.0152 25.8723 8.09823L25.9576 8.17846L25.9872 8.27577C25.8998 8.51969 25.573 8.42909 25.31 8.35643L25.1114 8.30648L24.8356 8.2961L24.6604 8.26928L24.7223 8.32248C26.075 9.03197 26.9156 9.78773 26.9156 11.3471ZM23.9756 11.9389V8.4745C23.4371 8.33718 22.907 8.51104 22.52 8.95261C22.219 9.29861 22.0509 9.74831 22.0476 10.2157C22.0476 10.3928 22.0735 10.5673 22.1273 10.731C22.3284 11.3401 22.8797 11.7532 23.6801 11.8939C23.6798 11.8942 23.9596 11.9365 23.9756 11.9389ZM24.5693 10.3379C24.8524 10.4311 24.9449 10.4241 25.2427 10.3515C25.415 10.3078 25.4794 10.3606 25.502 10.396C25.5339 10.4453 25.5246 10.5167 25.4769 10.5868C25.367 10.7483 25.0891 10.8648 24.7173 10.761L24.5548 10.7174V11.9858L24.8103 11.9789C25.2042 11.9623 25.7992 11.937 25.8988 12.0425L25.9141 12.081C25.9131 12.1089 25.9066 12.1364 25.895 12.1616C25.8835 12.1869 25.8672 12.2094 25.847 12.2278C25.6476 12.4201 25.0445 12.3945 24.7207 12.3807L24.5695 12.3757V13.9004C26.0742 13.5642 26.4461 12.4914 26.4461 11.5144C26.4461 11.3726 26.438 11.2329 26.4246 11.0977C26.3181 10.065 25.642 9.21621 24.5693 8.76686V10.3379Z" fill="#8E8F8C"/>
<path fill-rule="evenodd" clip-rule="evenodd" d="M17.5032 14.4069C17.4985 14.4051 17.4944 14.4035 17.4954 14.4044C17.3278 14.2953 17.1714 14.2587 17.0298 14.2957C16.8496 14.3431 16.6853 14.5131 16.5404 14.7994C16.8994 15.3148 17.0806 15.8386 17.0806 16.3642C17.0806 16.6061 17.0424 16.8484 16.9661 17.0905C16.7487 17.7919 16.2143 18.5085 15.3804 19.2212L15.5236 19.2254C16.0107 19.2254 16.4796 19.1359 16.9177 18.9602C17.7237 17.9381 18.1269 16.9918 18.1269 16.13C18.1269 15.5107 17.919 14.9356 17.5032 14.4069Z" fill="#8E8F8C"/>
<path fill-rule="evenodd" clip-rule="evenodd" d="M19.2253 15.9665C19.2253 15.7639 19.2029 15.5621 19.1558 15.3647C19.0731 15.0183 18.9144 14.6983 18.693 14.4317C18.5383 14.3045 18.4008 14.2579 18.2839 14.2932C18.1535 14.3325 18.0424 14.4765 17.953 14.7195C18.2863 15.198 18.4537 15.717 18.4537 16.2738C18.4537 17.0105 18.1599 17.8137 17.5774 18.6761C18.5766 18.1569 19.2253 17.0525 19.2253 15.9665Z" fill="#8E8F8C"/>
<path fill-rule="evenodd" clip-rule="evenodd" d="M15.953 15.3803C16.124 15.0879 16.3636 14.9597 16.6666 15C16.8153 14.739 16.99 14.5819 17.1862 14.5346C17.3381 14.4979 17.5044 14.5283 17.6799 14.6204C17.8033 14.3686 17.9577 14.2181 18.1404 14.1763C18.3112 14.1372 18.5087 14.1906 18.7281 14.3352L18.7355 14.3415C18.9454 14.538 19.1115 14.7652 19.2254 15.0122C19.1925 14.8884 19.1497 14.7666 19.0973 14.6477C19.0841 14.6465 19.0688 14.6412 19.0573 14.6215C18.8423 14.2822 18.5249 14.0251 18.139 13.878C17.8622 13.7691 17.5583 13.7208 17.2369 13.7348C16.9258 13.7483 16.6224 13.8219 16.3499 13.9499C15.9283 14.143 15.5977 14.4483 15.3954 14.8287C15.3853 14.8905 15.3804 14.9469 15.3804 14.9975C15.3804 15.1144 15.4071 15.2004 15.4604 15.255C15.5458 15.3401 15.7024 15.3797 15.953 15.3803Z" fill="#8E8F8C"/>
<path fill-rule="evenodd" clip-rule="evenodd" d="M18.0929 13.598C18.3082 13.7061 18.5058 13.8712 18.6761 14.0775C18.4704 13.69 18.2037 13.3408 17.8889 13.0639C17.2914 12.6398 16.7325 12.5285 16.2277 12.7337C15.7433 12.9266 15.2862 13.4082 14.8695 14.1615C14.8455 14.2268 14.8325 14.2966 14.8311 14.3673C14.8311 14.4308 14.8443 14.4878 14.8709 14.538C14.9498 14.687 15.1518 14.7852 15.4693 14.831L15.4732 14.8172L15.4683 14.8307L15.4697 14.8119C15.6581 14.3358 15.9786 13.9423 16.3826 13.6911C16.6438 13.5275 16.9346 13.4335 17.2327 13.4163C17.5368 13.3995 17.8346 13.4623 18.0929 13.598Z" fill="#8E8F8C"/>
<path fill-rule="evenodd" clip-rule="evenodd" d="M13.7324 13.7934C13.8007 14.0644 14.0272 14.2284 14.4051 14.2817C14.8748 13.339 15.3999 12.7322 15.9656 12.478C16.3081 12.3306 16.6588 12.3196 17.0282 12.4284C16.5964 12.2047 16.1461 12.0845 15.6834 12.0845C15.3684 12.0845 15.0465 12.14 14.727 12.2496L14.7351 12.2437C14.7351 12.2437 14.7062 12.2636 14.7143 12.2611C14.2127 12.5666 13.8918 13.068 13.7324 13.7934Z" fill="#8E8F8C"/>
<path fill-rule="evenodd" clip-rule="evenodd" d="M13.1831 14.3283C13.1831 14.5676 13.2252 14.7949 13.3092 15.009C13.513 15.5155 13.9437 15.9292 14.5887 16.2385C14.7806 16.3254 14.9416 16.3918 15.1054 16.4336C15.2592 16.4718 15.4178 16.4859 15.5758 16.4756C15.5758 16.4756 15.6388 16.4561 15.6348 16.4588C15.8039 16.303 15.8813 16.1929 15.9101 16.065C15.9237 16.0139 15.9296 15.9593 15.9296 15.9012C15.9296 15.8024 15.912 15.6923 15.8864 15.568C15.6285 15.5604 15.4609 15.5036 15.3627 15.3874C15.2903 15.2965 15.2556 15.1724 15.2556 15.0021C15.2556 14.9728 15.2572 14.9413 15.2594 14.9089C14.8892 14.8595 14.6462 14.7511 14.5396 14.5853C14.4958 14.5163 14.4731 14.4357 14.4744 14.3535C14.4744 14.3037 14.4843 14.2498 14.4986 14.1942C14.0922 14.143 13.8478 13.9812 13.7733 13.7074L13.7739 13.6815C13.8875 13.2383 14.1018 12.8899 14.4021 12.6338C14.0277 12.8043 13.6919 13.0296 13.4064 13.3103C13.2577 13.6692 13.1831 14.0094 13.1831 14.3283Z" fill="#8E8F8C"/>
<path fill-rule="evenodd" clip-rule="evenodd" d="M15.903 17.3002C15.9207 17.2514 15.9296 17.1981 15.9296 17.1387C15.9296 17.079 15.9205 17.0134 15.9024 16.9412C15.8773 16.8399 15.8372 16.7427 15.7833 16.6524C15.5985 16.6657 15.4275 16.6524 15.2613 16.6111C15.0681 16.5674 14.8862 16.4924 14.7183 16.4181C14.05 16.117 13.5848 15.6912 13.3735 15.1869C13.2817 14.9678 13.2353 14.7335 13.2367 14.4972C13.2367 14.2545 13.2846 13.9986 13.3755 13.7324C13.0298 14.1134 12.7721 14.559 12.6338 15.0311C12.636 15.0407 12.6387 15.0535 12.6387 15.052C12.7595 15.9356 13.08 16.5945 13.5907 17.0102C14.0648 17.398 14.7284 17.5887 15.5607 17.577C15.6122 17.5671 15.6617 17.5491 15.707 17.5235C15.7992 17.4736 15.8688 17.3946 15.903 17.3002Z" fill="#8E8F8C"/>
<path fill-rule="evenodd" clip-rule="evenodd" d="M13.1569 16.8661C12.6459 16.4159 12.3106 15.7298 12.1556 14.8311C12.1114 15.0785 12.0845 15.3223 12.0845 15.5562C12.0845 15.9103 12.1346 16.2702 12.2336 16.6262C12.5017 17.3443 12.8449 17.8834 13.2534 18.2283C13.6914 18.5894 14.2111 18.7334 14.7987 18.6557C14.9001 18.6453 14.999 18.6169 15.0911 18.5716C15.1974 18.5136 15.2749 18.4352 15.3215 18.3388C15.3606 18.2574 15.3802 18.1654 15.3802 18.0641C15.3802 18.0329 15.3785 18.0016 15.3751 17.9706C15.3582 17.8368 15.3131 17.693 15.2426 17.5444C14.3581 17.5417 13.6757 17.3203 13.1569 16.8661Z" fill="#8E8F8C"/>
<path fill-rule="evenodd" clip-rule="evenodd" d="M14.9494 18.6741C14.4974 18.7411 14.09 18.6499 13.7324 18.4108C14.2382 18.8764 14.86 19.1633 15.5104 19.2254C16.264 18.4932 16.7424 17.763 16.9316 17.055C16.9959 16.8201 17.0282 16.585 17.0282 16.3505C17.0282 15.8418 16.8763 15.3356 16.5748 14.8388C16.3259 14.7948 16.1351 14.9391 15.994 15.2732L15.9851 15.2918C16.0097 15.4239 16.0267 15.5419 16.0267 15.6504C16.0267 15.7209 16.0198 15.7873 16.0033 15.8516C15.97 16.0071 15.8833 16.144 15.708 16.3205C15.7585 16.4359 15.7972 16.5479 15.8218 16.6532C15.84 16.7335 15.8493 16.8106 15.8493 16.8839C15.8493 16.9642 15.8384 17.0401 15.8164 17.1111C15.7761 17.242 15.6993 17.3456 15.5873 17.4201C15.5416 17.4457 15.4899 17.4657 15.4359 17.482C15.4946 17.6287 15.5333 17.7668 15.5476 17.8911C15.5524 17.9279 15.5546 17.9644 15.5546 18.0005C15.5546 18.1086 15.5337 18.2126 15.4917 18.3116C15.4359 18.4272 15.3495 18.5204 15.2445 18.5784C15.1528 18.6322 15.0524 18.6647 14.9494 18.6741Z" fill="#8E8F8C"/>
<path fill-rule="evenodd" clip-rule="evenodd" d="M13.6192 11.143C13.5304 10.8383 13.379 10.5438 13.1699 10.244C13.1909 10.1459 13.1856 10.0581 13.1803 9.96C13.1803 9.91858 13.1752 9.87738 13.1752 9.83073V9.75335C13.1803 9.67073 13.1803 9.59334 13.1596 9.52097C13.4154 9.08696 13.4886 8.69959 13.426 8.17773C13.3478 8.22416 13.2744 8.27081 13.2171 8.34296C13.2014 8.26034 13.1911 8.17773 13.1754 8.08988C13.1701 8.05892 13.1285 8.04846 13.1076 8.0744C13.0397 8.15702 12.9718 8.23462 12.8986 8.31724C12.6897 8.55485 12.4965 8.80292 12.5121 9.14886V9.21077L12.4912 9.24173C12.2876 9.50004 12.1988 9.7843 12.1047 10.0734C12.0734 10.1767 12.0421 10.28 12.0055 10.3833V8.2344L11.9951 8.22416C11.9429 8.17772 11.9013 8.14154 11.8647 8.10535C11.7499 8.00726 11.6558 7.96061 11.6505 7.71254C11.6454 7.59897 11.7236 7.52659 11.7706 7.49564C11.8072 7.46468 11.8594 7.46992 11.9376 7.51635C11.948 7.55777 11.9586 7.58872 11.9533 7.61466C11.9429 7.74371 11.8175 7.77488 12.0264 7.92464C12.0892 7.96584 12.1622 7.96083 12.2459 7.84725C12.2844 7.79594 12.3079 7.73517 12.3138 7.67156C12.3238 7.57437 12.3076 7.4763 12.2668 7.3873C12.2259 7.29483 12.1632 7.21337 12.0839 7.14969C12.0317 7.11351 11.9691 7.08255 11.9013 7.07754H11.8907C11.7027 7.09803 11.5773 7.15492 11.4938 7.24277C11.405 7.33062 11.3631 7.44943 11.3318 7.59918C11.3056 7.75417 11.3371 7.89892 11.4101 8.03821C11.4729 8.16748 11.572 8.29152 11.6816 8.39484V11.7785C11.6765 11.7835 11.6659 11.7835 11.6606 11.7887C11.5509 11.8611 11.5458 12.0884 11.4726 12.2123C11.3838 12.3518 11.1906 12.3777 11.0758 12.4861C10.9127 12.6336 10.7022 12.9552 10.7049 12.9458V5.13482C10.5574 5.10817 10.4094 5.08404 10.2611 5.06245V5.21722H9.93183C9.87431 4.93842 9.4252 4.95389 9.36768 5.15008H9.14842C9.00738 4.8401 8.63672 4.91247 8.53227 5.15008H8.25042C8.11467 4.88152 7.75944 4.90201 7.62898 5.15008H7.39407C7.38371 4.97438 7.16951 4.95367 7.01812 5.0158C6.91366 5.06223 6.8405 5.13962 6.86144 5.2327H6.55865V5.0158C6.40704 5.03128 6.25565 5.05199 6.10425 5.0727V7.40779C5.88499 6.84473 5.71266 6.26618 5.56633 5.68219C5.56126 5.64099 5.4881 5.66148 5.49317 5.69767L6.10403 8.47702V14.0357H10.449C10.4501 14.0115 10.449 14.0872 10.449 14.1493C10.449 14.2474 10.7728 14.2319 10.8146 14.2267C10.845 14.223 10.875 14.2197 10.9034 14.2175L10.8929 14.8312H11.7964C11.8147 14.7636 11.8292 14.6997 11.8464 14.6332L11.8433 14.64C11.8453 14.6324 11.8481 14.6252 11.8501 14.6175L11.8462 14.633C11.8498 14.6255 11.852 14.6174 11.8526 14.609C12.048 13.9239 12.4092 13.2994 12.898 12.8008C13.1457 12.5454 13.4246 12.3215 13.7283 12.1344C13.7444 11.768 13.7131 11.4478 13.6192 11.143ZM10.308 11.1378C10.2454 11.0604 9.4933 10.1614 9.18522 9.78452C9.57175 9.54168 9.89547 9.26265 10.115 8.87006C10.1462 8.81316 10.1775 8.75125 10.2038 8.68389C10.2454 8.67365 10.2769 8.65817 10.3082 8.63223L10.308 11.1378ZM10.308 8.12083C10.2526 8.07913 10.1845 8.0573 10.115 8.05892C9.99485 8.05892 9.8904 8.12083 9.83288 8.21391L9.5561 8.34296C9.52459 8.22939 9.46729 8.1156 9.39413 7.99679C9.31369 7.87905 9.21896 7.77151 9.11206 7.67657C9.2218 7.49564 9.23216 7.31493 9.17993 7.12375C9.12264 6.93781 8.99703 6.7414 8.84034 6.52951C8.86657 6.48831 8.88728 6.4469 8.90315 6.40046C8.9188 6.3488 8.92386 6.28689 8.90844 6.20406C8.89786 6.1319 8.83528 6.04928 8.76211 5.9562C8.65766 5.82192 8.5272 5.65647 8.49062 5.45505C8.48555 5.41886 8.42803 5.41886 8.41746 5.44982C8.4088 5.50397 8.39115 5.55634 8.36523 5.60481C8.30793 5.71838 8.22948 5.80623 8.15632 5.88885C8.05716 5.9974 7.9787 6.09027 7.96835 6.19882C7.96306 6.25572 7.97364 6.31763 7.99457 6.37976C8.01022 6.43142 8.03115 6.47807 8.05716 6.52951C8.03633 6.55589 8.01713 6.58348 7.99964 6.61213C7.78037 6.92712 7.55053 7.26304 7.76473 7.67635C7.67085 7.75897 7.58182 7.85728 7.49852 7.96562C7.41013 8.07873 7.32987 8.19782 7.25832 8.32203L7.04412 8.20846C7.03377 8.19298 7.02848 8.18274 7.01812 8.16726C6.98575 8.13078 6.94542 8.10206 6.90018 8.08325C6.85494 8.06445 6.80598 8.05605 6.75698 8.0587C6.64724 8.06372 6.53243 8.12061 6.4802 8.2344V5.42933C6.5743 5.49647 6.67346 5.53788 6.75698 5.52742C6.80515 5.52309 6.84992 5.50099 6.88237 5.46551C6.92402 5.51717 6.96589 5.56361 7.01812 5.61026C7.09635 5.68764 7.18516 5.75478 7.27926 5.82715C7.34713 5.52742 7.37842 5.37243 7.54039 5.34671C7.70743 5.32099 7.87469 5.57407 7.97386 5.76001C8.07302 5.52241 8.18254 5.34671 8.30815 5.23815H8.50649C8.66317 5.36742 8.75727 5.55336 8.79891 5.77026C8.93995 5.52742 9.05476 5.29504 9.24802 5.31554C9.43622 5.33624 9.48823 5.58933 9.50916 5.82715C9.62397 5.68241 9.74936 5.54813 9.88533 5.42933C9.97414 5.49647 10.042 5.52742 10.1152 5.52742C10.1778 5.52742 10.2353 5.49647 10.3082 5.4448L10.308 8.12083Z" fill="#8E8F8C"/>
<path fill-rule="evenodd" clip-rule="evenodd" d="M9.08806 9.83274C9.47406 10.2539 9.86338 10.6727 10.256 11.0891C10.3162 11.1529 10.3764 11.2166 10.4366 11.2858V11.946L10.256 11.8341L8.34178 10.7002C8.32623 10.6951 8.30908 10.6951 8.29352 10.7002L6.04224 12.0844V10.1414L6.3252 11.3072C6.33104 11.3285 6.36127 11.3391 6.3854 11.3339C6.39124 11.3339 6.40344 11.3285 6.40344 11.318C6.49387 11.2009 6.58404 11.0837 6.6864 10.9666C6.9333 10.6632 7.22821 10.3653 7.55944 10.067V10.0619C7.56528 10.0619 7.56528 10.0565 7.56528 10.0565C7.56864 10.0486 7.56987 10.0402 7.56885 10.0319C7.56783 10.0236 7.56461 10.0156 7.55944 10.0086C7.28841 9.81162 7.04761 9.58273 6.83094 9.33789H9.74443C9.55773 9.50299 9.34131 9.64675 9.10026 9.77973C9.07613 9.79006 9.07613 9.81679 9.08806 9.83274Z" fill="#8E8F8C"/>
<path fill-rule="evenodd" clip-rule="evenodd" d="M5.49292 6.5918C5.68867 7.126 5.92755 7.64927 6.22118 8.15179V8.15693C6.21498 8.26805 6.28859 8.40015 6.411 8.45839C6.47194 8.54296 6.52721 8.62754 6.58841 8.70697C6.68629 8.83908 6.78417 8.96604 6.89444 9.09301C7.12686 9.36257 7.38408 9.61651 7.6901 9.8334C7.67797 9.83854 7.04551 10.429 6.59461 10.9862L6.58867 10.9703L5.49292 6.5918Z" fill="white"/>
<path fill-rule="evenodd" clip-rule="evenodd" d="M10.4364 12.0844H6.04224V11.7344C6.06591 11.7297 8.29849 10.4462 8.31618 10.4365C8.48167 10.519 10.4249 11.5984 10.4366 11.6034L10.4364 12.0844Z" fill="#8E8F8C"/>
<path fill-rule="evenodd" clip-rule="evenodd" d="M9.88221 8.76173C9.83533 8.76202 9.78898 8.75099 9.74659 8.72945C9.70419 8.70792 9.66682 8.67643 9.63723 8.6373C9.60764 8.59817 9.58659 8.5524 9.57561 8.50335C9.56463 8.45431 9.56402 8.40324 9.57381 8.3539L9.3311 8.47347C9.32534 8.4776 9.31788 8.47783 9.31084 8.47623V8.81084C9.31084 8.82713 9.29058 8.84894 9.27543 8.84894H8.82051C8.80537 8.84894 8.78511 8.82713 8.78511 8.81084V8.57698H7.71872V8.81084C7.71872 8.82713 7.69846 8.84894 7.68332 8.84894H7.2284C7.21326 8.84894 7.19299 8.82713 7.19299 8.81084V8.37892C7.18297 8.39797 7.17273 8.41633 7.16271 8.4356C7.15268 8.4519 7.12731 8.46292 7.11216 8.4519L6.95029 8.35964C6.97055 8.46292 6.94538 8.56619 6.8846 8.64239C6.85306 8.68086 6.81411 8.71148 6.77047 8.73213C6.72683 8.75278 6.67953 8.76296 6.63186 8.76196H6.60648V8.75645H6.59155C6.6067 8.77825 6.61693 8.80533 6.63208 8.82713C6.71291 8.96851 6.79374 9.1046 6.88481 9.24047C6.90507 9.27306 6.92512 9.30565 6.9505 9.33823H9.52326C9.66723 9.16901 9.78809 8.97861 9.88221 8.77274C9.88221 8.76746 9.88221 8.76746 9.88733 8.76196L9.88221 8.76173ZM7.89063 6.60808C7.69676 6.92365 7.48433 7.25505 7.67927 7.65438L7.68332 7.65232C7.69846 7.65232 7.71872 7.66861 7.71872 7.69041V8.13106H8.80025V7.69041C8.80025 7.66723 8.82307 7.65209 8.84653 7.64887C8.94187 7.48088 8.95509 7.30783 8.90647 7.12469C8.85592 6.9287 8.73478 6.72765 8.57802 6.50481C8.56799 6.49379 8.56799 6.47199 8.5729 6.4612C8.6034 6.40681 8.62856 6.36871 8.63859 6.31983C8.65373 6.27645 8.65373 6.22206 8.64371 6.14587C8.63859 6.09148 8.58314 6.01 8.51233 5.91728C8.4315 5.80299 8.3304 5.66162 8.27474 5.49316C8.25014 5.54992 8.2214 5.60448 8.18879 5.65634C8.14336 5.73253 8.08769 5.79221 8.03736 5.85738C7.95653 5.95538 7.88572 6.04236 7.87548 6.13462C7.87058 6.18901 7.8806 6.23813 7.89574 6.29252C7.91579 6.34691 7.93605 6.40681 7.96143 6.46648C7.96655 6.47199 7.96655 6.49379 7.96143 6.50481C7.93627 6.53717 7.91601 6.56999 7.89063 6.60808Z" fill="#8E8F8C"/>
<path fill-rule="evenodd" clip-rule="evenodd" d="M8.63282 6.75884C8.53636 6.65246 8.39544 6.5918 8.23948 6.5918C8.08384 6.5918 7.9426 6.65268 7.84614 6.75884C7.74969 6.85496 7.69019 6.99167 7.69019 7.13864C7.69019 7.28539 7.74969 7.4221 7.84614 7.52335C7.9426 7.6246 8.08384 7.69039 8.23948 7.69039C8.39544 7.69039 8.53636 7.62438 8.63282 7.52335C8.72959 7.4221 8.78878 7.28539 8.78878 7.13864C8.78878 6.99146 8.72959 6.85496 8.63282 6.75884Z" fill="#8E8F8C"/>
<path fill-rule="evenodd" clip-rule="evenodd" d="M8.47542 7.26945C8.40983 7.33633 8.32608 7.37815 8.23021 7.37815C8.1346 7.37815 8.0511 7.33633 7.98525 7.26945C7.91335 7.19833 7.87148 7.09792 7.87148 6.98515C7.87148 6.87644 7.91335 6.77586 7.98525 6.70491C8.0511 6.6338 8.1346 6.5918 8.23021 6.5918C8.32608 6.5918 8.40958 6.63362 8.47542 6.70491C8.54127 6.77586 8.58314 6.87644 8.58314 6.98515C8.58314 7.09792 8.54127 7.19815 8.47542 7.26945ZM6.32327 7.83821C6.16787 7.83821 6.04224 7.92609 6.04224 8.03886C6.04224 8.14757 6.16787 8.23968 6.32327 8.23968C6.48473 8.23968 6.61036 8.14757 6.61036 8.03886C6.61036 7.92592 6.48473 7.83821 6.32327 7.83821ZM10.1556 7.83821C9.99411 7.83821 9.86848 7.92609 9.86848 8.03886C9.86848 8.14757 9.99411 8.23968 10.1556 8.23968C10.311 8.23968 10.4366 8.14757 10.4366 8.03886C10.4366 7.92592 10.311 7.83821 10.1556 7.83821Z" fill="white"/>
<path fill-rule="evenodd" clip-rule="evenodd" d="M12.933 9.22414C12.8308 9.17946 12.7174 9.15916 12.6038 9.16521V9.15549C12.5927 8.8811 12.7465 8.67018 12.933 8.47436C13.0099 8.39103 13.0865 8.31763 13.1581 8.23926C13.2074 8.55273 13.3555 9.11641 13.1689 9.43009C13.1123 9.34384 13.0309 9.27273 12.933 9.22414ZM10.4368 13.8793L10.5136 13.9039C10.5629 13.9236 10.6507 13.9137 10.7386 13.9039C10.8375 13.8942 10.9361 13.8793 11.0021 13.9089C11.0898 13.9529 11.1503 13.9922 11.194 14.0266C11.2873 14.0902 11.3422 14.1246 11.567 14.0902C11.5781 14.0902 11.5945 14.095 11.6054 14.1049C11.6547 14.1686 11.6822 14.2029 11.7096 14.2226C11.7316 14.2422 11.7644 14.2569 11.8137 14.2815C11.9619 13.8111 12.2089 13.3798 12.527 12.9927C12.8568 12.5975 13.2638 12.2589 13.7285 11.9931C13.7449 11.6501 13.712 11.3511 13.6188 11.0669C13.531 10.8023 13.3937 10.5572 13.2018 10.2975C13.147 10.6062 13.0703 10.8562 12.9055 11.0523C12.73 11.2677 12.4557 11.4247 12.0112 11.5324C12.0057 11.5324 12.0003 11.5324 11.9948 11.5372V12.2576C11.9937 12.2664 11.9899 12.2749 11.9839 12.282C11.9401 12.326 11.9017 12.38 11.8577 12.4486C11.8137 12.522 11.77 12.6054 11.726 12.7083C11.7151 12.7377 11.6547 12.728 11.6547 12.6937V11.733H11.6494C11.6385 11.7673 11.6274 11.7969 11.6165 11.831C11.5889 11.9242 11.5561 12.0123 11.5012 12.0957C11.4355 12.1887 11.3366 12.233 11.2378 12.2818C11.1773 12.3113 11.1172 12.3357 11.0678 12.3748C10.8366 12.5602 10.6643 12.7969 10.5685 13.0609C10.4752 13.3109 10.4368 13.5853 10.4368 13.8793Z" fill="#8E8F8C"/>
<path fill-rule="evenodd" clip-rule="evenodd" d="M12.5329 9.58031C12.4977 9.57513 12.4699 9.58527 12.4419 9.60578C12.4067 9.62628 12.3857 9.66211 12.3789 9.69793C12.3721 9.73872 12.3789 9.77455 12.3999 9.80023C12.4209 9.82592 12.449 9.84642 12.477 9.84642C12.5119 9.85138 12.54 9.84124 12.5681 9.82074C12.6033 9.80023 12.6243 9.76441 12.6311 9.72858C12.6382 9.68779 12.6311 9.65196 12.6101 9.62628C12.6037 9.61442 12.5933 9.60395 12.5798 9.5959C12.5662 9.58785 12.5501 9.58248 12.5329 9.58031ZM11.6992 8.24543C11.6434 8.20464 11.5943 8.17378 11.552 8.14313C11.377 8.03069 11.2928 7.97436 11.2227 7.70328L11.2295 7.68796C11.2857 7.55997 11.3415 7.46803 11.4258 7.42206C11.6289 7.30962 11.853 7.44256 11.832 7.60637C11.832 7.6422 11.811 7.67285 11.7829 7.71882C11.811 7.76997 11.8459 7.82112 11.895 7.84659C11.9301 7.86709 11.9792 7.85695 12.049 7.79026C12.0842 7.74947 12.1119 7.7035 12.119 7.65213C12.1314 7.56646 12.1121 7.47993 12.0632 7.40156C12.0141 7.32494 11.944 7.24811 11.853 7.20214C11.79 7.17149 11.7267 7.1458 11.657 7.14062C11.4326 7.16113 11.2857 7.20731 11.1875 7.28393C11.0894 7.35559 11.0335 7.46285 10.9983 7.60098C10.9631 7.73393 11.0051 7.86688 11.0894 7.98968C11.1857 8.11695 11.3086 8.2325 11.4536 8.33219L11.4675 8.34752V12.6336C11.4885 12.5928 11.5166 12.557 11.5375 12.5263C11.5934 12.4547 11.6496 12.3934 11.6987 12.3472V8.24543H11.6992Z" fill="white"/>
<path fill-rule="evenodd" clip-rule="evenodd" d="M5.94507 13.9448C5.91119 13.7552 5.87159 13.5656 5.84344 13.371C5.81506 13.1146 5.80361 12.8534 5.7924 12.592C5.78118 12.3923 5.77546 12.1923 5.7528 11.9925C5.75156 11.9832 5.7477 11.9744 5.74159 11.9668C5.66811 11.9002 5.60013 11.8336 5.52666 11.7618C5.35132 11.5824 5.17051 11.4032 4.95009 11.2905V8.44711C5.06316 8.34463 5.17074 8.22161 5.24398 8.09341C5.31769 7.95504 5.35705 7.8117 5.32318 7.65798C5.29479 7.50924 5.24398 7.39163 5.15357 7.3045C5.06889 7.22775 4.95558 7.1763 4.79742 7.15079C4.77155 7.14461 4.74497 7.1412 4.71822 7.14062H4.70152C4.63218 7.1504 4.56637 7.17492 4.50949 7.21219C4.49804 7.22256 4.48111 7.23272 4.46966 7.24807C4.40191 7.29931 4.35086 7.37109 4.3115 7.44784C4.27166 7.54016 4.24924 7.63745 4.26069 7.72976C4.2719 7.79635 4.29456 7.85278 4.33416 7.90402C4.38497 7.96542 4.4303 7.99115 4.4699 8.00131C4.50973 8.0065 4.54337 8.00131 4.57176 7.98098C4.62829 7.93991 4.66789 7.86835 4.69604 7.80154V7.77062C4.66789 7.72457 4.65644 7.69906 4.65095 7.67334C4.65095 7.64761 4.65668 7.61691 4.67361 7.57583C4.68506 7.57086 4.69055 7.56567 4.702 7.56048C4.702 7.56048 4.70773 7.56048 4.70773 7.55551H4.71321C4.7393 7.54281 4.76829 7.53577 4.7979 7.53497C4.82056 7.53497 4.8375 7.54016 4.85443 7.55551C4.90524 7.58642 4.94484 7.66317 4.98444 7.77062C4.93935 7.97558 4.88831 8.04217 4.7979 8.11913C4.78096 8.13448 4.76402 8.14983 4.74709 8.16021C4.73587 8.17037 4.72442 8.18075 4.71297 8.18594C4.71297 8.19091 4.70749 8.19091 4.70749 8.1961C4.70749 8.1961 4.70176 8.1961 4.70176 8.20129C4.67013 8.22538 4.63995 8.251 4.61135 8.27804C4.6053 8.28555 4.60145 8.29433 4.60014 8.30355V10.2608H4.47013V10.2402C4.44758 10.0917 4.40188 9.94688 4.3344 9.81001C4.23736 9.61159 4.1036 9.42967 3.93889 9.27211L3.91623 9.19536C3.91623 9.13894 3.91623 9.0877 3.9105 9.03127C3.90502 8.91863 3.90502 8.81097 3.89357 8.7033C3.87091 8.52904 3.83703 8.35998 3.74662 8.19091L3.6555 8.01687C3.64429 7.99115 3.59896 7.99115 3.58775 8.01687L3.55388 8.06292C3.53122 8.09881 3.50855 8.1347 3.48041 8.17037L3.4296 8.24712C3.41877 8.22059 3.40552 8.19492 3.39 8.17037C3.36733 8.12432 3.34491 8.07827 3.31652 8.03201C3.30531 8.01147 3.27693 8.0065 3.25999 8.01666C3.02812 8.16518 2.92078 8.42138 2.89239 8.70308C2.85279 9.06175 2.93747 9.46648 3.05651 9.72267C3.04506 9.83531 2.98852 9.87639 2.92078 9.92763C2.86997 9.96351 2.81319 10.0044 2.76238 10.0764C2.70585 10.1583 2.68318 10.2556 2.66625 10.3479L2.64931 10.4093V10.4195C2.66052 10.5118 2.69463 10.5834 2.74544 10.6502C2.79053 10.7012 2.84158 10.7474 2.90384 10.7885L2.81343 10.9729C2.76801 11.1004 2.71901 11.2268 2.66649 11.3519C2.54793 11.6594 2.42913 11.9616 2.36687 12.2896C2.2538 12.8889 2.2142 13.4988 2.19727 14.1085C2.19727 14.1085 2.20299 14.129 2.20872 14.129L2.27074 14.2008L2.27646 14.2057C2.38953 14.2825 2.43486 14.2825 2.37832 14.2622L2.30461 14.8308H5.71892C5.71892 14.8258 5.71892 14.8206 5.71344 14.8206L5.56077 14.4825L6.00184 14.5184C6.0245 14.5184 6.04716 14.4978 6.04144 14.4775C6.01758 14.2988 5.98542 14.1211 5.94507 13.9448Z" fill="#8E8F8C"/>
<path fill-rule="evenodd" clip-rule="evenodd" d="M4.51573 10.0782V8.19471C4.51999 8.18977 4.52407 8.18482 4.53259 8.18009V8.17535L4.53685 8.17062L4.54093 8.16567C4.56632 8.14117 4.58726 8.11687 4.60395 8.10225C4.60395 8.09731 4.60395 8.09731 4.60821 8.09731C4.7133 7.99003 4.76371 7.93628 4.80169 7.67765V7.66303C4.76815 7.54093 4.73034 7.4532 4.68401 7.40934C4.66056 7.39025 4.6326 7.38004 4.60395 7.38011C4.583 7.38011 4.56614 7.38011 4.54093 7.38978L4.53685 7.39452H4.53259C4.51075 7.40566 4.48968 7.41874 4.46957 7.43364C4.46531 7.43838 4.45697 7.44826 4.45697 7.45321C4.44011 7.51189 4.43159 7.54587 4.43585 7.58499C4.43993 7.61917 4.44845 7.64841 4.4694 7.69227C4.44845 7.74108 4.42733 7.78988 4.40212 7.81418C4.3897 7.82406 4.37691 7.82406 4.36005 7.81418C4.34319 7.80944 4.3265 7.78988 4.30964 7.76043C4.28527 7.72193 4.27069 7.67627 4.26757 7.62865C4.25923 7.5506 4.27183 7.46762 4.29704 7.38958C4.3139 7.35045 4.33485 7.31154 4.36005 7.27241C4.38118 7.24317 4.40212 7.21887 4.42733 7.19931C4.45679 7.17007 4.4946 7.15051 4.53241 7.14557V7.14062H4.54484C4.56596 7.14557 4.58283 7.14557 4.60377 7.15051C4.70477 7.17481 4.77631 7.21887 4.82672 7.27735C4.88566 7.34572 4.91512 7.44806 4.93607 7.57984C4.95719 7.70669 4.93199 7.83353 4.8814 7.9507C4.83081 8.06786 4.75093 8.17988 4.66679 8.27749C4.6616 8.28608 4.6587 8.29624 4.65844 8.30673V10.9857C4.63732 10.976 4.62064 10.9711 4.60377 10.9614H4.59969V10.9567H4.58709V10.9517H4.57874C4.57448 10.947 4.56614 10.947 4.5578 10.942C4.55354 10.942 4.54928 10.9371 4.54502 10.9371H4.52425V10.942H4.5159L4.51573 10.0782ZM3.93083 9.48786C3.94289 9.49228 3.95428 9.49888 3.96456 9.50742C3.98551 9.52204 4.00237 9.55128 4.01071 9.58547C4.01906 9.61965 4.01497 9.65383 4.00645 9.68307C3.99385 9.70758 3.97699 9.72693 3.95604 9.73187C3.9477 9.73682 3.93918 9.73681 3.93066 9.73681C3.91805 9.73187 3.90545 9.72714 3.89285 9.71725C3.88128 9.70754 3.87157 9.69515 3.86433 9.68087C3.85709 9.66659 3.85247 9.65072 3.85078 9.63427C3.84243 9.60009 3.84243 9.5659 3.85504 9.54161C3.85922 9.52947 3.86548 9.51845 3.87344 9.50921C3.88141 9.49997 3.89091 9.49271 3.90137 9.48786H3.93083Z" fill="white"/>
<path fill-rule="evenodd" clip-rule="evenodd" d="M3.64668 8.334C3.65075 8.32895 3.65075 8.32895 3.65075 8.3241C3.66669 8.294 3.6789 8.26915 3.69484 8.23926L3.73504 8.34411C3.83136 8.59844 3.8395 8.86308 3.84764 9.13742L3.85561 9.31216C3.77523 9.27237 3.70688 9.30206 3.65075 9.35701C3.60242 9.40691 3.55833 9.47681 3.5261 9.53681C3.5222 9.54165 3.5222 9.54165 3.5222 9.5467C3.51813 9.5467 3.51813 9.55155 3.51813 9.55155L3.51406 9.5566L3.50609 9.56649C3.38145 8.99762 3.4659 8.70813 3.64668 8.334ZM3.89174 14.2815C3.81135 14.2716 2.84283 14.1718 2.77856 14.1169L2.74634 14.0619C2.75838 13.4831 2.78653 12.8945 2.86301 12.3206C2.90728 12.0062 2.99156 11.7119 3.07602 11.4173C3.10807 11.2978 3.14436 11.178 3.17658 11.0483L3.23679 10.8786H3.24459C3.24459 10.8786 3.24866 10.8786 3.24866 10.8735H3.25273C3.33311 10.8135 3.36924 10.7737 3.39332 10.7489C3.40943 10.7339 3.41757 10.7238 3.42944 10.7188C3.4737 10.7038 3.5702 10.7238 3.65058 10.7438C3.69077 10.7537 3.72283 10.7638 3.74708 10.7689C3.79524 10.7889 3.8434 10.8038 3.89174 10.8137C4.01231 10.8438 4.13696 10.8287 4.23346 10.7139C4.26958 10.6741 4.28976 10.624 4.3018 10.5743C4.31384 10.5194 4.31384 10.4594 4.30977 10.3996H4.39423V11.2727C4.362 11.2925 4.32995 11.3077 4.3018 11.3277C4.15088 11.4242 4.01267 11.5486 3.89191 11.6967C3.80226 11.7991 3.72149 11.9129 3.65092 12.0361C3.38568 12.4801 3.2049 13.0339 3.06415 13.5977C3.06415 13.6078 3.06415 13.6126 3.06025 13.6227C3.06025 13.6278 3.05634 13.6377 3.05634 13.6427V13.6476C3.05227 13.6524 3.05227 13.6625 3.05227 13.6676C3.0482 13.6775 3.0482 13.6825 3.0482 13.6926C3.0443 13.7076 3.05635 13.7324 3.06839 13.7324C3.09671 13.7375 3.12469 13.7423 3.15674 13.7474C3.31751 13.7773 3.46624 13.8072 3.63498 13.8173C3.64104 13.8161 3.64666 13.8126 3.65109 13.8074C3.65499 13.8074 3.65906 13.8023 3.65906 13.8023C3.74352 13.6627 3.81983 13.513 3.89208 13.3585V13.573C3.89615 13.8126 3.90412 14.047 3.91226 14.2815H3.89174Z" fill="#8E8F8C"/>
<path fill-rule="evenodd" clip-rule="evenodd" d="M5.57097 14.4C5.54141 14.4 5.51782 14.4281 5.52949 14.456L5.68844 14.8309H5.4294L5.58835 13.3536C5.58835 13.3368 5.59431 13.3144 5.55309 13.3144C5.51186 13.3087 5.50615 13.3255 5.50615 13.3479L5.34719 14.825V14.8307H5.12963L5.28858 13.6331C5.28858 13.6164 5.29429 13.5939 5.25306 13.5939C5.21184 13.5883 5.20612 13.605 5.20612 13.6275L5.04717 14.8304H4.02292C4.02292 14.6737 4.01721 14.5171 4.01125 14.3603V14.3547C3.99933 14.0749 3.98169 13.8008 3.97573 13.521V13.3028L4.11705 12.9111C4.12301 12.9057 4.12301 12.9 4.12872 12.8943V12.8889V12.8835H4.13444V12.878V12.8724H4.1404V12.8615H4.14636V12.8558V12.8502V12.8447H4.15207L4.49357 12.33L4.57603 12.2013C4.58174 12.1957 4.58174 12.1902 4.58174 12.1843C4.59937 12.0838 4.55218 12.1116 4.49357 12.1676C4.43431 12.2314 4.37932 12.2986 4.32891 12.369C4.32891 12.369 4.32891 12.3746 4.32294 12.3746C4.32294 12.3801 4.32294 12.3801 4.31698 12.3857C4.31698 12.3857 4.31698 12.3912 4.31102 12.3912C4.31102 12.3968 4.31102 12.3968 4.30531 12.4025C4.30531 12.4025 4.30531 12.4079 4.2996 12.4079C4.2996 12.4134 4.2996 12.419 4.29364 12.419C4.29364 12.4247 4.29364 12.4247 4.28768 12.4301L4.28196 12.4358C4.28196 12.4415 4.27625 12.4469 4.27625 12.4469C4.27625 12.4526 4.27029 12.4526 4.27029 12.458C4.27029 12.458 4.26458 12.4637 4.26458 12.4691C4.25862 12.4691 4.25862 12.4748 4.25862 12.4748C4.25266 12.4802 4.25266 12.4859 4.25266 12.4859C4.24695 12.4913 4.24695 12.4913 4.24695 12.497L4.23527 12.508C4.23527 12.5135 4.23527 12.5135 4.22931 12.5191C4.17045 12.6197 4.12351 12.7373 4.05869 12.8381L4.05273 12.8436C4.04105 12.8773 4.02317 12.8995 4.00579 12.933V12.9387H3.99982C3.96456 13.0003 3.92929 13.0563 3.89377 13.1123C3.78201 13.2969 3.67025 13.4815 3.54085 13.6551C3.529 13.6732 3.51518 13.69 3.49962 13.7054C3.25488 13.6931 3.01113 13.667 2.76968 13.627H2.7523V13.6213H2.74634C2.93485 13.0228 3.17029 12.4686 3.5411 11.9428C3.54681 11.9371 3.55277 11.926 3.55873 11.9204C3.65882 11.7804 3.77083 11.6462 3.89427 11.5287C4.07682 11.344 4.277 11.1872 4.49456 11.081C4.55343 11.0529 4.61825 11.025 4.68282 11.0026L4.72976 10.9858H4.75907C4.78863 10.9972 4.81197 11.0083 4.83557 11.0139C5.11224 11.1259 5.3241 11.3497 5.53595 11.5735C5.60673 11.6465 5.67702 11.719 5.74805 11.7863C5.76568 12.0044 5.77736 12.2172 5.78332 12.4297C5.79499 12.7097 5.80691 12.9949 5.84218 13.2858C5.87149 13.4983 5.91272 13.7054 5.94798 13.9181C5.9835 14.0916 6.01877 14.2652 6.04211 14.4442L5.57097 14.4Z" fill="#8E8F8C"/>
<path fill-rule="evenodd" clip-rule="evenodd" d="M4.3978 14.2203C4.40696 14.1889 4.41164 14.1573 4.42081 14.1259C4.43963 14.0678 4.45211 14.0062 4.45785 13.9431C4.46253 13.8801 4.45785 13.8298 4.45336 13.7793C4.44868 13.6975 4.43933 13.622 4.4672 13.496L4.47169 13.4835L4.87368 12.8347C4.88285 12.8034 4.86452 12.7468 4.846 12.6901C4.82748 12.6335 4.81364 12.5767 4.81364 12.52C4.80915 12.4318 4.83216 12.3122 4.85048 12.224C4.85965 12.1801 4.869 12.1421 4.869 12.1232C4.87349 12.1044 4.87349 12.0791 4.90585 12.0855C4.93841 12.0916 4.93841 12.1107 4.93373 12.1357C4.93373 12.161 4.92457 12.2051 4.91521 12.2492C4.89669 12.3311 4.87836 12.4382 4.87836 12.52C4.87836 12.5581 4.8922 12.6019 4.90604 12.6524C4.93392 12.7343 4.96161 12.8161 4.92924 12.8852V12.8916L4.52725 13.534C4.50873 13.6348 4.51341 13.6978 4.51809 13.7671C4.52257 13.8237 4.52725 13.8803 4.52257 13.95C4.5174 14.0213 4.505 14.0912 4.48572 14.1578C4.47656 14.1895 4.4672 14.2208 4.46272 14.2461C4.45804 14.2713 4.45356 14.2902 4.421 14.2777C4.38864 14.2644 4.39312 14.2455 4.3978 14.2203Z" fill="#8E8F8C"/>
</svg>
