<svg width="46" height="13" viewBox="0 0 46 13" fill="none" xmlns="http://www.w3.org/2000/svg">
<path d="M4.43918 0.0255147C3.18948 0.176785 2.33234 0.583776 1.61206 1.35814C0.855755 2.17212 0.51722 3.31746 0.679285 4.488C0.834146 5.59732 1.42118 6.38969 2.49441 6.92634C3.07784 7.21808 3.83774 7.45219 4.97939 7.6899C5.80772 7.86278 6.08503 7.94202 6.39836 8.09329C6.91696 8.34181 7.15106 8.69477 7.11144 9.17019C7.07903 9.606 6.83773 9.93015 6.38755 10.1426C5.69968 10.4704 4.51121 10.4524 3.78732 10.103C3.30473 9.86892 2.87616 9.35388 2.69249 8.77761C2.66007 8.67676 2.63486 8.64795 2.59165 8.65875C2.55563 8.66956 1.965 8.80642 1.27712 8.9649C0.585648 9.11977 0.0130199 9.25663 0.00221564 9.26744C-0.0265958 9.29625 0.232707 10.0274 0.36596 10.2903C0.902574 11.3492 1.90737 12.1164 3.21469 12.4621C4.45719 12.7863 6.04902 12.7395 7.2555 12.3361C8.35754 11.9687 9.17146 11.27 9.64685 10.2831C10.3563 8.81723 10.1294 7.2505 9.05261 6.17359C8.31072 5.43525 7.48239 5.09669 5.31793 4.65008C4.35275 4.44838 4.05743 4.34033 3.77291 4.08461C3.56403 3.89373 3.4848 3.70284 3.4848 3.38229C3.4848 2.63674 4.03582 2.27297 5.16307 2.26936C6.16427 2.26936 6.7621 2.60792 7.13305 3.38949C7.21588 3.56597 7.30232 3.70284 7.32032 3.69563C7.34193 3.68843 7.88575 3.50834 8.53401 3.29224C9.61804 2.93207 9.71168 2.89606 9.69367 2.82763C9.64685 2.66555 9.31912 2.02085 9.18587 1.82636C8.46918 0.789072 7.35994 0.194794 5.82573 0.0363197C5.5016 0.00390457 4.67327 -0.00329881 4.43918 0.0255147Z" fill="#8E8F8C"/>
<path d="M33.8088 1.27853V2.55713H35.1234H36.4379V1.27853V-6.78925e-05H35.1234H33.8088V1.27853Z" fill="#8E8F8C"/>
<path d="M21.2039 6.33916V12.498H22.5184H23.8329V6.33916V0.180282H22.5184H21.2039V6.33916Z" fill="#8E8F8C"/>
<path d="M14.75 3.26295C12.8377 3.60871 11.3323 5.071 10.9181 6.98709C10.8245 7.4193 10.8245 8.42777 10.9145 8.85997C11.0586 9.53349 11.3251 10.1458 11.696 10.668C11.9769 11.0606 12.5603 11.6333 12.9385 11.8818C14.5555 12.9443 16.6084 12.9371 18.229 11.8566C18.5783 11.6261 19.169 11.0462 19.4283 10.6788C19.8028 10.1566 20.0765 9.52268 20.2206 8.84917C20.271 8.62586 20.2854 8.39535 20.2854 7.90552C20.2818 7.32925 20.271 7.2176 20.1882 6.87904C20.0117 6.18392 19.7668 5.64727 19.3887 5.13223C18.6648 4.15617 17.5591 3.46825 16.3635 3.25935C15.9673 3.19092 15.1318 3.19092 14.75 3.26295Z" fill="#8E8F8C"/>
<path d="M41.2637 3.23076C41.1953 3.23796 40.9612 3.27758 40.7451 3.3172C39.1569 3.61254 38.1485 4.41571 37.8423 5.63308C37.7487 5.99685 37.7523 6.04728 37.8531 6.06529C37.8964 6.07609 38.4114 6.12291 38.9948 6.17694C39.5782 6.22736 40.1004 6.27418 40.1545 6.28499C40.2445 6.29939 40.2517 6.29219 40.2733 6.11211C40.3597 5.41698 40.9756 4.96677 41.8363 4.97037C42.427 4.97397 42.8267 5.19008 43.0212 5.61868C43.104 5.79156 43.1148 5.878 43.1292 6.3102C43.1436 6.78202 43.1436 6.80723 43.0752 6.80723C42.9528 6.80723 41.8363 6.91528 41.3717 6.97291C40.457 7.08456 39.625 7.30066 39.1244 7.55278C38.0368 8.10024 37.4138 9.13752 37.4966 10.2649C37.5506 10.9744 37.7451 11.439 38.1809 11.8712C38.5158 12.2062 38.7391 12.343 39.1929 12.4943C40.1797 12.822 41.3933 12.7032 42.1677 12.2062C42.4486 12.0225 42.7619 11.7271 43.0284 11.3958L43.2337 11.1365L43.2589 11.5507C43.2805 11.9252 43.3273 12.271 43.3741 12.4331C43.3921 12.4943 43.4858 12.4979 44.7031 12.4979C45.7367 12.4979 46.0104 12.4871 45.9996 12.4511C45.9888 12.4295 45.9528 12.2926 45.9203 12.1557C45.8699 11.936 45.8591 11.5146 45.8375 8.69812C45.8159 5.53944 45.8159 5.48902 45.7367 5.20448C45.6935 5.04601 45.607 4.8191 45.5458 4.69664C45.1748 3.9583 44.2817 3.45046 43.0104 3.25957C42.6791 3.20915 41.6238 3.19114 41.2637 3.23076ZM43.1256 8.77735C43.1004 9.68138 42.9744 10.0632 42.571 10.4882C42.2145 10.8591 41.8579 11.0068 41.3573 10.978C40.9036 10.9528 40.6262 10.7799 40.439 10.4089C40.1761 9.87947 40.2949 9.25998 40.7307 8.8782C40.936 8.69812 41.4582 8.4532 41.8399 8.35596C42.11 8.28753 42.8987 8.15066 43.0788 8.14346C43.1436 8.13986 43.1436 8.16867 43.1256 8.77735Z" fill="#8E8F8C"/>
<path d="M24.6973 3.40019C24.6973 3.41099 25.3311 5.26946 26.1054 7.53492C26.8797 9.80038 27.5784 11.8425 27.6576 12.073L27.8017 12.498H28.8533H29.9049L31.4427 7.97073C32.2891 5.47836 32.9806 3.429 32.9806 3.41099C32.9806 3.39659 32.5376 3.38578 31.9938 3.38578H31.0034L30.9169 3.66311C29.5772 8.03196 29.2531 9.07645 29.2387 9.07645C29.2243 9.07645 28.8281 7.79424 28.3527 6.23111L27.492 3.38578H26.0946C25.3275 3.38578 24.6973 3.39298 24.6973 3.40019Z" fill="#8E8F8C"/>
<path d="M33.8088 7.94191V12.498H35.1234H36.4379V7.94191V3.38578H35.1234H33.8088V7.94191Z" fill="#8E8F8C"/>
</svg>
